<mxfile host="app.diagrams.net" modified="2020-10-10T12:02:04.187Z" agent="5.0 (Windows NT 10.0; Win64; x64) AppleWebKit/537.36 (KHTML, like Gecko) Chrome/86.0.4240.75 Safari/537.36" etag="H0JU8plvh98TgEGOGBzx" version="13.7.9" type="github">
  <diagram id="2ziEVY-V-uRX4OGENCFQ" name="Page-1">
    <mxGraphModel dx="1117" dy="909" grid="1" gridSize="10" guides="1" tooltips="1" connect="1" arrows="1" fold="1" page="1" pageScale="1" pageWidth="850" pageHeight="1100" math="0" shadow="0">
      <root>
        <mxCell id="0" />
        <mxCell id="1" parent="0" />
        <mxCell id="mYIh2JkVeHM76ZporqHf-10" value="" style="shape=image;verticalLabelPosition=bottom;labelBackgroundColor=#ffffff;verticalAlign=top;aspect=fixed;imageAspect=0;image=data:image/png,iVBORw0KGgoAAAANSUhEUgAAAyAAAAIQCAYAAAB5fQpxAAAABGdBTUEAALGPC/xhBQAAAAFzUkdCAK7OHOkAAAAgY0hSTQAAeiYAAICEAAD6AAAAgOgAAHUwAADqYAAAOpgAABdwnLpRPAAAAAZiS0dEAP8A/wD/oL2nkwAAepBJREFUeNrtnVuKZEtyrls01RRsSMiHQBQUBBQUKB/qYUO/STPoEZw3jUJvZwQahWahSR3oCaj9KM+pVMeOvZa7m9vFzX19Pxgrb3WLzIrlf3z2m/3hL3/5y3/9+PHj/zxftW/XPkblrH/6p38qvR9//Fjr7QzX1sd63z6q1uej649//ONfez9v8fbztfa5jNd//Md/7Pr42fvSr+u9nr3d+nzt7aP3Pz7Gcz1FURTlXX/+85//3/3mDx/vPNb7jeT5Yxbl9ftmqfcDR+3tnutHPb9/1Xo/GPW+bXk9e/vxkPr48cePPX/d8/Xja2r1cSg8e7t2ffwzap+X/H166/HvGl3Pf3bvY9j78dq/8ejXjv5+Z3/v3n9X6/c4+T1/85xF7XkP8n7b49q6L3p/7OxeLPl4z+/Z+hrrfydFzazfGZBng/Dx/vO19rUSo5HRkEQ9qT4+IVg+Qa9uLh4/JjUiVsbFy9RI/yyNeaqZqaOyNiKR5sLLBAmNQhl5+8GklNb1J604+njt1/zm7dr7Hz8HvOCUwxRc+fp4b+y9h1p/3cjHer8+6tdYnjO4crW8/j8Dor1JtH59VjPyfKM9uxlIbxbSm8nZqxxnT0CtVzgymRSpaTj6tSNfa2k4PMjKkTk4oio9RuLIOPR+fc10tEhQJhPTMhwnB3/Tq7XZOPv79n5M829uvah09Fx9dbMhuWeM3IdWeFtygB49ZEvvldJ7aqsjQXJf1jwGnr/G6vuT/W2L971+36u//zsCIqUcO9wgah/vvTloX7kafYKUmozWk7S14bD8NT0UQWp6oqjHSLuXpCXMgnBkoh+j9OLs8O/49xwlHqLfR2ueRr7Gm3yseB+pvYAkvZ9oX7Qavb94vz1KBnpbriK/rseMeD7e0d+nK7ztSZVW+Hym99+v3QSk5xUviXGZfQOqvVrVe3OY0ZolcerZ27Nq5kFCP7Tkw8OM9JCPHmPRohu9mRWJ6ZCYkQjjctD21G00eg/0owd9698v8tpLQa7eYtVqSTszJL33k1Gi3nsviiYgkgOSxUHKk6hIjYf1q/eeZOCKRkT6eavfp3Uea53VtJ9fgoCcUZBZNx2rP6f3id/iFauZaLoHHfbiRQuC0dty1TIZkiyFlHyMGA8N6WgZhBEjY0E7esxIJkrSMhuar+/9uBX18CIfmpzIcxZkZ6MhJRuttioLo7E6AbGg/hEtORZGBwoSYxq0H7cyCFZGRGOARz+fzYg0CUhvsPzsc7NQfMtYWCH2KAKiabfKSj2kxkFDQaQERNtSJaUSUpPR++tXCZn3tF31GoxRMyD9eET71GwqAtlom4we89EyHpq2LMl9xYt6RB+CrX+dpvPAg4B4HN5nnwtGXvzsPWhLX4zt/bzV76M9r12OgIy0YGV8tWzkyVxKQEZvCKN4evQ/S+8PxWxjMtoKVTMiZ++P/jmWJqTHTLR+zzOz0TIwEqqSiWicmQPt71/7mLTtysqweJCP3l8/8kLO6sbDq2W35/fQ/L6zaEgE9bA46I+88t1z2JXeW6PuudJXySNeUNWYB+ljamUSvEyNpptl9M9amoBYGYzsOD/ilajRV1ws2q1mkw4N5Wj9nlKyYW0wRn6t1BRIzIwFBen5NRmMi/Tw3mqHsjIT3hOrrMnHVSmIxkhICIr2xSzNQdCDkowaFasDkuaVdO0LepL3JS8iWh/6M7zY6PF9k/w7s9KPUSOp/fNmEI/njw1lQCQtWllH67YIiAWOljzx9pgMzZOK9dedmQetodBQiNbHrf6cEdoxSkEswuE9pCRru1ZP4Nxq4pUl/dCOztUaE0sTIiEGWV9csiY5kgO/5j6juX+MHnq93h4lD9KDvdVBU0M/MhCQjPRD+30ZORtpX6y1yn9YPHZWFCSLETndhK7Jg6xORjzNh/SG0fMfTvKfMjsdGTU+EpphRT68TYmUtmiNx6jBmRUm72nR8siEWLRSeZgUjcmwmIiVve3WihDUTIT1fcDiRS0tubB6e4SQSA6xFq8Qaw9r0gNvdNtTFgIiMYGSx1raxjXS1icxMBkpiFVL4UiLZDcB0RiCDNkQrVmIbMHS9MVqsaTXk9OIyZDQiNbX1X69leHQtmX1tFhpp1tJ2rMijUZttK6laZF83HL6VRbjYfVrrAmCtj2qZjJGCUjtzxtpi8p63xg1Lxb3qpFXnUc/ZklARl4otG7FWZV+SP79FhmGke+1VX7HK3czYjiytOPX/m5dBKR3v0fG3R4zzIvVE7fkCS/DD1iP0WiZCqmh6c189FARD8ph9fmaSdHQDC0JyZLv6DUNvbmO7Ps+IklINAXRPo+3zMko0ZC0WFmSFgvyIf21kQRE0rJj1XYlOUBKW8VGD9c70w9rozJqPkcfF42Z9jSVFj+PUoNn0YLVJCCrz30fNRGebVjaV4wsfrhWNyc9RkQaRPduu2qZjJah6P2cVwg92wQsi1/TCqJrWroymBUrExJFQc5+79qf2UtBzp7jNQTEmp5Hkg/JK/aWf+bIK82jh39LCtL7a6wO1rsQEM2/XXNG0hI3zZ9nff6S/PxbmyRtRqvn9xNlQFqk4+gH/ewJm4o9/FOUp1mgrlE8n1IURVEWJqa5B6TVYvX+m/y3/pygfnWsHxPrLXl9d65vznUPqq9B9SWwbgvX66R6mVi/GNQ9+XP1jveALJX9XkRRVHCNEqlhAnJBA/JxAzq7Rjzxn10jDEbrigG5rgFpXWcYi94rBkReLz+fe65mQGY992c0IdorRVGbGhCJITGZghVsMo6utc/9Krzp/SjHr3z1mhDNjemtHL/i1PuE3nq/12xITMhjvTXePzMY2muv0Ri9SkzG0bX2ua9Cg/LF4DpqNCTG48yIWBmT18r7UvNxa7zfayysr1JzUbv2fM0vHUbl88+fo97n5tHnau1VazKO3m49//e8nclESN+2vPI2b/P2+FltGQMiasGSTsHaiID86LgRSYyH5Kbz1nGDiDQe3wXXUeORgX5AQMaMxwgBOTIeI2ZEazxuxsbjagTkl5//jl/LXgSkxzho6cfq1MTagFAUtTkBURuQBQjIr8Xn1bCW+fC+oWR4IvduvTojGxH0w5KA9JCN1ue1BORL8SEgZ+ZktAXLsz1rVuuVhGhYkg8p0dASkA8K8k1pKLxJRotmSAn3DuRDQz+sjQevdvMqPoUB0bVgBRGQX4v/K2pnNyip+Ri56Zw94UvNhxX5GKEgHsZkF/oxYjTOjEePMfGmHyPkw6P1apR+nJEPTeuVxKCsTkCeKUhki9SMjJ/FC087ZEaiCAgHWYqCgLQnYyUgIN70o/fVL+sbzFvHE7gVDfleZOSjZTx6jciV6EcGAmJhRHoNiAcBeS229MOSiEiIRmT24yhEPko+ninIveQkID8Eb48SkNUoiJZ8WJuOViYEM0JRVzQgkiWEkwnIzNChxY3lreMmMaP9aofJV/eSJ/sxYjQkBORLsScgLUMyu+1Kk/2wNCIrEJARgyGdiBXZWjWbfKxGMzK002AkKGrD6lkyvXMGxIuAjE6+0rZgWfXSSqjH946PtUiH1JhE0I+I6VcSsmFhSL4cGJJnk6AhIM+GYqT96kuxDZ+/Frvsh7cR0RAQb/phSUCeJ2JZE5Ao+qExHZkJyJvDNYORoSjqKgak1X7lTECORjg+5z48MyCer369KW4g0A8dAbkXO7IhMSZWhuNs6pU3AdHs/bAgIK/Fjn5og+nPBkJiTKyIxmwC8rn8noLMIiARpkD73P8W+LaVGaEoaq36Hvi2rQGRtF9NGMP7azkPnlvs/Bh5hczCnNTIRu+rUD8MfkhHxu6OmJIW2bCiH97ZjzOjcWY4rA3Jl9KXARk1GlLi0SIfGXIfkVOwziojAdGYkFEKoh2PfsUpVtIMIeSDovIc2N0NQXRpDMh7HRKQXiMyiYAcGQ9L+hHR9zvyalVW+mFFRizJx734Zj++lvbEK2vD4U1AbiUv/ajtAGldj1qwtOakRUAsjcYIAfnF2GgcGY/H69sE47HaBKu3CW9DPygO6skO7UHnt/UISE8bVgIC0pMBGSEfmlfLovp1ta80tX6ovMftRmU/jgzJvdjSj3s533qegYBYmpEZBOS12ATQa2VFSTQExCJcfrT1PIKAfJiQL8WHgHiHyCPox1uZQ0Bmk4+rGhkO6ny/ICAeLVhBGZCz3uFa69XM7IfkZvVWuSmtRj8kRuRbic1+3IsPATkyHPcT86ExHF9KnYB4GI9b2Y9+WBuOM7IRQUCOjEZr34cHAflc/ChIaweTdE9TxslVGekHh0wO6hgrvk/5CEiiDEiNckiNyI8ipx+eBGQF+mHRavVNcfUmIFpD8rX0ZUAsxvFaEpBbscuBeNOPEfLhvQNEajCsW7E0GRBLU2JJQX50fk3mHR5nz8MZt1BHjXa/wkGTgzoH9hlvT/leuWRAeolIMAH5tdgTkKi9H2+d70e/OhWV+/hWYrMf9w4jojUcZ5/3JiCerVeW9GPmzg8v09EiINaLBqUExNtwnNGPj3pTPCdLqXIGqtFLIbxG42bOe8w8vH6feMjkoI6x2vX79DuzcxUCopl2ZRFetLrxjbReWbzS9b3jybllPrwIiDX1aLVczSIgFnVkEqw2nR/lPkaoh9agWO798M5+ZCIgPWbDk4B8/vm4emQ5zoaFzMhyvA187QomIsqM7H6g5KB+7QP77Gvkv8mOgDzSjiPycfQxBwMinR3fa0R+lPEbYKsVy3tcoufNQjqCdzT78a3EZj/uxZaAnI3b7TEiEkPyZeBqTUCkLVfe5EO798Ni8lWLbHgSkFrYPIqAfC59BOTzz//X2qWukc/BFvuaRhfKZloauAsB6V2yy0H9OsYq6tB+teslCIgV/RgZu2txkxvF8FY3DIvJV5aLBp+Nhxf96CUgmvLKekQQkBb9kJiQs7ejcx+Ruz+ejUdveWZAegmIx1LCj6uEgkRuJfdqtxrN9K3QRgUB4aA+y8hhDha4umZAgg2IF/3Qjt71fNVt1o1llHhIjYk3AbkPXEeNxtH16POjRqSXdmgXDVpRkEjyMWJAah/bjYB4t1xJCMgRBbEyIdkIyJExWYV4RAbPdzv873hA51DNNQ8B6VlGGEBArOlHzybzni3nI6N3azeNmunwmHwVTT5mEJAzM2G9kDCCgNTMwogRuVXe1lIPa4NiufcjAwGxqjPyMZuA9FIQzRSrXgISETjPFDLPRgB264Xn0MmVqxcB6d2A7mBApPTDYqzj7Lnxkle0VqMfrYWDVkbjXtqkw3LRYM/VauJVi3zMmnrlRUDOyIfF6N0Rc/JS5FTDkn60xuy26IcFAflc+gnI56f6Vnzox4znaOv22l33cHAo48p1jatJ7ZwB+dXImIwsrrJ4de2tjGH6oxtTFPmIICHPJsKDgNQMRxQBGTUkEvohNSK3YrPrw5KAeG48j6AilrkO7z0gXvX5oF7LeOur9AUhawLS+7zrMYFqVvsUVIAr18UNgbDeFG+fGpDHjz1//vn9bgPiOAXLm35Y9RxfIffxVux2frTMhdZo3EtfzsOLgFgZDgjIuREZ2fthaTpGqIZ39uN57G6rNGbks+B6VN9KDKmwfG4+e1723OuxOvHgEMl198P6CqZgyERo/o4uBKS3FcuRgFjQjx9lfP+HBfIfvVlZ3KBqBGTmf+ojI+GR/bCkHC1j4pkB+VL8TMYIBekhINZGRJP78M6HWC4aXJWCfK7Ua9FtI49YFqjdyTSLgmQgHxyIOahf4aC+gilIQ0BWmYIVTT56g+czCYgn5q89WZ1lPzzoh8Zw3It8ytWoKenNebQMySr0o8d8WNMPi9yHFwEZzXR4k48oc6GlHx91H3w+jSInLWMhec7ONomK3AcHdQ7qfL/cHsNWC1btc1kzIL8aGRSLredW5ENyg/MgH71PwpHZD8sw+rdiO3a315h4EpBo6mGR//AwJRYE5Kr0w9uofO6ol9J+kceDgEjIh/UY3CsQEO/2Kw7qHNT5fuV8DLtbsFqf/50BkUzCUhiQGfRDsvdj5Cb4VmzJR/SrVN8N/kP0kA5ty9VdaDYsyce92BGQLPRDaj48ymLylaXp0Ey08px8tRr90FKQqAlXHvmNzATku9J8vAUdmjioc1Dn+7UIAeklH5kJiAX9qGU/IgiIFfmIpCDfO9/X0I8zw2FBQO4ljn54bzvPmv3oedui9WqEfHiSDqlBiSAfq9CPZwoyM/vh2dqaMQweSSl2OGByUOegzmMb2ILVlQGpEZFBAzIr++G9Zfet7EE/LKnH92IbOr8XP/oxsuOj9XkN+bCiH7eSc+pVi4JojYjUlIzs/WhRkBVbqiTko5eKfPr5sxsxwerMYPwotpvEM5mOWZkN78Mlh0kO6tRiBqTHkLx/LBsBsd750ZsB8XgFTor3tTc6zate3k8c1jmPmfRjxHBogumeFGTEeFhkP14djEf0xvNZFGQV+nFmVlptqr0v7rwVu5aq1YmHRY7j6vSDgzpFGbZg9U7HijQgVuFyTwKiaQkYCTdejX6MEJB7GaMfUjMyuuVcYkYk9ONLmU8/PAnIa9EF0a3IhzX9WDlQLs19SHIhn37+LHkbjxHzwcSqPBSEwz9FbURAzsxJJgLivfcj47JByxvd2Std2lexPAxKBP2wpiBeW857DIpX/mOk/cqDgEiph9ZseNMPL6OSiX60KEjNsIxSEEvjsSoF+V7mUo+3DtNAUdRFDYiUgmQhIDP3fmhbsd7K+GKrlelHDwXRhs7vZZx+jJiMu9BoSIzICP34UvwmX2XLfIzSD20YHfoxPvVKOhmrl4K8Fdn4XCvTkZl+WBgOiqKoUAJyZlIyEBAL8mG19dw6AzJKPSQ3u8zkYzb9sDIoI8bEin6MGo9nQzFCPCynXlm0XN2KbdsV9MOHfrS+ppeC9D4vrtoaNYta0KZEUZQ7AekJo58akJ59IAIDssLkK8tg5Ezs37oZzcp+ZKQfo7kPr43nURVJQGqh85EAetQ4XehH23SM7Ab59PN72TvFSvo86k0xvhu9HZnboCiKcjMgtXG8madgaYPpZ+RjZPv5qCkZbb2avfPD65WuCPqxk0FpjdzVUpAa3YgkID0mJRv5gH7UjYqmvpfx3FyNMu9EQCxMCOSDotaqb4tc/QiIoQHJmv2YvVl3ZQLiTT8ich+70o9byZn9OFo+2Nt61WM0pGZktqnYYeP5qDE5oiCWWQ7PDEckAfle5lMQjAiFIQg+2K9SKxMQ763nXuN2W+Sj92Y5c++H1yteUdmPXQyKF/04oyA9BiQy+5GdgGSgH1l2fljSj2cKojUfES/ufC+xBMTDdEA+KF69z28KICBGBmSV7IfEhGizHxE3SY9Xwnp/MKEfc+jHrdQJSDT9eO34+Mylg1fOfcykH0cUZAXyEU1ALA3IyHM/RoRD5tav3if+Xi1HQGqG42g070wC4rnzY8bEqxH6oblBWtCPVbMf940Mijf9yDD5qteMaBcOepgUAuq+9OOjvhUZBZk1JjeagGhox07mgYM63y8IyAIEpNZyNYOAZMx+HBkPzcbzkdyH56tyrRvUm/N/CiZfzZ18dSt58h+vxYZ+zDIX0A8/+vFIQV7LWBvWCgSkda39Og6UHNQ5qENApC8Ah9aZ6Xj++NHnZxAQz70f3sZDs/28JweiufmNtF29Gf8H3WHvx9eyJv24FX32w5p69JoRSduVN/WAfvhOvjqre8k5xWrUQMyYXLVryxQHdb5f1tddK/xxHMmAPH6NlwGZQT88R+320I+R8Hl07sOLgJD9yLn3w4J6WIfPpbkPa6OBqchBP54piFWLam8LVe/7M64cJHlFncP6Pgf1bb9XrZxHpilYntmPiNarEfJh2Q6goR+efcIR/yHuAQZlB/pxKz4ZEK35sFo46Ek9soznvUr249mE3EvMtnOJEZllPtjZwSvqHNb5ni1PQI6MiVcGxGKsrif9sBy525v96O1Vjpp6NXKjivjPHGUwvM1FNvoRnfvoNSajY3c1RuTK43Q/l7z04+P6Emg6IvdvrEg/VicgHNA5qGOqEmRAskzB8s5+jLRejZiRMyMioR+Wk680NzPPvR+W/yHuJaY164r0w5qAvAreHmm98s599O792Jl+RGY/JBTEq2U1A/XQZD+88nwcMqEfHNb5XrkQkI+3ow3I7L0f0cHzmQHJoxuaNQGJaLGyMhgR5iID+RhpvcpKPyxMx0uZS0DIfrTpxxkFmUFAVqATnqSDAyYHdALbPO4iAtLKfhy9HUVAZmY/LE1GjWx40Y9R8hFx49ypNcu7LcvaoNwab0uNh0f2w2ryVQQBeTYNZD9i6cejKfla4l6gGXmefHN4e2bL1I70g4MiB3Uq2IBkJSAZdn5YTsJajX5obnarm4t7uVbuY7T1KnP2Q2M6pNTD2mBkMRUa8mG996N1fSkykvHdyHy8BZqFrASEV+73JSAUFZIB6Z2MFUFAMu39sCYgK2Y/IiZfEUyPMSiWFCR79iMLAdmdfszKf0gpSI8RgYDICMhuh1UO9hQ1oQWrZwRv1Cb02VOvNPTjraxNP7xyHxZPvBHmosdkrEhAbsV370eW7IfWdIxkPiyNxi7ZDytD8klw/aXE049IswAB4aBPUVsTkNYSwggDoh3La7n3I4KCtDIiWvIxK+9x1CPsPflqJ/rhZUyeyYeUfkRkP0ZD554Tr57JR+8UrKtlP2YQkA8T8qXkyn5kJiAc1CmKSktAzr7OcxP6rOzHUVmM3M1AQEZevRu52Xm+IrWbuYjMfuxKP6zNxujEKwujsVruo9dkRNGPRwpylNGIbrnyJg9WLwiNEgyKoihzAtL6nGcGxGopoSb74ZEDaU2/stp+LqUeZzdUz/nwXq1ZuxgU650fWvLhQT8ssx9HLVeeFOSlw4h4Zz+ytGhZGBRrAvLp5/d/9xG52rYkDAVFUWkISI8Z8ZyCZZnv0GQ/Ro3Is7H4ITAfs+mH5mYsveFBP/LQj2gC8lr8sx/R9OOqBCTCTEivnx7et8puZMt0fCv29AMCQlGU5vwluX7rpR1n+RBPA6KdfDW698M6/xG59dwq++Fxg23d6KAfcQbldvB+dO7DOv9xK3EUpEU6rpT9yGhYHquHglyNgHhSaIqi1jYGp4bBukZarzxbsKwnXEVmP95KPXi+0t4PqREZuelBP2KnXt1KnuzHa7GjH5YGQ7vtXGM4dpp6lYF+PFKQb5Xnwtbkv6zTrLwICPSD4qC+1vUSBOToaywMyLNRsCIf0olXVhTkrchD5xYEREs/PCesWBqRWfSjtfHcyqB4Zj++lDrVGCUgHhOwRkxHRP6jh3JcJfuRnX70UJCVqQcEhOKwnvOwDgEREhDJ9CtLAvKrkdE4MhSa7Ed061U2+uE18eq7038wC4PhbS5mbT3PRD9aBERKPayMhpZ+7EBAdqMfLQqyWvbjW7F9vh4lIBQHdb5XEBD13ztDCD0LAbFaOijddu658VxiPjxutN+Mjcju9MPaoNxKvulXryWGgETSD8+FhKtnP6InX0koyBVzH5gCDusc1vleRT92h2erlsGoXTMRkB+d70fTj5kEJGKO/ciN77vDfy4Lg7GaubDOhkTRD4lJkYbPR02IBf0YNR5kP3zpxxkFkexBymI6OJzmO2RyUOewbn3dtX7379QYkCgCojUiXtSjRUCk4XPr7MdM8hE1Z/4e8B955ezHreTZeq4hHZ5jd63px87kIzP96DEiryX2xZdsVwgIh3UO6usd1He5/q7ejcSo+bA2IB4b0Htbr7Rbz0e3nXsRkKz0w5qAWBkMb3Mxa/LV2eey0o8ZSwehH/vTj8e6K58DLXIYK9MPXr3noM5Bne+XxfdrCwKi2XY+i3y0CIgn+YiYgBVFP3YxKFFbzy2Ih9fWc03b1c70I1NAPdvkq08DRuW1rEdAMtGPGYf8y/TEc1DnoH6l79cuGRBLAhKR/fAiIFLjAf24Bv0YNSGZ6EfNdGgMiZZ8QD/WoR8f9bVAQFY56HPQ5DG8/EF90+9XVwvWLALinf34Ufk67fQryd4PDwKSafLVqvRj9b0fZ0bEIvMhMSke2Y/ITIiFQbka/YicejViWF7KGgTkW+knIBFmg0PmmodNHjuMVcrHv4d0ZM6ASPd9WC0btJp6NYOAzKIf2VqrvI0Fk6/sch9eRmOWuYB+zKMfIxSEQDGHzJUPmjx2/PymrA+DkTED4tFuZRU810690hgP7dSrGZOvLG/iEf/pI1uzrAzKs5nw2Hhumf2w2PWRwaBcYefHTvRDSkGsMhirZjY4aEJAOKxTLiUhHqsQkF7zMUJA3oou92HRetVrSr6X862/XgSEYHlO+rE6+bA0GDNNRQb6kS1IPoN+SCjI6tRDS0E4lEJAKMqleg2HGQF5/0UNAqI1HlGjd6OnXp0Zjkxbz3cwKLvu/YimH6/FJgfSCpxDP6Afo4bll7I3/dASkCsd0jnkU1QyA1L7mCUBsZiAFTF6960w9SqqZcDjSX5X8nEreejHa7HPfbR2gJD9WJN+zCIfj/Wl7Jn9uJexF3A86QdFUdT/VOgekEf6oSAgP4p8B4hH8PxsAlYP/dhp6lVUMD3iBreDQRkZueuR/fDIf0RMvmrt/IB+zKUf1obll3I8Wndl+sHhhqKo9HUUQm+REBEBeTYdBgZE23qlmYT1dvKxiLarWZOvdmqtal2hH/4EZNbiwdmmgqlX+ejHMwXZZXLVvUArKIqyPyNZXu8Sw3H0tdEZkBH6MXPcbs1wWBEQaRuWJfmAfuQxKKOZDy/6YZH9qLVeeZCQDPRjNaOS2bBIKYgV9Zid2cBEUNQ+B/UwQxBdErPx/DnrTeiR285Hycdb0WU/Vtz7scvkq9Z/QHZ++BOQ0YlXWrNx9clX0I923cr6FMSCgFAUhiDZQX3Xx1E6AWuIgJy1YQkNiIZ+eNCQkclXO+79gH7MMSi1vR8W1MOagGizHxFTr8h+XHdM7+diQ0EsDcdo7gMzQWU5ZO5oCngMjQmIlH6opmB9GBIDAtLKflgGzWvvSyZfWRsTr70fZD+gH5YERJP98J54Bf24Nv3ISkHuRfY8eWZEoB8cMnd+9Z7HEALSnnilICAW2Q+NKRlpvbIyHpq8hxcB6X2VEIPia1Cy5D5eS38GJCp0Dv0g+zFCQe5lbArWbPoxy0RwUOeQebXvF4+hMQF5NBgz9oB40g/N1CvN8kHPIvtxbfrhOfnKcvSuhHy0TMeIKSFQfo1Ruib1t7/97R9KPAVZ/YDKQZ1D5tW+VzyOhgSkZxLWcAakRkI6DcjMyVdvRb900JJ8ZNl4TvZj7sZzDQXxyHpYjd+NmHTF5Cv9zo9I+jHDsNyLb7tU1gV/XwsHdQ6ZfL94DI//zebVSzyO3p85BUuS/bDYeC4hH1aLB2dtP49cluV5Q92RfhwFz60IiHU25LXoJl9ZmYur5j7IfoxTkNeB57FdFgZyUOegzvcq2UE9SVk/ll9rWY9hAtLKfwhC6KNbz62MyMjuDyvTYZH98GjJip4Es7JB8aYfNboRQUBqGQ8t/chiUK4QUM9GP6aQj5/mY5SC3MsYuViZfnBQ57CuOoByUF/q6kZAWkbkzJxUCUhtC7qCgEQEz9/KeO7DMwPivWyQYHn+yVe3km/ylfXeD+gH9GNaCSmI1Khkph8c1DFWHNQxVqEERLKIcHgT+iP16DQgo7s+VicgFtkPDwLSoh+WgUxPg9L7nykb/biVevZj1tbz16IPofdsQId+MPkqin581NfiQ0Duwq+PXtDKQZ1WGw7qGCv371cPATl7+zQD0kM+nAiI1cZzzdQri9D5SCuWhenwNhhkP/ba+WEx/cpj8SCmAvphYUheBM9jKxKQrwbGgoM6B00eP4yVeQZEvQl9sAWrlvvQEJDovR/WZkQ69cp678curVmr04/bgAHx3Psxmvm4NcyGJwWBfsizH9uO6X2kHwckpJeC3IuegESbDw6aHDQhINf9eZ9eUgLSzIDUTMdzG9YAAfEauftW7FqvvAiId/Ac+gH9sKQgsxYPQj+gH5b1UnLTCw46HDRX/H7xWFBfawbjLISu2gPSICA/yvjY3drXWYTPIxcOfi8y+mE56Qr6Af3QEBBt65V3/oON5zkXFIYbljPy0aAg9yKjHbM3lbeeDzlscjiFgFBpCMjZtYuA1IyHgoBELB3U0g/tJCxp21Wt3UpqSKAfdgTkqvRDEzzXmg5aqqAfUVmQLObB4vDHQXNvY0VRSxiQHgrSJCBntKP28eK7dLDXnGjG7lrTjtHgOfRjnH5kbM26lfFt59HZD8ulg55jeaEfObMf4Xs/BPTjo74UHQHJUl8nHFKzH9Q5sFPUZAIioR/DY3grBCTb0sGR8LnV4kEp/dAYk9XNRdTNJUvuYxf6YWU6oB85DcXS9OPDiDwYkl8SGQjN9a40BxRFUWYGpKfVqjsDcmQ0ap8vtq1XlosHNUsHLQjJ6NQr6Mf69MOSgkRkP0bIh4cZIfux5s6PbJOvzr7+VsYoiLchoSiKWp6ASEPpQwREsIjQc9t5pqWDkoWDVqN2vQ1G5I15VYMh3XaenYBYjN+FfpD9yEQ+Hj8+i4JYtThRFEV515fO69ea8ahtQa8akKOt5wMEZCR4bjn1ytN4eBEQq50fUVvPI+hHxE3ZevKVduO5NQGxJB+RE6/IfpD90GY/nk3JrcS2TmEuKOraB/XVrioC0lvdIfTODIhV8Nx774eF6fhexkLnli1XngRkN3MRRT5a9EPaepWFfHgsGLw6/cjaTrVF9qNiUj4PPk9pnue0BISiOKgvfFDf9PvVXERY+1jXGN7aBKyGARkJoGvNSIt81AiIxejdkeC5pTF5NhKrZz+8b8wZycet5Jt81SIgTL6CfqSjH0ftWCdZEKvno7PnJwwGxUGd79clCIhLBkSwB0RCPzw2n3tuO9e0XVm1V/VQD43R2MVcZKMfWQmIhH5YmQ3oRy76scXOj5o5ebpKKAgEhIMfB3W+X3y/hBmQnjzIYQvW2bUzhB6x8bxnAlbv7g+pGam1W0m3nltPwWoREAvygUEZMyMjFCRT9sMyfA79WJ9+pJh6VSMhJ+ZjlIJYEhAOmhz8OKjz/dqagLRIiAcBidp4/nbysZnB81H60WtCJJmPUcOBubDZ66GZehVJQKT0Y/Wt50y92px+tMxH+S0F+VrWGI3LQZODHwd1vl9LEhDRFKyBPSBHGQ4pAYkYt2tBQL4XffDcY/fHN2MjMot+RLUkeGY/vpT6VKtRAnK1nR+z2rNWNSrbGhYp/WiQj8eveS0+ywJpjeLgx0Gd71fkdUqZTsFqTbw6mYIlMR/WZiNy54e0HcuKfIxMvBoxHt7mIvLGPeM/7Oj0q5bp8CIiI/QjioBgKqAfLgTkwIx8LXnpBwdNDuoc0jc5rDvWtMexl3acvd89hvfIhAgNSGYKoqEfM8nHdwcjsjv9sH6SunW8Hx06t6AfHuFzAuprGpVt6EcHBel9HvJ8fuKwySvqVzJWVzmwb2eoXAhIbyD9wYB404+3Mj561yJ4Piv3MbrvQ2o8vM1F5M0703/Y6NC5Bfl4NhtWJARjAf1IRT8OKAgHUggIB/X9DQGPnzEB6aEdqkWEZ+akxOY/3opu6eCo8dDQj7fiP/XKetqVhH5YmZOVDcqtjGc/LM3Ga8fbmt0f3hRkZvbj0ShgVDamHxUKkol+rPhqPwd1Xr1fwRTw2AURkJoRsSQg3tkPbeuVR3nv/BilH9YExMpgrGouPHIfLcPh2ZYlNR+r7/34pay3+wP64Uw9DszIl3JdCsJBncMmBITHT50B6V1E+Mc//vGv3QTk+eNCAqIlH28nhkNiPjQURDv56uhtC4MSRT8iWrMiDErvf1YLMzIy+crCdNSoR+a9H4+GYTb9YOfHAhvPhTs/eijIS+P5KNJwcFjnoMn3iscw/c+16xSsnmlY5Zr0I4KAQD/y0g/LvR+Z6Ie16XgpcwmIlHp4GQzox7yt51IKMptWcFDnkMn3isdwiZKYjaEMSO1jkwlIRP7Deu+HZWsW9CMP/eg1HWfEQ2s6XovNBKzZez+yExDoR5LsRzFqv/qoP/y3fj62s9utOKxz0OTVe2o5A9LTemVGQJ7G8EaSj97w+arkQ0M/LE2GVUWENmc88XnlPzLRj8i9H9YGYyTz4WE0oB9JycezCfn5sVuZRz84FHJQ56BObUFAaoakOwNS24zeICAe5EOa/xglINqdH57Tr75NNiYrjuW1fMKv7f0YnXylNSfe2Y+IyVctAuJJPnqnYEE/NqQfCSgIh3UO6xS1bQvW8BSsGgmZSEBm0I+eFqwIArKCuYg2GBluUJmoh3X2I2Lnh6XRGJ14ZWU0PhfoxzL0o/yehEgpiNUhmgM8RVHbGpCuDEitBUuQAdEQkFH6oaEeNcPRQz+ezYcHAYlozYowKKtmP26lTUIiMyBR2Y+IreezCMjsDAj0IwH9eDIgkRSEgwxFUZczIO9tWKcEpGU8KgYk2+QrLRn5XuKyHxG5D+jH+vTjtdjRj5pB8J6A5UFANPs+LIwG9GNR+vH0douCcAChKOpqdbMyIL8hIDX6ISQgs7IfFqajlv2YST4i6Me9XIt+aP7jZaAfPfmPXvOhabeypB+zsh+tDAj0Y5O9Hy360UlBeskqrU8UxUF9p7fNCEgzhN7ahv5kQLzJR8t8eGZAsu78uHKwPMvNfUb247XkpB+afR8WhkO77TyagEA+4jeeN+lHBwXhgEVRHNS7D+qbfr/sW7AUBERLPlr0Q9J6NRpM1+z98CIfu9GP1QxK68lmJv2wyn5Ek4+eMLoXAemhHFHZjx0Mi8q4jNCP4kxAHr7+c4F+UBzUOajz/YonIMIMyEz64UlAdsh+RJiLKINxdfrRIiBS+mFlRrTbzrWGQ0s/LAxHxnaq7baeW5iP0qAfFQrCYZjioM5Bne9XcciA9LReHYzh9Zp6FRU8z7734wrZj8ztWRYUxIN+WOz9iKQgPZRjRvYjYiHhCvQjffajFNfpV0dtWJ8L9IOD5vyDJo8fP+9bEZDftWBJxu8GEZBe+uFFQFr0Q2s0yH7kph+3js/N2PvxWuyyHxamQ0s/tMbDgn5ojQfZj03ox8HXvwaaBw6aHDI5qPPzfi0CIm296siAWOQ/WubDk4BIW6+sCUjUxnNPY/JoPlY3KM9PNFrqITUpFqajt/XKg4T07vmIzn54047sbVpTDEvG7EeFjHwOPHhx0OSgyePHz3vk25L6za/54x//6LeIsOdjB0ZCM3ZXs/XcmoAw+Qr6kZF+aNquPMLnFvRDYzys6MeoGWHvxyb04+xzf/hv/fz55ODCQRMCws97xPdL8gKm5u2RYTpfLAzIb1qwWiN4g1qwninIKAHRkA+p+bAmHz30g8lXvhvPteTDinpIjIcm++GdAZmx5VxCP6IoCHs/Eu79KJ35kMADFwdNjBWPX98BPeqg7tHV0EMaUl9NCUjv7o+TELp27K5F9sOKgoy2YWWiH2w8tycfFvTD4klqZOHgWfYjgoB40A9L8sHeD7IfVUPyk4K8cNDkFfxFH78dD+qSe/KMq+btFa4qA/JeTQLSoiPFh3yMTr+yICAjpsOKfETSj53G8noYlNEnBY8nW4vFg7PKwqDMHs8bTT4iDEs4+SiT6EdpEI7SQUx+GpBPBodCDut539b0w/OKevxBPfu/TfM2BERIQGZMvrImHxIDMmo6yH6su/dDQ0BGbiYWLVe3chw+bwXSM5sL6Af0Q9V+VYo8mP5AQb6Wax/Uo1ttog762V+l3vUV9S0P5xe42mdAJCN4lS1Yb8VnAtYo+dC0XFkRkAyTrywMStTkK2v6Ubt59j4Jer2KpV0+mJV+YFQuYlhmZj9axqR0EBMlBfEmH7v2xGc+FPOKOtdLX80JSM8CQkcCIqUfmnG7I61YWtMB/ViPfvS+muRRVgTkjHRozAmmAvqRnn4UYxIykAWhzeYa/fBcuUab0enlRkDOiIdBBuSMfHhTjx4z0mM+rMwI9ONa9EP7xGERPI/aeA79yDv16nL0Y2QMr1EWhEM6LTdcOax7VAqq6b4HJJCA9LZeacxIi4BIWq+sCQiTr3JmP2Y+wVmFz60NB/QD+pGefmgzHw0T8ovh8wcHc64c1K9xaJ/d0pibgEiD6MWOgHgajx4z0jIfVjmP3VuzVjMoNfJheYCIJB495MOTgsykH707P65mVKYYllkbz0tHHkRjTEofBeFQy3UlU8BjiZmaR0AmTsGKar2Stl3V2q2khgT6YWcwIqlH1ic2jRGhpQr6cRn6YbWMUEhBoBUcLlc7aEJAICBzCYiUhJT4fR9Wu0C+F3nwHPqRI/vhufNjpP3K8gnjtfG2ZulgBPmAfrDxfIh+WJuPckI6imE7VtFTUw7qHC6zHDR3fQwhICtlQIIJSI/xsDIbkrars/A52Y+1zIXEeNwGDxEZ6QeB8r3bqbajH1bmQ2IwNGbkiYKsdnCBgHDQhIBgpHISEGMDMpL7sBq9KzEm0SQkYuP5vcynHysG06U3PY/sh3byVc/b0I9r7Py4FP2YREE4uHDAXPl7BgGhTAxIjzH5DQGRLCBciIB8L2NtV7XsRzaDEUE/7hsajJrZyPjqW3TmA/pB9mMpAlIMsiCDFOTzYoccDpd8rzicU6EE5Plrf0NARilI0dGPKALyvcgJyFlZEJFHE+FhTHZdSmg9+epWdAFSSwLyKnhbk/vwMClMviL7kY5+9BAQK7NSfk8rOahjrPh+URiQSkW1YI2SD4+2Kwn90LZheRKQ3cxFhp0fUuIRdZOAfkA/yH4Ig+cTKAgHdQ7qFHVZA9J6/5F+RITQR+lH5JSrGVOvIggIBkW+/6PXfLQIyEz6MYN8QD+gH1PpR6kE0YtT9uPRgPw0IVAQiqIgIN6LCJUEREI/IsPntcWD1ns/NEYDc2E3+cqSgHjc4K9IPyAfm9MPKxOSoR4MyEoUhKIoKsyAPH/tIQExbMGyyH5oTIcVAbEmIy0CstLkq9UNyq3osx9WBsOCfkTv/cCoMPlqmH5YmY/SQTuKIwX5w4N+/rxxOKEoCgNiTUCUGZCe1qvZY3c1pkOS+Rg1HJgLu0lXGcbuWtIPK7OBqSD3EUJARq8lIQH5aUA+cTChKOpqBqTn7dMQuoSACKZgvZX+1itP8qHJf1gRkG8NI2JBQO4bGRTLqVc9pqTHgFgbDQ/6kW3vBwH1CxgW6AcUhKIoCIh4DK80/9FBQN6KDf2YMflq1HRIJ16NGI5dzMWsyVdW9COCgIxkPyIJCKYC+jGFfmQkH1AQiqIE9/Ud3vaZgqVowXorY8HzM/ohNSfW9MOagFgZkVn0o7XxPKtBuXW+vwv98M5+MJ4X+qGiH5ZGpEwgHzUDAgWhKA7pJ/fsyxKQg9as32ZAeo3HQAZkFv34XmSLB0dH8o7s+5AaD29z0TIVWc1F5N6Pm7MpGaUfvaYEYwH9gH44mw8oCIUp0L2yzuO4JgGpmI3zDIi07aphQI6mX41QDyv6kWXvR8uQeNIPK3PC3o/85CPL3g9Pk4JRuTD9yJD/+EOHChSEw/pmB04eP4zVmQEZoCF/z4A4bkLvNSEzcx+aDMjotnOJEbkX6EemvR9Zp15pTAeTr6AfS9CPMpmE/KFTBQrCQZPvFY/feSvWlgSkx5T8LgMioR7CEHqP8dBOwLKiH147P6AfOSZfPVMQLQEZMSKtJ90R+uFFO47Ix8z2LIzKwjs/ikPrVUky+apiQn7hkF49hHFY5/uEMV3UwPRSj4+vq2ZApEbkyYCMTL6aTUC0hiOCfniTj5apsDIXq+/9yEI+bg3DITUjL2UuAcFUQD+2ox8VCsKrwRw0+V6t/fi9Ch+bXa/NPSAtg9LMgBhsQu81HqMU5HvRT76yWEI4i35EtGbtuPdDkwHxIB8j9COCfGQiIBlyH5enH2Xi3o/Mk6+cKAiHdA7rO72Cv8OB/QrmousqJSBP5uSvHiF0yeQrLwIiMR/R9MPSZFiVN/nYYe/HbuRjZO+HtcGAfkA/tpl81aAgoy0UOx/QOaivYVy4cm0SEOkW9N8QEGn2ozEFa6TtasbUKw/yUaMfUcZkxWB61N6Pm8CA9LxtRUBGFw7eDI1ID/24avYD+jGRfpTB/R8ZDIiSgnBI58DOletSLVgiAiKdfmXQguVJQFr0w8JoeNOPCHPRYzLY+5GLgsxeJmhpNKAf0I/t6ceHfv57ZtEPDupcuXINISAmGZAW/fh4v0BAoB956ccI+bCkHlbk48iI1CiIl1GZRUCgH2Q/lsp9nFCQz0JjwJUrV67bEJCuKVi99KOxiNDDdFhkP7wJyCrZj6ttPc9KPmbQD2n2w5qAzDYVnwv0Yxn6Ucpak68EFIRDDFeuXJetWgbkjIK8Gw8xATn7XBmnHxrzYUE/LKlHZGvWvVxn8pXFtnOL7efW9EPzJBVFPnqMCNkP9n6cko9S1t/78QdjlXMKwpUr100P6h11W/DtV0ng/MiI/IaASPMfPw3IGdXo3fVhRUF6qcfo1vOoqVdsPN+ffkgPIJZPwpp9HxaGA/qxOfko0I+RLAhXrhzU9zyoz2idzkxAzjMgPZOvnkLoPcRjNvmwJh2704/VDMqt8fYM+mFFQCRPwpbkoyeM7kVAoB+2hkVlXKT0wyN4XpJvPIeCcE1mCjioY6zSEJAToyLfA3JCQEY2nVvmP0bMx4gpIfsB/ZhBP6yehLXbzrWGI4upWN1QbE1Adpl81aAgL5iQy72Cz0EdY7U9AWnRj8MMyEj+46kFy5t+aLMfnjTkKtmPzO1ZFhQkY/bj1ngSjqYfV8p+ZAyqp85+WLdelcUnXzWWE94Kh3QOmjx+GKuNCEit5aqaARlcRDiS/ZhNPzKZi932fkTTj1vZn35YPAlr6YfWeEA/LkA+ygb04w9BKn+nIBw0ISA8fvy8L0tAWhvRzwxKNQPSY0RKDAH53ni713xY7/2I2vlhYVC+lvlTr7wNym3QgFgREEvy0fskHEE/XksMAVmRfmzbqjWbfuwy+apBQUYPVxzWOWjy+PHznoaA9BqRwwxIzWjUKEgZm3wVTT9GzcZu9OO+sLnYgX6MGBCLA4cF/dAYDyZfbUxArExILXi+G/0wpCAcNDlkclDn5z0NAen52EcOpBlC79gD8lb6iIeGhEipR81wRG08z5b9+Fr2Hc37nPmYNfWqRkGkrVfRT04ztpwz+WqjvR8W5qPHjJQFJ185URAOmhw0efyo6QbkzHA0WrHO94AsQEAkBkRjOiJarCKmXt0XNRdS8mFBPzwIiUX71cgT8Uz6kcFQMPlqgZ0fvUZkJ/phREE4aGKqOKhT0w1Ijwl5/vrmHpDWVKwiJyASc2KV/RgxI9/KfPphaVC+lrljeaMmX82gHj35jxmtVyvRj9XIR9SSwsvQj5nkY7IBgYJgrCjqmgSkRTsGCEi27Ie27WpV+nFmPHbeeq4hICNG5LXE0A+NudCQD+jHwksEC/Qjtfl4MCG/DD4HcFCnKGptAiLJf3SO4bWYgGWZ/dAYjtXpR48RObtmox+3Up96NYuAtPIfI/RjFYOyOv3Ivvcj7eSrYkg/Wh/zNCYJDMgIBaEoitqHgPTQj8YY3gz0wzID8r2sOfnqa2lnQHahH9L2K49sx6704yqmImvuIy0BsaQe0rI0I7PNhwEFoSiKSkVAWkaki4DUqEjFgHiQD+3eDwsCstLejzND8mg+7mUv+qHNgHhNwOo1H9GvdFoF1Ml++NKPbbMfZXD7+W7m44SCUBRFpTcgA2N4+whIqxWr+NCN0VYsK8pRC56vlv04a73aKfsxc+eHBQFpldf0K+hH/qlXKQnITPqxqwF5oCAcbiiKinyBceT62rPt/GwHyO8IiIR+HEzBstp6XjMj0nYrSwKy+lLCZ7JxL9APjUF5LX0ERGJAIgkI9GONnR+9BCSUfBTH7EfZdOcHFISiLntYn3VNRUC6MiC1qVeTCYh3AP1b8aUfngbj3jAVd2NzkWXqlSR4HkFAtK1XUU+mO5qKHTeepyMgVvSjTJ5+ldGAQEEoDur7HdQ3/V6JCEj3FKweI3JiQLR7P2pmRGI6tBTk28DVO/thYUwi6Yc3+bCiHpYExCJ47k1BWjs/vI1Klo3nWRcUtoyIKQGR0o+o1qtyoezHs37+m3c+GFFrmwIeQ4zVKQGp5T5OCYjEeJxMwfIiINKdH15jd1fNfngQkEz0I1MGZCb9oKVqP/qxHQGpmY0SSEAyG5CfFOQzB2sOmQkNAY8hP+8vZwbk7HpCQ/oWEQ4SECviMdJyZbV4MIJ+3Etca1aLgGRtz9JQkLNFgx7kQxM8j8h/QD/WyX70ZkCWox8SU3KV7EcyCsIhk4Mmh3V+5rsJiGT61eP1kIDUDIeAgFjsBYna9eFJQCLMxb30tVVZGI3I/Met5N//IaUeHrs/oB970o9LEBDoR5OCcMDkkAkB4Wfe6vtlVr0E5MSc1AmIcA+I9c4PjfGwIiBRez8i6YcX+fCYfFUzIyPhc4/t51r6cZXJV9CPcfqxVfajTCIfqxmQiRSEQybG6kqPX8SLdJnK6mfiRbIJvTsDMnEPSC/5sDIdZ+ZihbG6Rybj3jAYGsMRPfnqVmwmX1kbjSPyMYN6QD/2px+pCMjq2Y9VjEclC8JBE2OVkYBwQF/rak5ABNRjjICcmZJi03Y1Mn7XinbUxu6uvPfj3mFENIYkyqDcyjj1aL1vkf2QtmD1vk3249r0o5UBWTb7MWv61YoGZBIF4aDu9xzMgf1CB/TNv18iA9IkINIAugEBkbRceYTPdzIX9w5zMWo4dsp9aInIa7Edu7tyS1UGQ7Ez/ZhKQKxMyIw2qx3MxwMF+cRBnYMfB3a+T9m+XwLacbgNvboJvactq8S3YHnTj90mX1kakdUnX3mYDrIf67RorUo/zIzIyNZz79zH1fd+JKQgsw+ZHPw4sPN92oyANKdgSQPoTwbEagSvd/5jx9aqs6uF8ci29Xw09zEzdL7b3g/ohz/5SENARq8S0wEBEVGQ3Q+aHPw4sPN9WjQDopqCJQmgKwjIkakYab3yyIPsSD/uxY+ARGw9l+Q/LHMfPYsGNa1X3hQkQ/YD+jFuWEyNSAb6USa0Za1uPh5MyC+D/69XO2hy8OPAzvdpgRqhHuIpWI4ZEM3ej4zmIjP9GDEeGeiH1a4PDwIykv2IJCC7m4pdcx/TCYjl2N2ZBGQX85GEgnAA5KDOgZ36jQEZ3QVySkBa1KNzEaFn8Pyt2OdAonZ+eBsU710fXjs/WvRD2nplnf2wph/e2Y/ZN5AVjUpGw+IWKC/O9KPnbXIfUBAO6hS1JwERb0LvyX0YERDrCVjQj7bZkJiRTNkPLQHJQD+spmFhLK5DP6YQkAj6EUFFNjUgnyYeODioxz12FHUdAtIz+cogAzKy7+PMdFhPwNqZfkiMR6bsh7T9ypKAaIjHbALSe9PzNCkYlYXpR3HOf1gZlqsZkMkUhMM6RVH2BOSZfAQQkBHzMWo6oB/7T76KLovgOZOvoB9b0g+psbA2IruajwQUhKIoKp6AHL1fdKN2pXs/PAhIhuyHlTlZ0aDU6IcFAZGaFGvy4bmIMBv9yEI+oB+TJ1/1TrgqTgRkZwPyQEE4BFEUtSQB6d6EnoCAaDIgEfTDm3y0TEVWc7Ej/ZjVegX9uBb9WHbyVY+pKLReQUEoirosATkMofdMvhowIN/L2NJBbwISRT92MShRk6966YdHBsRj8lU2+rH7gsLVNp6bG5aZuY+o7eZXNiBQEIqiMhgQFwLSWyV274fUdEA/1qUfGQmIduu5d/4D+gH9mEY/ek2GpzG5ivmAglAUlcGAmGdAaq1YAxkQLf2wnna1G/2ImnwVTT+iJ1957/yIoB8zyQf0Iwn9KIMUxMp0FMH+D+iH2oR85iBEUZTBPVx8fTYgqxCQiLG73vQjwlzcSwz52C37YU1HrMiH1KTMNBXQj0Xpx1FrVQnIfsycenVF8/Gun48lByiKSnxQX+DqQkAa5uR8ClaLfHQaEIvJVx4EZCf6EWFQsmU/IgmIZvRuZPaD5YT5tp5Pox8l6dbzUph6BQWhOKhf66C+6/fLbQ+IIwGJar3yNhhkP5h6FdF+dVVTkc1MQD8U9KM4t19d2YBAQaiEhoDH8UIEZLANS74HRGBALPd+WFKQnZYS7jT5atbmc+vsR/QOEOgH2Y9h8lECsh8sHYSCcMi83Kv3PIYQkP4WrJbRUI7hjdx6vgP9YOfHevTDw2RAP/K0Um1FPkqJ2ftRlFkRDIiIgkQfkjhkYqo4qENAJKajTkCkywiLPAMy0nplufXcO5h+x6CIcx+70A+P8buZd35AP5IZllmTr2bs+8B8VCkIB00OmRAQft577+NDZToFa6Q6jMdOOz8izEWUwYB++E6+WnHjeaaWKgxF4t0fLcMh/XoMyJIUhEMmporH0OcaWcN/x9rEq9r73RmQFgnpMB6a7If15Ktd6MeKY3l3z35ETr+CfuQOqocalkjq0TIcjN2dTkE+BR6YOGhiqGY+hjvXEo/hAPXo2wPSOw2r+GU/JMZkJ/pxL2Q/Vpx8ZWE6oB/56Md25KM40o8SkPnAgKShIBCQi7TaXPiAPuu6DAERZD7GCIjRGF7vsbszQ+n3AIMSNfUK+mHXekX2Y2368akkb9XKQD9mjN/FakynIBzSObRf4XAOARkgID1LCU8NSC/9eP/NSnvsLtkPJl9dYe+H1mxAP3LSD4m5uAT96P0Y5GOqCfE2Chz6OLjzPVr7e6X+Ow5sP7cjIE8GxDr7YUFEWhvPMSjzJl9piceIQekhHxbjdr0yINCPePrxqfjRD5VxyUw/SueYXgyIOwXhMMgr67t8v65USzyWlYC5vAVLmgHpMCDS0bujpiOixYqN5/sTEE32Q2M6ZpuKDDeAzPRjaQLiMXa3OE+3wnzo9JAF4UDIq+s7fL+uQj5eFnosfxnIfYQTkFmTryLox30jgxK18fzxwB9NQLzJx+6Tr1YzKhrD0ktAHg/7KclHKX5LB2vve5gSrIWYgnAo5BX21b9fV6wlHotHAnI2erfyuX4DckREGgbke/Hdfh7RWgX9gHwcmRZJIJ2N52vRj09l0wxIVPAc+pHKhHx2PIByQOcgn/V7QgUakNr43W4C0hs+N2rB8th0Dv1Yg35knHqVmYAQUI+lH94EJHT6lUfbVc/bGJDtKQgHdAwWjy8G5JB6tILoni1Y0slX2ZYKEizPSz88CIl267l3/gNTEZ/16KUgoQTkubWqBNCPUVNhaUawEmoKMjJEAgLCQZ2iqgZEOHo3LAMi2fthbU7Y+7Eu/bCiHhHZjwgqAv34uwGINCw9BOT5oB/aquVNQSTTrQpTr65IQTioUxQEpDmC98ScTCEgK9APsh/5CIhXNuS1jE/AijAX0I85U6566UcYAVmJfmBAUlIQDk0URbkTEJNN6K1MyIkBGcl9WJqTmcbEsjXrypOvIsiHxnBYBM+hHz70I8KQfGoYkaXJR0mU/8A6pKcgFEVBQJom5KBMCYh054cHASH7kZN+SIPnFvTjtfjkP6AfcdQjin5IWq5qrVdMvsKAQEEoioKAaAmIkwHxmn4VFUz3NCaP5sPboETRD6nxiMp/aJYORuQ/2Hg+16i0CMhIBsTERJQg8lGE1KOQ/YCCUBQFAekLpZsZEK9dH9H0Y6fsx2pTr6wzHq/Fhn7QUrWPqZDs9+g1HSkJyKgBKdAPKAhFUZTAgPRsP59JQM5qlWD6veTIfmRszbo13h5pv7I2JiNTr85ohzcFybDxPINRmZX9qBGQM9LRIiBmwfPIyVdl4t4PrIKPfn7PODxRFOVCQFqmpJoBkSwjFBoQ7TQs6Acbzy0ISObMxxUC5VnIh5SA1MyEOwGRTMCakfsotF9BQSiKmn3fjLz+0pn1CNkD4jl69ypLCVejH5YUxJJ8vBY9AZlBP8h+jD8hRhiTFt1wyX4U4RQsqxxIKfHbzjEgUBCK2uygrj7oZ62zzeedbVkhGRCLHMjq5uJe9px6dWt8biYBgX6Q/RghH7UMyBQCIt3/seq2c4xHKAUhkE7tZgh4HCcQkI6sx7QxvN5Tr3aiH6sbFCn5aFEP7ehdzf6PWeQD+jE/+1ELnfcuJDTPfpQL7PzAgEBBOKzz6j2P4ZoE5MxwRBAQzxYszMWa9GN2BgT6wd6PEfKRjoCUAPJREhAQbAEUhEMm5orHcC0CUhu1OysD0iIf3sYEgxJnUDSZD6/ch5Z+XG3vx9W3nlsTkLBN52USAYF+bENBPi94uOeQicHCnEJATjMgVi1YmIt9J1+dmQ0PMqIZu7vq1vMshmK17MenDiOyHQGZnf3AgEBBLn7YpM2Mx5AMiDEB8ZqCtdPej9UMyrOhsKYgWeiHBQV5KWtkP7IE1LMZFemUK9PsRyT9KGXu9CusABTk4ofN3QnIZx5D1TVl9RCQCgWZ1oJFa9W16Uf27EckAWHqVS7yMTJOdyoBid77YW1EsAFQEA6bl6rLHdSNKp0pqpmPDgpibkC86UfE5Kt7gEFp7fywMihfig/9OCMf0vYri/yHJ/3QmJGXQu5j9VYt1z0fxYB+rJ77wIBAQTis86r6xof0SxCQowB6x0Z08wyI1nRAP9agH7eyJ/3wmobF1vP16EdqAvI8ptei9aqHehSyH1AQCIiXqeLAjqlaloCc0RBvAnJmJjy2oXsak93oR5RBuZV5E7C86YcnAenNfniaFILqspG7bgRESj+KQ/tVCSYfmA8oCIfM6YdMHj+MlSkBaRkRawJi1XYF/chPP44C6CP0I4qIjE690hCQlzKPfpD9sKMfbq1WZWLmoyjoB+bjEhSEA+a1Dpo8fvzMmxGQzulXoQQkIvsRQT+szMnKk6+yjN3V0I7evR9WbVfZ6EcW8pH1xlIzHC4EZDb9KJ35j0L4/AomJP2hZ/Pi8cRQLfP9GZx+ZToFK4KAQD9kBiMq+zG68TyCgES3Xr2UfgIC/chPP1ISkBnbzqEfUBAOmBAQHj++N2cGpHcc74oEJKo1y9OYRBoU69asVuB8VQLi0X7VQ0CYfJXz5tITKDclICPkY8bej0LwHArCIRMCwuPH96WDgJyN440wICOmI8JgeJOPKHOxy96PDATE2ni8VIwHpmI9+pGKgFgtH4R+oA0oCASEx/GqLXopDUhvebdgRe/9WKk1K6otyyv7oW2/sjAdXtkPj2oZkSuP5812Q+k1HOaGJGvmw9OwcMSHgnDQhIBQexmQxsQrVwLySD4ybT2PMBf3kiP3EUU/RnMfURRkNHhem4o1suMD+rE2/XAlIEcGozjTjxFTUQieX1IPY3k5rHOIp6hTA9KZ9wgZwwv9mNualYl+9Gw/tyIgmqWDUQRkJv3ItPNjVfoxdQO6tekokA/UpiCfHA77FEVdhIBEZkCk+Y9d6McVsx+ZNp9btF9Z7P1oZUCgH2vRjxDDIfn6yOxHIXgOBVmDglAUlcCASHMgmQnIVbIfVgYlin4ctVBJtp1bT72yar/y3gNC9mMt+vG5YUiWy38UwSQs6Ac6oSAURVG/MyA99OOAhEw1IN4G4yo7P646+UpDPjyMRi0DsqOpyNh+YUk/3EPnBfqBoCAURUFApi8ijGzNum9kUFr0Q7P344h+jGY/PHIfFksHvbIgL4Xsx070I2S0bnHMfhToB4KCUBTlRECOpl+ZZkDefzMFAYlaKrhL9mM18hG9+2M0eG5hOlqG4gotVdkMhSX9MDcls+iHxGAU6AeCglAUZUhATgxJugzITvRjtdasW+NtqfGwMhy1fR8WOz88CQj0I2+rloVBWWbq1SwKwvEdCkJR1DUMSCf5mGJAojaeQz/m5T7OTMds+mGZASFQno9+WJMP8+D5yN4PCwNSytwN6BzdoSAURV2jBcs1A/LYfuVAQCKmXt0L9COKgmTMfkRuQYd+xNCPT4Nfn46ARBmREkRBOLZDQSiKmvZCm/tV2HI1jYDskv3YdefHrfjt+7CkHxY7PzSGBPqRk35InpxD6cezKfA0G2Uy7cB8QEEoioO66zV1C5YkC9JlQJ6phwMBae38wKDEGhTt5KsI8jG68dwyhA79yEM/PhX7m1IIAfEwJDOpBwYECkJxUOegfj0CckQ6Gq1ZaTIgmIv96IcH+bCkH2Q/9qIf1sbCzIj0tFmVMmfqFeYDQUEufcDkccRYmRIQgRGZngGJoB/34h9KjzIo1hvPteTDK4Buue3cexEh9GPe5CvJk3Pv5CsT41HbZl4zJdatV4XsB9qbgnDA5PHDWCXLgJi1YAVkQJh6NYd+3IrN5CtP+jFCPm5OxuPK5CPrxnPJk/OU6p1+Bf1Ai1EQDpoQEB5HCEiVdKhasGr5j04D8q2M0w+WEsbQD820q+iN5zNar2jR8tt4rjUsPU/OUvLhZlhq7VbFmH6USfkPjudQEA6aEBAO6tcmIJ1tWKGb0Ml+rLP3I8vGc232o0ZDoB/rbz3vfYKeRj68A+elMPkKTacgHDQhIBzUL0xAJHtAIluwvpW82Q8Lg9La+WFlUKzpx62ct2KNTL6yMh4rkg/oxxz6ISEg0+lHy4xYtV4VIfmwNDAcy6EgHDQhIBzUmzR+mxowHX2LCI8C58YZELIfueiHtP3KuyzzH9CPvbIfkgzItMyH95JBS/OA+UBKE8JBEwLCQV02YXH166fQKVjCFqxR+rFSa9aO9EObAdFOvXot0A/oh96QpM5+WJkRch/o4hTk6q/cc0hf7NC+U40QkOgpWGQ/1sh+SFqvPCjHaNuVV/5j9jjdmaZihpnwaLmaVpHZDw9TgQFBgyaEV/A5qHNQvzABUU3B6m29ahiQ2fTD05g8mg9vg2JJP2rkw2LyleUULA39iCQivXs/dt75MdOotAhI2E2vFjp//pjX5CtyH2iGBpcTcsjkoH5FY7XV901gNvR7QAYXEa7aXuVtLnoISKbcRxQB0VAPSzNC9iNv9qMnA5Ku2HqOdhUHzWnPPzx+mKy0BCRDC1atFcujNcvTmDyaD2+D4r3zQzNy13r6lcaMWAbO2Xjum/2IICCjT+5m7Va9I3hX3/vBsRt96OlnncMmB3WM1QW+f4OtV3UDUmvDGtwD8q0w+Wpm7uNWdMsHIwmIFf0gUL7Hzg9p/3cKwlGcyQeTr1A2ceCEgHAwv9T38NPg+N1wAhJFP2ZPvloxmD7SfmVhTF473x/JfnialAwB9dWMShQBmU4/pJ+L3vuBAUFegoJAQDiUQ0DcWrAUGZAVzMW95Mh9eBmMM/ohbb/yLin9sDIZ0I91sh+fSuJgq/f+D+gHyioOnBAQDubXKXMDctZuJZyCtSv9iDAo1ns/LCdfWZOP1tvS1isv4kH2I1f2oxY6n0I/Wu1X1pOvSmHjOconKAgEhMKAmBOQwU3o0I+cOz8ybj4foR9Wo3ihH7noR+8N+FIEBPKBVtAiB3eMAUUZG5DnnId4D4hhBqS18wP64WtQno2EhenwJCAzjAf0Y136MZWA9NAPC9NREpEPDAjqERSEoiAgagJSm34lMCCYi5xbz2dPwBohHx6m48obz7NuPZcSkDQHmJoxGTUg1iYCA4K8xeGMojAgqgyIAQHxpB/3zQxKK/thFTzXtl15kI8RAhKdAbm6UclGP84MR4rsR3FovSrQD7SIev9fUBSFASkju0AqBgT6kYN83Io+eK4lIK/FJvNx1oIVQUDIfeQiH+laOM5Mibb9ytpEYEBQlDigURQGRLUHpEZETgxIRPbjvpFBsZ56dat8XNp6ZUlALMzIjCKgnrtVS0pAoB+YDxQgKAhFYUDMW7AaBAT6sT798CYg0pG7jwak9jHox7XoRxoCUhzoB+QDYUIoilrNgDSmX+lasJQEZAX60dp4vpJBuZU8o3drZiQjAYF+rEU/XAlIq82q9eu0W8+hH2hFcVCjKAhI04CcmQwBAYF+zKUft2JDPywpiFUG5LX0j+MlUH4N+pGKgEA/EPq9oCAUhQHxWkT4bCC8yAf0Q2dMeg2IJQEZ2fPRSz28qUjv3g/oR5xR6Rm7G5r9gH4g1BaHNYrCgIgyIGd5kCcC8q3YhsuvsvcjKvshMR8tCuLVkiXNf0S0VmEq8tOPVATEwnRYGwjMB8ogKAhFYUCGCMij4ZhIQO7OxiTSoHhvPJfmPWpGRUs+Wm9rMh9eFITsxxpLCkMISA/98Gi/0ryNAUHZxIGNonT3n2zvu2VAWuN3JxCQVcxFpo3nMwPnWupxq5iNUeNB9mMv+pGSgFiYD+gH2k1QEAojsM/75gaklf0YJCArBdOj2rI8DMqtjE+7sl5A2Np6rgmdR0y+urpRybbxXDJ21z374U0+oB9oV3GQ5dC++qF7xp+ZtdQGZHQEryEBiTAX97L/5KsVCMgo/bAyJLRU7UU/UhIQ6AdCx4KC8Or6LkYk8mdC80KY1+dNDEhtDO/Z+yctWF4EJMKgrE4/ziiIloBYkY/R7IdF29VKLVrQDx39MDMktUlXFqSjZjwK9ANtLA7qeV5dv/Kr91YvMHke8LOXCwHpGcFrREAizMW97Ek/bqVOQLTkw5qOWNAPAuXQj2kEpOfGMGpCrE0E5gNl1RUO3pKD+c6H9iyv1lt+ftZjOPK25683MSCSMbzPn2sQkF3oh5VB8aYfFpOvvAiIRf7j7GswKvPoR4Rh+SQ0JubZD8mNwaLtqkygHpgPFKne/3c7Hs57zAgH9jW+f14Hf4vHT/t79Pz6kAxIzYQU3wyIhbnwNhYzJ1/dSv6pVxL6MbO1akdTkX2MrpZ+uBOQ1g23QD8QEkt62Fr9QF46Wjl3rtmv1lv+eu+Dv+W/R/N79XzedQrW2f6PIAJy38igtOiHlemYRT/IfpD9yEA/QsiHhenINvmKIzGKluSgc5Xa6aAeeWiP/PUWh/eI/IfW4IYSEOkOECUB2c1czNj5kYF+vJY4+jFqRK48SjdbK5Ul+XAlINKbL5OvEJJpJFOV+WAeETpe6aCuOWxne7U/moBYDTjR/n6tz00hII0pWN4bzzEoNhkQy+xHK//Raz4sycdL59essvPDu1UrI/2wMChmN1fr1ivoB7q6rA5vsw/m3i98WLy6PuPXjx64Z/16C3NgaRwszYj11cSA9LZcOWRAPM1FlMGYtfND03K1WvbDogXrqoHyTIZiGfrhbToszQMGBK2s3v9f2V9Bjwoczz6gWx7UPV6t93q1f8Y1q/GYRkA6p2CtQj92C6bvkP2wzHy8lPz0g1athPRDMjLT6gbDzg+ECdHTyVkHdMvnIM8DY+Svz3x4XuFwv8LfM1MGhOxH7MZzKQXJTj+szMgL9GPrqVdT6Ic1God8IHRsQKRmI8sr6Fy5Xs0khe0BOcqBOBEQDIpf+DyKgGjbryzbrqAf0A8T+mF5QIF+IPR7E8KVK9d1ri4EpEU9BglIhLnoMRkrT77y2HieJfvh2XoF/cgdJpcajCnbz70WD0I/EAYkf887V65cgwjI2e4PJwJyh364Bc8jN55rsh9HZkRjSl6gH0vSj1ACogmorjr1CgOCspoQDnZcuV7IgNQIyFn43IGAXNVczKYfnrtBpNkPq7G7PRmQHcnHVbIfIeTD2nhAPxBqi4MdV64QkCr9MCYgEeQjyqC0Np6P0o+z4HlG8qGlH54ZkJX2fmTZ+RG1pNDDqKjpx25TrzAgKLM43HHlSgZkNQLC1vP1935EEBDox/r0YwoBgX4ghAnhypWrMQE5MhhBGZB72Sf74U0/pOSjRUBmTb6ybr3qJSAzyceqRiWjYVmWfmSgIBxvEQaEK9c1rtnLdBO60xQsT2MB/chBP3rJh8fW85cGAcFUQD9S0I/ZNxWOtmgVcQDlutNB3aJKZZDJjPdNDMgjAWltPj+iJCX/zo9d6IfVxCsP8jF763mLgEA/cmY/Lkc/IB8ItcWhmkP6Dod0zfulY4Li7PfdCchR+FxAQKAf8VOvrAnIa7HJfNS2nluM261lQKAfe9CPZSdfQT8QWseEcFDn/dl04RItWDUC0gqjKwgI9KOPftyKrvXKavqVNfmIqJcC/ci8oHCKYZlNP6LJB+YD7WBAOKjr3l/h1fQrHdxHfuZa94vIz7sTkJ4w+mQCEkU/Vtv5EUFArMmHZfbjBfoB/chCPzLcIDnKopVNCK+IczCXHNpnH86tDvdZv4fFsgXriID0juOtGJB7GZ98tRr9sDQoWvrxZQIBmTFy14OC7LrxHPoxSD4sTccM8oH5QLsYEA7utofzHQ/suxKQkfvHyP1m5L5kTkBa7VgGBAT6Eb/xfFbblUcbFi1V+QzFVvRjpx5yjrBoJwPCK+oc0EfakyIP6VaH/KjvoeTPef5a8z0gBgTkXubv/JhtTKxyH7diOwFLaz40ez/O2rE8aEiGjeerGZXIVq1L0A/tzQrzgdBxG5b3Af5K7UmrH9StD9mzf/0sAjLyuJtvQu8ZxTs4hnc1+pFl8tXKez92aqnKQD9WH6N7qclX0A+EbE1IpkM7B/V5v750hOqL4xj0iAP+ZQiIdPSucBFhpslXluYkKv/Ru/nckoK8Ct6WBM8tx+9CP2z3fkA/Nsl9YD7QzgYk6tXgHV9Rtz4szzjkjzwe2heIrH49BKSTgBgvIryXGAKyIvm4LUQ+rOiHx9QrxulCP5bd+WFpRDiuoh014xXhnV5R93weijrgjz4eEJCkBKRnAaHBHpAo+rG6QZlNPnq3nmfaeA79gH6knHw1q9ecoyraVVkoyKqvqF+dgJABSUZAPlqwejIfgwRkJXMRTUB2px9WZoTsB/Rjy70fHkaEYyra2XxAQK6dASkDba+1XzvyeENADAlILfPRoiAXpB8R5GPW5CvL7McMCgL9gH4ss/cD+oHQuAmZQT7IgIwt0rP89RCQDQlIz8SrwT0gK5mLq2Y/XotP9sPCdMw2FYzS3Zx8RFMP6AdCNibE45XgGa+IQ0B8D+pkQHzKnICcvT2QAblvRD88pl5ZEBDvbefavR9HZmTXyVdZAuqXX1IopR+R1MPzpsLRFF3NhESTDwjI3EN+6cjaeWRuKCcD8pwB6Q2gdxAQ6Ecf3ciQ/XgtPtmPKALC1CtyH+H0Y+YBBvOBMCCxuY/VX1GfRWUpDEj3FKzeBYQNAxJBP1o7P1YyKNYExGr7uUX2wzsDwnhegupT937MJh8YEHRlAzKDghSj9kuMAnV5AnI27aonkA79MM1/zJp89WpEPywzIBgL6MeWG8+hHwjZmhCKojYkILXriQGBfvQbj9ugAbHOfbQIyOp7PzxNCkZlYfqxAwHhKIowIRRFbUFAevZ/VAgI9GOMiGjpx4gReS31sLlF69WIISFQDv3Ykn5gPhDCgFAUBqRCQAZD6C36YWVOVpx8dVOSjygCYrF00HPiVQb6kYV8QD8m7/yYSUI4fiKECaGorQiIJIxuaCyuRj+kwfOI7IdF+xV7P6Af0A/oB0KYEIrCgLQJSM/+j5M9IC3qAf1o048Z5EO776MVOM9AP3ZfUHj5jeejBGR1+oEBQQgDQlHbEBDJ+F0nAnK17IcV/fAKos/Yfs44XegH9APzgRAmhKKuTEAELVgRG8+9jUkk/eglH9YEpKftakbr1SotWtCPi9OP2eQDA4IQBoSitiUgtYlYTgQE+hGX/ajt/rAYvbvS1CvoB/QD+oEQBoSiqIwEpLIHpEVAIuiHlUHJRj+ipl+Nko9oEoJRkdOPCMNyqewH5AMhTAhFrViW/99CMiABBOSKez9mEZDW7o/WtWY6vDef72gqspkJ6Edn+xX0AyFMCMVh/apyJSDCEPqs7EcU/bAYszvaeuWR/RhtvzoyHBEkBPpB9iMF/ZhFQbjdIdQWB2cO6ihGq2dAosjHavTDkoC8Fpu2q9m7P3Y1FNAP6Ac3eYQMxUEdIX+5EBAJEakQkNVas7JuPbc0JpmC548GY5flhN6tWmw9/9u8recz8x/c6hDqF/+3EPJXGAFx2gOShYBcYeqVZfg8usUKApLTUDD5ildOEUIIXVDmBERiRpwJiNXejy+BrVm3xtuz9368KtuvLKiHhIBk2HhOq1aSVi0p/bBuvZpBPjAfCCGEMmpVAhJJPlpm46r0QxM+106/eoF+kPvITkCgHwghhNCxMu4B8SYfEoPypUFBPILpFhTEk35oQueW9KNFQKAf0I/p9GOEfFgaGG5xCCGEMsrMgEjH7yoIyCz68dWZftwuSj+sjAf0Y+4oXfIfTL1CCCGEuuSWAekhIo4ExMqg1AiI51jeDFvPLehHz8Qri+WD0I+16EfqyVcewfNSmHyFEEIIfWhKCF1BQKI3nkM/9GN3LSnIS+nPgEA/IB9qowL9QAghhOwVvoiwQkCy0Y8zAmK980NLPqJzH5rWq4gMCPQjJ/1YYuO5Nf2YQT4wIAghhLLLhIBI2q4UBGTGzo/a0sEV6IcHIdEEzyMIyK7kA/rB5CvMB0IIoS3kngEJJCAeBuWMbERlP6Koh5SAjLZcWYfSJeN4MSpMvnKjHxmoBwYEIYTQKnIdw2uYAYnOfnwJoB83RwLilQ0ZyXy03tdsOT9qvcJUQD+mbDwfMRWF4DlCCKELarUQ+pk58TIoR1TDi37U6EYUAfGkH97jeKEffzcI0A8h/bA2HZAPhBBC6FwrhdA96ceXCQREQz+yT77yGrdby4BAP6Af0+jHbPKBAUEIIbSSpmVAjAiIJ/2QEhCN8Zi998OafESRkJcC/ci8oPAy9KM0RvGWgJA6tzOEEEKryJSASEmIUQYkgoB47f/YbeeHdfi8ZSgwFdCPpeiHlpxgPhBCCO2g7FOwvk6kH2eGQ0tAbh0kJDr/Udv3MTpyNyMF2XXnB/RjkHxYmo9Z9IPbGEIIodVkugdkQgbEm4BYh8yhH/lNBRvPoR8uW8+9jAi3MYQQQqspjIAMTMH6WqEgEfSjl4BoycetzKMfHlOvIskH9CPv1KvU9MOr9arHmFgaEW5hCCGEVtRqiwijsh8QEJuN59APsh9bbz2HfiCEEEJymRmQURNSZKHzHvphaU4sCYiWgkQSkGwbz6EfNns/oB9O9KOQ/0AIIYS6ZZoB6aUeSgISRT4sDId238csAmKx8Xy1QDn040L0I3LnB61XCCGE0G+VsQWrRT9aV2uDckZALMyIZOdH1uxHrfXKg4RAP6Af0+lHqx0L8oEQQgida6UMyAz6YUFAtPQjmoCMTr7Smg3oB5OvtqQf1maE2xZCCKHVFd6CJZiC1UtGIumHJfkYbb/SGhOPyVeRGRDoB5OvhgiI19jdaArCbQshhNDqWiUDEr3zw3rs7s57PyzarWabCgwFk69Uiwcji9sWQgih1bVKC1b0zg9LApJl50dE9mP3yVdZAupkPyZOvmqZEU8Kwi0LIYTQDgojIAoDMnPbuVdLlpZ+eBCSWVvPmXoF+dh28hXmAyGEEPq9ViAgkdkPr0lX2tG7FobDOvvhOemKgDqtWmknX82agsXtCiGE0C7KngGJzn3UMiAR1ONq9ANjAf2AfmBAEEIIXUyZCUhr47kX/bAyHTcjI5KNfngsILTIfniaFILq0I+pU7C4VSGEENpJmTMgM7eea4zIrehC6NH0Y5R8rLz3g+zH5vTDyoRE7vfAfCCEELqKXAlIy5BUDEgU/bA0Hj3GJNvUK83Y3QgKkoF+YFQSGBYp+YiiH5APhBBCSK4pLVgdiwhn7/ywyHhY04/Zez8sTQbZD+jH0tkP6AdCCCE0rmmb0CsEZDb9mDV2t0VALLeea01HxASsDHs/MCoX3njeQza8yAcGBCGE0M4KJSBHH0tEP6wISHb68Vrm0g/G6UI/mHyF+UAIIXRhmROQnuB5JYTeoh/WU696w+haI5Il+6ENn0dNwIJ8sPF8yuSr3slW3uQDA4IQQmhnhRCQRgvWV4caoR8a41EbuZtl8pUl8WDnB/RjO/IB/UAIIYRilGERYW/mw4qCtOiHhfm4FbvshxcBGdn7wdbznPQjwrBchn7M3vvBbQkhhNDuMjMgktarEwMym37MMCPZJ1/NMBfQD+hHSvoRRUi4LSGEENpd7gSkYwzvjI3nUmMibb3ade9HBoMC/SD7EZ79YO8HQgghZKdMLViz6YfVqF2rqVezt54z+SqeekA/EtKPEjghi1sSQgihK8ilBUuyEb3Mn3w1YkxuxS4DYkVALOiHZej82Xgw+Qr64Uo+ougHOz8QQgghnVymYPW+bUhAZpKPEfORMfvRM2JXS0XYeJ7DUEA/hJOvoB8IIYSQnVaYgpXRoNQISEb6oaUhngSEjee5W7WWoB9e+Q8NJcF8IIQQQsdybcEKmoIF/fCZemVFO6Af5D7YeI4BQQghhP5HmadgQT/s6Id25K4XAYF+EFSfTj9Kx84PL/KB+UAIIXRFmWZAJMbDiIBAP+zph9Wo3ZfSlwFh8hUERG1UrOlHFCHhFoQQQuiKmkJAOjMg2ejHrbRH7o4Sjwz0w3u3B/SDyVdm9KOUeXs/MCAIIYSQTlMyIEYEJBP9yEhAZo3ffSn9GRCyH9CP0MyH1Eh4khBuPwghhK4qcwIi2QlyQkAyLyUcIR9eBMQ6++G15fwF+sHkK2v6UZwzIEfGo5D9QAghhEwU2oJlmAGJph+3hciHFf2w2vVx9rkdyQe5j43oB9kPhBBCyEfhm9ADCEhr47nWoDxTkOjJV5Y7P45arawNyktC+rGaUWHylcPY3SKcfoUBQQghhGzk3oLlQEAi6cetQUCgH+09H0fmA1MB/ZhGP8qEsDnmAyGEEPq7QghI5x6QFeiH5a4PjUHxJB+eU7Bmko9MAXXox2T60Ws4PEgItx2EEEJXl1sGpDb5SrEJfcbkq1XyH73kw2vxYIuAQD+gH8vQD1qvEEIIIT+FZ0CMFxF60o9b0Wc/LKlHi3xkJyDQj5z0I3zqVQb6EWE2MB8IIYTQsVwyIJLdIMnpx5kx0ZIPqRF5LetMvXo5ab1i4zn0Y4nJV17mhNsNQggh9P/lQkB6Wq+MMyCe9ONWfDIg1hTEgnxkoCC0acUtKAw3LDN2fkj2f0A/EEIIIX+ZGJCR8LkxAdl92/lrUvqBqYB+bLf3w8OMcKtBCCGE/i5TAjIyjrfk2nh+K+2t5zPpx5kZ6TUfM8gHG8/l2Q82njuYD+gHQgghlEMuBMRpDwgEJP/OD+gH9CMVBZEaDOgHQggh5C/XMbw14yEgIF9K7N4PDQXxICCvne/3mo8I8pHBqEA/oB//kIGCcJtBCCGEfquQELojAcm07yPr3g9rswH9gH4sQT4iR+xiPhBCCKF+hY3hHcyAfClzxvKOTL6K2nY+OvkqkoKQ/YB+pKIfPeTD2qxwe0EIIYSOtQoByU4/ambDg4yMZD8sjAb0I6ehgH4kox/cWhBCCKFzTSMgHQZkBv2wmHzlve9DakBaORCyH9daUph66/ku2Q9uLQghhNC5XMfw9rw9mYDcSs6pVx5bz7VEZLapwFAw+cptDwjtVwghhFCcQgmIoAXrS4WCtCZfzSIfR2+PmBTP7EdEXd2okP1INvmKvR8IIYRQLoVkQM7arwYJyK47P16L3+Qri9A5uY88pgLyIVg6CPlACCGEcimkBav2sSIbwxux9Xzmzg+r/MfVyAf0I5lhiaQfNUNRyH4ghBBC6bQKAYmiH61WqpkExGLy1Q1jwc6PnciHdzsVBgQhhBCyV9YMiPfkqxr9yExALPZ+eNGPWQaFyVeL0w8LAjL6tqWB4XaCEEII9WkKARmcgpUp+xFNQK6494ON5xegH1FTriAfCCGEUB65ZkAMCUgE/Rhtu7IgH68dBEQaPD8yIzO3nl8h+5Ep93EZ+jG66Rz6gRBCCM2RawtWawlhpwHJSD4idoBoW6+iCAimAvqxFP2wJifcRhBCCCGZ3FqweidjBdKPW9Hv/bAmIK8dLVgWW869MiAE1KEfKvphaUR6yQftVwghhNBcZScgX0rO3R+eBGS0/coyA0L2A/qxHf3wMCLcQhBCCCG5phGQDgNivffDI/+hNSPafR+z937MJB9Zpl5dfuN5mZj9mEk+MCAIIYTQmMxD6GcE5KyS0A8p+YjIgFhkP26Flirox6b0o9dglOIzNYvbB0IIITQm8xass6lXZ58PoB9W2Y+eKVgRez56J1+x9TwX/YgwLJejH7PIBwYEIYQQGpcLAemlHx0GJBsBiciAaAlIRP4D+gH9WIp+YD4QQgihPMpIQLJmPyIIiDZwHkFCoB9kP9LQj8LOD4QQQmg5uREQRQYkK/WIICBWrVe3Av3woh7QD7aeI4QQQkghNwJyNvmqQUBa9MOKfFhmQCyzH9qpV94EZPZ4XuhHEvoxY+dHhv0f3DIQQgghvVwJSA8NcaYbHvRDu3DQgn7ssvMD+gH9gH4ghBBCF5PLHpDaGN4DAtKb+bCkIDPoh1X+I5J4SHd+QD+gH6dvR+79gH4ghBBCeeWyCT0BAclEP3oIiNXSQfZ+rD316nPZjHxYtV5lICHcLhBCCCEbmbdg9U7FGiAgowbDa/+HVw5EEjyPmH4F/Yhr1fqUvVVrNv2YRUG4VSCEEEJ2cmnBSkxAZtCPFgGxoh9kP/agH58L9KMZPId+IIQQQuvKnYAYZkCs9n7MpB/Wez+8syDQj3j68an40Y/PZQP6QfYDIYQQWlvuGZDW50vc9KtZ9KNGQLR7Pzz3fUA/5tGPpQmIlQnJkP/gFoEQQgjZy42A9LZiFfvdH5Ybz7UE5NWIgMwo6EfsmF4JAVli74dH8DySfGBAEEIIIR+5ZkB68iGL0A/rtiuL1qsV6UcGQ5F154eEgGy/82Nm3gPzgRBCCPkqhIDUvqZCQCLJR4uAWC4etNp6vjv9WM2oaA1LLwFJP/nK2nT0UA8P48LtASGEEPKRawakx5xsTj9ei0/w3HvzObmP+QQE+gH9QAghhLZUeAakYkC8CIgm9+FlUDQTryLoB0Ylfut5DwG5FP2QkA8MCEIIIbSO3AjIUf7DgYDckhIQLfmomQ7oxx4EpGU4Lkk/MhS3BYQQQshXUwhIIwNiuWwwCwHRTL6KzIRAP35vBDIQkPCpV7Pox+jbVgaGWwJCCCHkL3MDMmEPyG0B8jF76zn0Q24mZhMQ6Af0AyGEENpSLmN4JTkQBQG5Ff/pV5bkwyp4PtOgXMWoSAhIhCEh+8HGc4QQQmgbhRGQjkWE1vtAZk69yjZ2F1Mhb6XyIiCfBjIgl6Afs0kItwOEEEIoRm6LCHspSLGbdCUxIB7k47XTiESO3F1lOWGm7EfvFKyolqz0G889Wq+iKQi3AoQQQihOoSF0xz0gWTaee+Y+bguZihX3fnxORkCgH9APhBBCaEu5tWDVaMjJFKxV6ceroA2rZT6iyQf0o78V65cJxiQ1/fAInpP/QAghhPZXpkWEFvQja/5DQz9ui5mK1bMfXgSkZR6Wox+eRgT6gRBCCO0rtwxIz/sDBkRLP6K2nmuC55HkA/pxTjpaH/ckIJejH5APhBBC6Dpyn4IVRECkrVeZtp6/GpsR6IfNtnOvBYPbEBB2fiCEEEJoRO57QAzH8N6KbufHzTn7MRpAt2q7gn7Y049LEJBZ9EPzNgYEIYQQWlc7EJCR1ivvDIh26SDLBP2pR8tQzCIgl9j/AQFBCCGErquwDMiZUQkgHx4ExHLnR42A7Lj1PDv9iFpI2NNylTL7sXruA/OBEEIIzRUEZA4BuTmZjdnGYhf6YWE8pC1U6QmI9wjeWtF+hRBCCO0j9zG8tffff5NiM3p3xXqdWC8T65ck9TlhLTN6V2NiaL9CCCGEri0zAzJCQpR/OEVRFEVRFEVR16rjFqye7AfVNme970vennkd+Vjv29KPURRFURRFURsZkLNa3Zj0mgKra8tEjJoML6PS+zFr86H9e3gYrCPj03qfoiiKoiiKEhqQUYOR2Yw8m4weI+JJOFpGIZKEeJkRzaFe8rGokv6dJcSHoiiKoijq0gZkdYPROvRb/Z6j5qPXdGS8tg7iI1Sk9bHa+x5UY4ZZwJRQFEVRFHV5A1IzG5KvzWhSpMZCQ1J6jdGoKfFuvbL4PXsO9bWPWRiCs1/X+/tJ6Y2VGcGYUBRFURS1vQE5MxMjJsPLmNQO/L2mQWNaNLkOCQ0Z+Zy1eRilG5LfT0pARgzTiCFpHf5rn6cVi6IoiqIoqtOASAxERvLRYzYkxkFCUDTGY8YULO9fKzUGUrIgOcC3jE2vmbD6+4wUhoWiKIqiqO0NSHZTMWo2pGSlZTK0E6qsp2B5GYvWx2pvt0zHKOEYMTqj5sabXmAwKIqiKIq6rAGRTsTKEGA/MwQjpKTX8PR83ahZWGG3h+Vo3dFDvpZOWOQ5PALtXl9LURRFURSV0oBo8x3ZaMqZCZBMtZIaCe0Urd7fb5ZJ0X5eElIfpSA9JqfnEO8ZOsc8UBRFURSFAUk+2aplJqzzIpI/U2IgLILmmq+RGI3er5XkOyQGxuIQLzEdVkH0mYWxoSiKoihqGQOyEtmwmEilHcfbYzRaJqH37+txtfo1tcO7RfuVBZ2xOJxrJ1/1Gh/J11EURVEURS1tQHpNR3SmI+rPqH3szFiMtFn1/Dk1YxJtRqw+VjMVPYf3EWMgMTy9fzYmgKIoiqIoysmAZNj7YTHVqvXrZhgPjdHQGBPp1/Qc1rW/tnX4Hx3na0lAIBIURVEURVHJDAiVews8RVEURVEURaUxIH/6059+pSiKovauf/7nf/7fHy84fdwE3t//y1/+8l//9m//9l///u///j/1r//6r//1/vHnr5fWx+///vs9/hnvbz///u/XHz9+/B++VxRFUfvXHxBCCO2vf/mXf/lff/7zn39nQN7Nwbsp+M///M/yXv/xH/9RPkzI89dL6qM998PgvP++j3/G+8cef/8PA/K3v/3tH/huIYQQQgghtLjeCUgmA/L8+2NAEEIIIYQQ2kjRBOS5xQsDghBCCCGE0IUEAUEIIYQQQgiFaQYBef/1GBCEEEIIIYQuKAgIQgghhBBCKEwQEIQQQgghhFCYICAIIYQQQgihMDEFCyGEEEIIIRQmCAhCCCGEEEIoTGRAEEIIIYQQQmGCgCCEEEIIIYTCBAFBCCGEEEIIhQkCghBCCCGEEAoTU7AQQgghhBBCYYKAIIQQQgghhMJEBgQhhBBCCCEUJggIQgghhBBCKEwQEIQQQgghhFCYICAIIYQQQgihMDEFCyGEEEIIIRQmCAhCCCGEEEIoTGRAEEIIIYQQQmGCgCCEEEIIIYTCBAFBCCGEEEIIhQkCghBCCCGEEArTKlOwSimf+G4hhBBCCDnr/dXp94Pae70fwlatj3+Dpt4Ppp71fhiOrPfD/Ox6P/C//13eDUFmAvL+ftRjEv1z4P1zbfF/b+Xnnlb998/YX58/9m7KufsghBC6pP70pz/9+n7zfz98PR/I3m+a71dpfRw0H6899fF3kNTH3/3oOmI+zq4jRsPKcHwcWB+vlubg7GpZ0QZkJAPy/r7k31R7/CyNyqNh0ZiX55/LUaPxfB2t2v9fSfU+vxw9L0mf2z6eE3/+jP316dpF5T7+3rT8IYQQuqTeb37P5uPhRqs2Hb3m4+MQ8XgdNR2P5qPXiFgYj7MD3tF1xHA8Gw+pETkzGDXTYWVE3g/9qxCQXtPRY0i05uToe3z0c9FrPGpGZMSQ1P7v9JoPjRl5fq54fA4ZMSIjhuTo+fLhBZzDn9/Hv/M7feZOhBBC6FL6CAa/3+jfb75npuPs472m48yI9BqOZ+NhQTy8TYcF5RilHT0mw5JyfBzqa9cdCUjtsWyZEIkZaf18jJKRUSNy9P9klIycGY6zt1tGpNd41MxHzYi0jMbjz2vt7ce/P61YCCGELqF38nHUejVKP47MRw/9kJCPlvnoNSOPh6Oa+aiZkcdD2pn5sKQdFu1UXoajZjoe6/3PX4WAnP2bNGVpSHrNiZSOjBKRM/MhbdE6ope9JmTEjFi1ZfUaklor1vvzMXcmhBBCW+us9arXeLReSfRot7LKeWiMR4t+RNOOltHQmI4zQ9FjNo4q2oCMTMF6NCA9/35PQyJtzzozINI2Lau2LAkN6WnHkpqQVjtWi+COGI6WCXn+WaYVCyGE0KX03HolpRxnb9fox/NhwDJsrsl6SE1HBuPhRTlaBqPXbGQwIKME5OjvLjVkM8mIti3LqjVrlIacURAvI2KVDenNgNCKhRBC6JL62MfwcRMfab0aabc6oh41I+I93WqEdpwZjx4jktF0SAyHxnzMIiAjGZCef0urTUtjRKwD7NZGJKoly8qI9BgQy0B6LwH5eJtWLIQQQtvrfcmapvWqFtocMSC9LVfeeY/RkLlFzqPHjMw0Hla1MgHRGBILM/L8c+A9OeuM9o20ZY20ZFkaD+l0rBFD0hreUcuCPFOQ938bo3kRQghtJW3rVc101IyIdNqVJQHx2OmhMR4jxEM7KrfnkOxpPj5+3+yb0N+/dsR4SOiI1Z6RlhmxmJSlMSLPxuPshQHvTMiz+TgzIhYUpId+HP08P5sQ8iAIIYS20UfrlYZ+SAnI0Y2/t/XqyIhY0o+WGbHY4zFKPXoPn73GozdY7lnvf8bH9+3xZ8KTgNRasN4/9vyz9v5nav59HlTkrCXLamKW1ohIxvVqR/VaTMfSEhAPU0IrFkIIoS31OHL3jH5od31oW68y0Y+a6YiiHy3yoZ1mFV0fBuT58HhkDj4es2fDIv2Z+/j9Px6/I5Pz+LOlMSC13IxHS5YFCZG0Y2mmZFkbD8nW9KOxvD3TsbwNB61YCCGEttb7Teyx9eo5eD5SElMiMR89I3d7yYc2eK4ZtXtmPkbzHqPkQ3LNYkA+8iIfj3nvK9xHP0s9BuTx6y0MSG9GpMeM1FrurHaHaILpFuF0i0yIZFlhNAGRBtNpxUIIIbSFPszHWetVqwXLYufHqBGJJiC1A1YPAWm1Xo1mPqwIyEwKEm1APlqqZhgQ63G9LfLhSUG0BMTDdGhbsFo5EKu9ID0b0o8GJzCaFyGE0NI6ar0a2XLeoh+W0696MyC9psOCfkQSEO1iwQyBc60B+choRBAQ6xasEQLSY0isxvNqlhWO5EAszchIK1bkNCyJMemlIO95EFqxEEIILaPnbefvdbQsa7TVqnfxoGT3h7b9yiID4hE+lwTPrcbuZmi7eq6MBCQiA+I5FauHgmgnYtWo4MhELEsC0tuGpZmGZU1BWoMVnp8jacVCCCG0jI5yH2dtV9ELCKUZEO2287NpPF5mpGZELFqwWmakd/pVxgzIx9955QxIj/GwoB9WCwq1u0E0U7C8CYikBasniO5NQB6XaNKKhRBCaCm9t169o/vHm6/WdJyZkF7joQmij1KQaAISFURfYezulTMgVlOwWm1XksWEHiN4o6ZgjZoO6wB6RA6k1orFaF6EEEJpddR6dfaq2yj9kGZBpEakpwXLewv6qCHRBtGtNqD3mJHIlqxoAtI7hjcihK6hHxbb0a3ox2gA3YN+9JiRs/zHkRmpLVe1ph/P5uPMjNCKhRBCaBkdTb3Stl4d3YCl+0Ck9EPbiqUZxWtBQUYWENZ6+6Xbz4+MyMxWrOwExGoR4Vn7lYXh0AbOLTeha4LnkfTDgoD0mg9J7qN3wSatWAghhNLredv5R+tVDfNLRvJGGhJrM6IlIFZ7QbSZEOlUrB4TEr0JPcqARBMQSfYjYgnhKPk4W75pFTy32v1hZTy0U67OqHKPwWgVrVgIIYRSq5Ty6fnGPnpwi5hQZW0URmpkEVvNZFiWdv+Hdl+Idb3/Wx43mx8ZhMdD9+Mm9LMWmtr10VQcPY7Pv//H14+YDs1kq1EzYl2a5YSWywq9pmlFGJ6R6jFJz39HWrEQQgil0vurYxavuh21Cli9ojerJAFQiqLW/L/t+ftneQ7BgCCEEEolDwNCURRF5an353nudgghhNIIA0JRFIUBQQghhMKEAaEoisKAIIQQQmF6MCB/pSiKorYrMiAIGej/AuQZSxDxdci4AAAAEnRFWHRFWElGOk9yaWVudGF0aW9uADGEWOzvAAAAAElFTkSuQmCC;" vertex="1" parent="1">
          <mxGeometry x="140" y="158" width="287.89" height="190" as="geometry" />
        </mxCell>
        <mxCell id="mYIh2JkVeHM76ZporqHf-11" value="" style="shape=image;verticalLabelPosition=bottom;labelBackgroundColor=#ffffff;verticalAlign=top;aspect=fixed;imageAspect=0;image=data:image/jpeg,/9j/4AAQSkZJRgABAQEASABIAAD/2wBDAAYEBQYFBAYGBQYHBwYIChAKCgkJChQODwwQFxQYGBcUFhYaHSUfGhsjHBYWICwgIyYnKSopGR8tMC0oMCUoKSj/2wBDAQcHBwoIChMKChMoGhYaKCgoKCgoKCgoKCgoKCgoKCgoKCgoKCgoKCgoKCgoKCgoKCgoKCgoKCgoKCgoKCgoKCj/wgARCAHqAjoDASIAAhEBAxEB/8QAGwABAQACAwEAAAAAAAAAAAAAAAUEBgECAwf/xAAUAQEAAAAAAAAAAAAAAAAAAAAA/9oADAMBAAIQAxAAAAH6oAAAAAAAAAAAAAAAAAAAAAAAAAAAAAAAAAAAAAAAAAAAAAAAAAAAAAAAAAAAAAAAAAAAAAAAAAAAADCxe1UlKolKvmTnXyPd4D3ePodlD1JSqJSqJSqJSqJOJRzyDz5bGQObwh5HakS1QS1QS1QS1QS1SUcsbqZbE5Mp4Zp4qgl8VRFtTaB2AAAAAAAAABKqyqpg+PSuSuagl80xM5pCapCcoieoDA5zhhc5XQ8e3bqdsDL6mP1yRiskeeT5D0efB6vPg9XkPV5D2eI9niPd4cGRzjDK5xOTM9JnQ9KE+gdgAAAAAAAAASqsrNMSnMpgAAAAAAAAAAAAAAAAAAAAACJbimRQmUzsAAAAAAAAACX5euOZNOZTAAAAAAAAAAAAAAAAAAAAAAEqrKMLYNb2Q7AAAAAAAAAAl+Hv5nrTmUwAAAAAAAAAAAAAAAAAAAAABLqSidskK6dgAAAAAAAAASqE+kT6c2kAAAAAAAAAAAAAAAAAAAAAAJVWWdqE+gdgAAAAAAAAASqU2kYFKbSAAAAAAAAAAAAAAAAAAAAAAEupLO1CfQOwAAAAAAAAAJVKbSMGjOogAAAAAAAAAAAAAAAAAAAAACXUlnahPoHYAAAAAAAAAEqlNpmBRnUQAAAAAAAAAAAAAAAAAAAAABLqSztQn0DsAAAAAAAAACVTmUzBoTqIAAAAAAAAAAAAAAAAAAAAAAl1JZ2oT6B2AAAAAAAAABKqS6hgUJ9AAAAAAAAAAAAAAAAAAAAAAAS6ks7UJ9A7AAAAAAAAAAlVJdQwKE+gAAAAAAAAAAAAAAAAAAAAAAJdSWdqE+gdgAAAAAAAAASqkuqT6E6iAAAAAAAAAAAAAAAAAAAAAAJdSWdqE+gdgAAAAAAAAASqsqqTqM6iAAAAAAAAAAAAAAAAAAAAAAJdSWdqE+gdgAAAAAAAAASqsqqTaUewAAAAAAAAAAAAAAAAAAAAAAI1eIZdCfQOwAAAAAAAAAJVWRXIntVEpVErmoJaoJaoJaoJfNMTFMTFMTFMTFMTVITVITVITVITVITeaInKImqQmqQmqQmcVBL8bQ1m5lCbQmUzsAAAAAAAAADFm2Zo4QS30wOxl8Y3J78eXJ346jkHHHYdHcefHqPDj3HhxkDG4yRi8ZYw+M3gwuM4YPGfwYHFAT+KImqQm80RP4oibxSEvirwTO+XdIO4aTs5ngAAAAAAAAHBI+a7lqA677wfNfbO3Y0Xz+ga+aXZ2mgaTP8AoGqk3J3vzNEnbJtRpHO8wDUczbqRpHhuuumr3N26mkxtn2c0f13iGap03WmaPxu2smq2d5GlS9g2g+e526xjXo/0CqaM3bWDXMvfupp3hR2M+cW9y5NMlfSJRUxpuSbwAAAAAAAABJra6aLuOl7wernueUW90ItfTt0PDV9ygFziXWNR2PL1I2udUGu34OaZurbTwe3GrbSQ8qvqJtPTj2NQ27Bwi3rWy9zAydZ2Yi5FWMWuuBSNS2rvrBssa4JVKR6mdrOzcHbnW9jNft5g85tHzNbq61vpc7RbQAAAAAAABN0jcPnxtuZgehmcavmlvjG6mXqeJsx758yGbTqVLNKPaf5ku5rexGd5eHmQNtw+xmanc7HrlYHY99Yt9jN7YXBB2bF4KPhizjpsc73MzWbHBmd9TvCbn4Re4j5RC2fEgm3pPYqcQcQ2npP6mtfStHsnhumkbuAAAAAAAMHOkE/5j91xT5Dx9d4Pjnt9cHybw+vj47kfWuD5Lz9ZHyTv9Y4PlHh9eHyfp9bHyXn6zgHzXn6ZyfMn00fMn00fMuPpw+Y8fT+D5jx9M8z5tz9bHyl9WHyjp9aHyD3+scnyd9YHyLv9a5PkPf62PkfP1vk+PZH1ofIufrvJ8j2Pesg07bp2IbCAAAAAADF88aqdk2kAAAAAAAAJ/sMoAAxjJAAn0JpSAAAAAAAAAABxpO76ObwAAAAAB4+0g9cO91NT9dn7GFmgAAAAAABP+ffUR8v4+oj5c+oj5dgfYB8u4+pD5Zx9UHyyn9AA4OXA5ccHZ1HZ1HZ1HZwOQADg5A1LbcA7Zup7YAAAAANV2rBPFUEtUjHqlaCfU3hpRvnGs7Ae3PyTfC8pdyUqiUqiUqiUqiVxWEjrZETi4IXW+Ne42Ia5xsg1pso1nrtA1bjahqnG2DUeNvGn9NzGmNzGncbkNQ89zGjdt3GkZe2CD7WBpO7S6gAAAAAlVRLVBLxL40zF30ahi7yNL77iPn+Tu4mdqInKInKInKInKInc0BPUBOUROUROUROUROURO4pCYpiYpiZxUEpVErisJPFcSFcR1gRuLQh+tceHuAAAAAAAAAAAAAAAAAAAAAAAAAAAAAAAAAAAAAAAAAAAAAAAAAAAAAAAAAAAAAAAAAAAAAAAAAAAAAAAAAAAAAAAAAAAAAAAAAAAAAAAAAAAAAAAAAAAAAAAAAAAAAAAAAAAAAAAAAAAAAAAAAAAH//EADEQAAEDAwIEBgEEAgMBAAAAAAADBAUBAhQVJBETNUAGEhYyNFAwICEjMRAiM0WAkP/aAAgBAQABBQL/AMVOFuVbRtzTAQMBAwEDAQMBuYDcwG5gNzAbmA3MBuYDcwG5gNzAbmA3MBuYDYwGxgNirFrSlqDO4xWxitjGbGM1LGrO+uA2MBqae1MBqae1NPamA1NPamntTT2pp7U09qae1MBqae0NPaGntDT2hp7Q09oVYNi2+9BXtb/3kv0X8fLdkHldHldnkdnldFKOCzzcPwvfLyRTO1P/AC5rTn/iUq447s3hweHB2Uo6Eedx/RI9Pt9vaXdUFnSKN2amZthm2mZaZlpmWmXQy6GXQy6GVQyqGVQyaGRQyKGRac+w59hzE60ok3tOCZwSOCR/AJXNUjJRMlAyUDJQMlAyUDJQMlAyUDJRMhEyETIROeic9I56RzkjnJnNTKXW1/xJdOt9vaXdUI2ynI/P5aHksOUmchIxkDFbmI3MRuYjYw2xhtjDbGG2MNsYbYwmxhNTCamE1MJqYTUwmphNTCamE1MJqYLUwWpgtDCaijJC6yLXucsZLp1vt7S7qhF9N+uhqcGEl06329pd1RNSilsX0366N/ZjIVpdG2+3tLupsfZF9N+ujPi314wtvt7S7qbL+ovpv10b8b/o7fb2l3U2f9RnTfro343/AEdvt7S7qbOn8UZ0366P/Zstb5Ye329pd1S6nCyM6b9dH/u2kunW+3tLuqX+yM6b9dHfHkunW+3tLuqX+2M6d9dHfHkunW+3tLuqX+2N6d9dHfHkunW+3tLuqX+2N6d9dHfGkunW+3tLuqXe2N6d9dHfHkunW+3tLuqXe2N6f9dHfHkunW+3tLuqXe2O6f8AXR3x5Lp1vt7S7ql39R3T/ro740l06329pd1Sv9R3T/ro740l06329pd1Sv8AUd0/66N+NJdOt9vaXdUr/Ud0/wCujfjSXTrfb2l3VK/1HfA+ujfjSXTrfb2l3VK/1HdP+ujfjSXTrfb2l3VCO6f9dG/GkunW+3tLuqEd0/66N+NJdOt9vaXdUI7p/wBdG/GkunW+3tLuqEb0766O+NJdOt9vaXdUIzp310bX+OS6db7e0u6oRF9L4z62teFIz97ZLp1vt7S7qhe1USW4vTem9N6b03pvTeG8N4bw3hvDeG8N4bw3hvDeG8N4bs3Zuzdm7N2bs3Zuzdm7N2bs3Zuzdm7N2bw3hvDel1j2pczdKVQRtQskunW+3tFa+WR+xkq7K3+u0cJ8yyi6qV+QuZCxV2pQzrjPqagaiaiakamanQ1Shqlpqtpqtpq1hq1hq9hrFhrFhrKZrKZrSZrVhrdhrdhrlhrlhrthrthr1hr1hr1hr9hr9hr9hr9h6gsPUFhr9pr1DX6Gv0PUFD1DaeorSniGlTXxm8SdOO1vupZaxp/pI2q3tk6NPLwYnBkcGRwZHBkcGRwZHBkbI2RsjZGyNkbI2RsjZGyNkbI2JsTYmxNibE2JsTYmxNibE2JsTYmxNibE4MTgxPIwOWwOQwqXtGnlY2K2M55nZRsxWyGnaPv5b5xzR5KY0KY8IOkom1BJnGUrjQpVCEOQwuWtQg+HIgxdCK4os4rhiwpc3hBFtH3Vo2hCqEELIRdV0msR5MeDFEYPgyRj7jHgyqEELoxvNsbQnDHgx0jD0Rbt4s5EGVQgyqMdk2t4Qx4MdoxVE0G8Twx4MvbwgklHc+iEGciDHKMYN0YaqfJhC9CGGqcf5qJQpy4Yc2IEffqcH4cVrc37Ry7x2Phu9m3pqcYVlIsXeM3U3bJxltNVjCUkGTi1i+i7G2oxZfJxVtsI5ZWqapGUKy0YLumDt7bJxdKanGEo9YL2MXsUihqsYXysTwinEenXU4wrKRY4dxrl9bJRRqcYS8hG3sWT2JRT1SMLpWLI9aNQrSUizVYwkXsaq6tlIvhqkYST+KUaNHkYgpqUYVkosZOY1K/UYorJxRJO4xZSySia26jFGoxZqMWO3ccrf4PvrRs220/2b+tbrfFC3PdpOIq1PLizLjDMiyUdsVGsfpKaeTFULnUOR+DVWjqMMyLoS67FyoitDp2ZMUPnkXY1jaRzUy4sq+iRVWNcSdHcWZcWSbiMWRaXxKFuXFlXsUMFo6r7KjCryLoP1I5y5QWiKJ1cxJJrxVWDW6LaKZcZUq6izmxmpUdxZlxY8Vilr2DqMsbZcYXuYmtGCkYivRzFVKuIoe1jFVUnsVWzNjB66i8aJv5XiWd/hc0/enZc+22kClY4Wo2iCiEWcqNPLGFdLoXJsXcxajF0PJGEtawuRZNork0Si6FbYsZIMF31qUXQrbGEhbGqOGjaIo25EQXpxNLIlpH8u1GKoeWNoSicco6ojEUKWxY/pGUZNGcUnfalFUPLGjhvGqSlqEScqLJS2Mo1btYqwolF0K2RgmjF1krUYw8sbQfIRt97RGI5HJiCqERUZNIyitEIk5UaVTjSqcUY8QOLrEJSaT88fDqeeP7F9fdaj4mv8qTeFZ3I6NHmjR5o0caNHGixxosfwnWDBrY2gmCaNsSwtrdDx3CJi2buujR5pDDhLsI9G9vBsLEqRLC0uiI6lsREsnNNHjysSwuJOMY2O0oOPss0lgXw0dwhopg4TpDR5WIYVJWLZWLWQkdbTSGApDRvliomPVT0ePLohhdV9Ex1F7YaOoaQwHULH1bx0VHKFIhhStYePqSUSysVth47hpLDhpEeaRHmkR5o8eVho6pPs0mzJC+jpl4furZd2Kdea7YW3S0vb4eY2mgsyUim7ZNlBoXpaE0KwDQYxjZ69t8OsqHp9oSMW2bqo+HW9yPp9oaA0LoBnwhYlBeykCzoaG1LvD7K4rAs6mhNCvh9jUTgWSZSBZUNCZlfDzCpoDI0JoaAzLYBnYU8Ps7SsA1qOYBnZZSFbLV0JmaCyLIFomNIdG9xoTUr4eY1HsM25yEA35egtS2Ba2FkE1tV9PNj0+3HMAjRFpDNl1fTrE9OMB5DpM2/hZbmw1228Qdg8V5KEkmohBNZeseh6qdlfFLwtlcpS3xQ8pT1S7LvEr1QTl9Op6peHql4ITFF1fU72h6pdnql2K+IXbmy6dUaHqh6eqHp6peHql4eqXh6peHql4eqXh6peHql4eqXh6peHql4eqHp6oenqh8WT67hRTxEuiv6pdnql2V8UPS2XvST9UvD1S7Ep9Rw6pPOGh6peFfFD4tlvMhTxS9PVLwv8TPLrb5iiFvql4eqXhZPKOFvBlL6M/ENlbaJX0UT/P8A874x0TFQMVuYjcxGxhtjDbGG2MJqYTUwmphNTCamC1MFqYLUwWhgtC5uhVTCsMFMwUzBTMFMwUzBTMFMwbDBsKsqFiCNquC0MFoYLQwWpgtTBamE1MJqYTUwmphNTCbGG2MNsYjYxG5iNzFbmKgYyBjolKcKSqfMYQannYfmcq0QQZpVRQ7Nl+6H43X/ACdvCfwPfzKfzva14UYqXLJdi6urY2b8KJfpSWsVr+lzfbW/t3m2nPyqqWpJMU7rUZlaiLO2cals0hdVqva5T/O/suva2SUylTWJk1qYNalzWpY1qWG0hJt7taljWpc1qYNZmTV5si1ZB087fxEj52rJbIafkdfzOCtOJwp9FxONDjQ40ONDzUPNQ81DjQ40OP43yXOZ+HVfO1/IwucUs565kLGQqZKpkqGSoZKhkqGSoZKhlKGUoZShlKGUoZShlKGUoZShlKGUoZShlKGTeZF5z7jnVOacw85xof6n+h/ocLDgmeVM8iZy0jlJHKROSichEx0DGQMRuYbcw25RqhQxUCjdKgpYosY999KoKLUoioqWI0sLVFrTIdES2VaSX5Gf7Jf5l7r7I1SObJM/D+M8faUzPEtjZgnBtmjyP0pmVVbWzcq0TaMrf3t+tT/ke/kV86C2bYZqZnJDpdu5bpqKppoUq3uyXIvco4ssVXTsyHRy78hW2rmzMRMxEzETMRMxEzETMRMxEzETMRMxEzETMRMxEzETMRMxEzETMRMxEzETNRM1EzUTNRM1EzUTNRM5EzkTOQM9Az0DPQM9A1BA1BA1Buai3NRbmotzUW5qTc1JA1NA5yriiSdqVn/yP//EABQRAQAAAAAAAAAAAAAAAAAAAKD/2gAIAQMBAT8BC5//xAAUEQEAAAAAAAAAAAAAAAAAAACg/9oACAECAQE/AQuf/8QATxAAAAQBBQoJCQUHAwQDAAAAAAECAwQREiE0kxMxMjNzkZKhsdEiNUBBQkOUouEFECNQUXGBpLIUMGFywSBEUlNigoMk8PEVo8LSY4CQ/9oACAEBAAY/Av8A6Vf1HeEr5qk9k4yPULzlqreLzlqreLy7RW8Xl2it4vLtFbxgrtFbxgrtFbxgqtFbxgq01bxgq01bxgq01bxgK0zGAemYwD0zGAekYwD0jGAekYwO8YxfeMYvvGJTRR+YxwGlKL2lOFXXrFWXrFWXrFMOvMYMkt0lzHKRjFEMUQxRDEkMSkYlIxKRiUjEpGISMQgYhAxCMwxCMwxDeYVdvMKu3mFXbzCrt5hV2tEcFhsj5jmia5Sg9XJmy5rkran9nglKYoUvQTvGNVZp3jHHZJ3jHHZFvGNOzLeKVq0C3jhfdekwJxTvdL5imS/Z5S9k2bJT+Msv7EORYydq5/u+ClRe6QxhL0E7xhrs07xhrs07xhrs07xhK0E7xw6S+H7MSfPc1bAXJW8iranzJQtXDVeSkpTzEMXEWC9wxUTYqGKiLFQxURZGMTEWRjFRFkYxT9mYxT9mYxT9mYxT9mYxT9mYxT9mYxb1mYxb1mYxb2gYwHdAxguaJjpaIv6hhJzjgLmflWK0q0FaVaCtqtBTFGf+UGaHG5TvnOGOb0iGOb0iGOb0iGOb0iGOb0iGOb0iGOb0iGOb0iGOb0iGOb0iGOb0hjm9IY1vSGNb0hjUaQxqNIYxGkMYjOMNOcUGR+aKyStgLkreRVtT5kvnS48U9Sv05BeIYKcwwEZhikaIxLeiQxDWgQxDWgQxDWgQxDWgQq7OgQq7OgQq7OgQq7OgQq7OgQq7OgQq7OgQq7OgQqzOgQqzOgQqzOgQqzOgQqzGgQqzGgQqzGgQqzGgQqzFmQqzFmQqzFmQqrFmQqzOgQkJtKD5lIKQyDTrmGcpH8DkEVklbAXJW8iranzQuSTs9XpL+pf1GIrJK2AuSt5FW1IlIQmSTs9X0FLw10f3GIoy/lr2AuSt5FW1IP8AInYITJJ2er/8i/qMRJ/0ufqC5K3kVbUhz8idghMknZ6v/wAi/qMRH5XdpguSt5FW1Ic/InYITJJ2erzyi/qMRH5XdpguSt5FW1IM/wCghCZJOz1eeUX9RiJL+hz9QXJW8irakHIITJJ2erzl/mL+oxFZJWwFyVvIq2pCvcIXJJ2erzyi/qMRWSVsBclbyKtqQfuELkk7PV55Rf1GIrJK2AuSt5FW1IMQuSTs9XnlF/UYiskrYC5K3kVbUgxC5JOz1eeUX9RiKyStgLkreRVtSDELkk7PV55Rf1GIrJK2AuSt5FW1IMQuSTs9XnlF/UYiskrYC5K3kVbUgxDZJOz1eeUX9RiKyStgLkreRVtSDENkk7PV55Rf1GIrJK2AuSt5FW1IMQ2STs9XnlF/UYiskrYC5K3kVbUgxDZNOz1eeUX9RiKyStgLkreRVtT5obJp2erzyi/qMRWSVsBclbyKtqfNDZNOz1eeUX9RiKyStgLkreRVtT5obJp2erzyi/qMRWSVsBclbyKtqfNDZNOz1eeUX9RiKyStgLkreRVtT5obJJ2er/71/UYiskrYC5K3kVbU+aGySdnq/wDvX9RiKyStgLkreRVtT5oXJJ2er/7lfUYiskrYC5K3kVbU+aFySdnq+T494xFZJWwFyVvIq2p80MZcyCTmo9XSneH9ic9J/qIrJK2AuSt5FW1PmNyDcJM85VtrLgn+P4GL0PnMXofOYvQ+cxeh85i9D5zF6HzmL0PrF6H1i9D6xeh9YvQ+sXofOYvQ+sXofWL0PrF6H1i9D6xeh9YvMaxeY1i8xrF5jWLzGsdRrHUaxeY1i8xrHUax1GsdRrHUax1GsdRrHUax1GsdRrHUax1GsdRrHUax1GsdRrF9jMYvw+YxjGS+Bj0jyJvPf2SyCaiX2mZ3zMRWSVsBclbUeDclU/FPrJ9HSU2qQvgC5LIVCuYwTRNm6qbOMiPBFUXpEKqrTSKYf/uJGJ/7qRiitUjFptkjFotkjARbJGA3bJGC3bpGC3bpF5q3SLzVukXme0JHU9oSOo7QgdR2lA/d+0oH7v2lA/d+0oH7v2lA6jtKB1HaUjqO0JHUdoSOo7QkXmO0JF5ntCReZ7QkXme0JF5ntCRgs25DBZtyGCzbkMFm3IYLNuQwWrchgNW5DAatyGLbtiGKbtiGKbtiGKbtiGKbtyGKbtyGKbtyFDCD/wA6RVytkj0pzFHgkrpe7m5MalHIRUmYU+uhbxzqeYuYswModXClpIlSGZeyXmHC8nPmf/yIn/qOLT7OQ4u+XHF/y4qHy4qHy4qPy4qPy4qPy/gKj8v4Co/L+AqXy/gKl8v4CpfL+AqXy/gKl8v4CpfL+AqXy/gKl8v4Co/LeAqJ9m8BUT7N4Con2bwFRPs3gKj8t4Con2bwFQPs3gKgfZvAVA+zeAqB9m8BUD7N4CoH2bwFQPs3gKgfZvAVA+zeAqB9m8BUD7N4CoH2bwHF59m8BxefZvAcXn2bwHF59mHF59mHF59nHF52AM2YF0nOaYUw84bRFKnuyUmLsykkKIynSUSl4Bp3nUmn38lbhi6dK/ykLkp02oNg5qll7RX39e4V9/XuCzYjn1uycFPtPMFE/wCUHSMqJCFff17hxhEa9wckjXUw6VJIlHz35RX3j+J7hXndI9wbRDxr6lrWlP4FTSY9L5RdnSne/wCBX39e4cYv/wC/gCUuNeQ0alEXtkKSQUxz2c9wrzuc9wZTDxrxpMznn/CUgTdPKDxqkpv7hXndI9woj3/hLuH+qjH0ewiIV17Oe4V53Oe4SMRr5oklNUn4imOfP3y7hXnc57gs2Y581yUFTSeYHd458lewpdwrr2vcK89nPcDkjX7gUnCk9/gK8/8AGXcK87pGJYeNfU5KVFO4SPx78+U+Y9wr7mkK+98DM/0HDjYi4ynTJ7pP1zCvPZz3Cvu6Rgvs/lB4zpv+4JNyPiJ3PLKX6Cvu6Rijyk+Xx8AX2iPfIjTLR7xxg/pGOMn9Iwv/AKd5QiHFJQa5JT5gm6HKpxs0KP8AG8HGl4SVS5/GXksTHnhOcFr3c28Orj3UJfM6CX7PaKwwMewGlKNsoJBSGZlhHfHBiGCFZZDcPDqbcU4sp1F5JUmE+lYIz4R0c5jHw4lN1k/cmUPPRamELWc5BGV4jFYYFMQ1mDi/RfZ0JQicaec1Ch9ghWGAyyytlanHUkcnMUtIIidYSd8/eKwyOE60f9sour5soNycopS/qMVhgY9nMFqlauSGi4U3nnih+HIVhgOJQtlxaqCIiBonsoMlK5vxFYYFL7J/ANuuXJN0N2RRl/UUgrDArDIaNFyWlKTNZzfxIUPsEKwyFpJbK1HekSIhs1sIO6Gd6gViHFL8OEOKuJJUp1Msn9UpDHQ4xzGYJNm5LWlClXpKSkMtgIycYL8DIY+HGPhxj4cMoYW0pxa7nwS5joMREOrCac/3sDiOi7Lrp/8AbkiWE4TxzfcnnDcG1ITbBTl/gEpu0MqTnOSUxjYXUMbC6hjYXUDZhLg5EOnc0EkiOSXnCpxws6deOSjmGHCahSuE1AoiJSw2lxS1tzi5rxCh2F1DGwuoMtQ9wURSuOKIqCIiBJQuEkL3DDhNQdNJwylzTkJMlJiR84dLxIQRkr8sv6jGwuoY2F1Ccdw+zomFOkolpFDkLqGNhdQQ00bC1rcQXAIvaFJlhkqnHKRyUUjGwuoUuwuoOOupYSgzXMNRX6SGMhdQx0LqDRNXBwktuKVNL8AmRUJe/AYcJqERclQpuzDmySSyh1Cvs7apSOQ/ykMbDahS5Cagp2Ri5ktJTubBMUOwuoY2F1CHSn7O4ZukU1MgSkzh21poNJySyjGwuocJcIeYGoyZS2udIar1CtxjDhNQpXCagdx+zqVcVHwZKDKQy/UEZLhUy81Ax0LqDhoXDG4lMqZJJZeYRKSwIhF0L407xDxJc1/4U7JwlLkcTHOYtBTUe4r+c9gfiPKBtzXeFItWFSMXB90YuD7owITui9Cd0fuZaIoQwmETRPvTjKkcFEH3RgwndDbUO3DrecWlCZpEclNInKRCmazNXCkol5hQiD7op+x90PPLQwlklmSCOQiO8W8UIg+6KShO6IVtlEOs7pOXMIj4JEYblKEUc0qTMqRgQXdBmaYOQvyhpcUhglm0RyLO/KZihEH3RehO6EJbSxITalKNHvLxFCYLui9B90PmRQhqJByYN+QLJ1DE6RNDh/h+IoTB90fundEsjBMtpRLNkmymZ39Qobg+6MCD7oM0lCmuVMkkkt8g4lbcNOJZ0LkFCIPuikoTuhyVti5kqQj6ODLvFCITui9CFoiHuaIZRqeIjmyUhJKRCT08FU6SWUYEF3RSmC7oQpxtmapKiKcdEqVChuD7ooRCd0UphO6KUwfdGBBd0eTH2zlQRmxKXsI5NhhZyS3Ph5r+qUNSnKaOAfwo5FMbxjhzE7xDeTWOlSf5SDZvtXRc0ipUdBewVRsVVsVRsVVsVVAk+zJk95hlLEKk3nFXpx3ucJJTBLVJSahKmGbI/aQphWyIE6bPo5VqKk6Sl4IqjYk+ytiGbRDoJbi/aeDzhBKh0qVJSZmODDIIGaoVoiCHjZlQc475/wAVGoVRsUwyDDaEMEXonFqkM/gCL7MlR+0xVW8wphWyLMLopqdwZZDM/aYqjYphWzEiGSTJDuLoPnKSQUQqD98oqrYOdCoIviQSo2SUZtpVIaj55RVGxKqFQZg2yamKNpSikUdEnOKq2Kq3mDn+mSkySdJUBXoCUciFSGZ3jSJShWyMUwrYcJDM2Rm6Xz5jEpQrYk+ytye4VRrMKo1mFUazCqNZhVWwtEMU1LS0ukUssktB7CDazwXUS5yD8Oq+mnNwT2FyJx08WzwE+/pH+giYikkHKgj9if8Ae0ddaGOutDDVzcfujjiUF6TOLo45EHOpIrpzcwvv2pi+/aGIhtDsRc2VmRnPv/7pB0vU0YYoXEWghkJdiOGo53pOiRSmEXdx81mVPDCZVP8ABKQuHeIYcRaCU1xFoDeM3ZFNyYXt8JBRd7QxhP2pjhXY/e4YTLdeCUhekOghfftTFJO2hhUy6lOTNPhnSQou1oY661MUpcP/ACGCodoKQvSGOvtTHXWhhU26lOKafDvkODdi9zhjDiLQEanYjCIqVic5dOD6NM1ckiSvDrrUx11oYVczdTOSaT4fMYcRd4iag1Jkn+4YcQf+UxSTp/5DEPwnioNFCuYilIJM34lVH8wYcRamF3Nb6TWmarh3yBouj2Nm4fNJKMdFWgx8XaBakRESRkUtK5Q5K5ETZEqL0ntIddaC87ph8mDXI82aTJRy0lSWwNe1EqAR9F39S3p18hNSaVnwUF7TO8Hm4eU1kj/kw0UHMPgekJZdKUximdYxbOYKejnSStLaktJSmiU+cSXNk/gMUzrE30LcvSm3hM8nqQ4hRFOnpOWdzjFs5hgM5g5ERrhJdJs0NJSigvxGCwfwGLZzGMUzrCmlG00lRSGoknKLnAm0qHLBnJOUYDOYYDOYYDOYYtnMMWzmGLZzDFs5hi2cwxbOYYtnMMWzmGAzmGAzmGAzmGAzmGCzohoopTaGUrJRzU00BwoZSHGDUakzk0lKMUzrGKZ1ihDJfAXdt9JxRrUa0TOCZH/wMWyMUyGDjFIbabVP4CaTFyh1tvMpwTUmmQYDOYUJZ0Q+47EEUWtSVJIkUFNGAzmGAzmBpNLMhlJeDLkE+RuE0lpaFIoOTnGAzmGLZzGGTizbSyhU4ySk5TD5mR3M18EMvowknJ+pay1hK04KilLkH9DH1nuLb5sU3okMS1okMQ1oEMQ1oEKuzoEKuzoEKuzoEKuzoEKuzoEKszoEKszoEKszoEKszZkKsxZkKsxZkKsxZkKsxZkKsxZkDSzBQ6ptBmaSL9BVIPQFWhLMVaDsxVoOzFWg7MVaDsxVoOzFWg7MVaDsxVoOzFEJBaASiIgoZJroQaUkcuoVZizIVZizIVZizIVZizIVZizIVZizIVZnQIVZnQIVZnQIVZnQIVdnQIVdnQIVdnQIVdnQIVdnQIYhrQIYhrQIYhrQIYlrRIYlvRIYpvRISFQQdm4SSnp95Ugkl1Zmn4c2qT79bh0yc3tBEqlZ0qP8eST/AOMzXnOj7yGP2Of+J8oiIY/h8Dk2Sffob6DXDV7+bfm8xuqPgrOVH5eROKK+STkBJT0eD+0sm1SzFTVfgf7TaZeElaT5Qy70VyS/Hgn/AOP3ynF4KSlMTnMY4c9W4cKdNUc05t+TnBETb9mKGomyMT0JWkpZOGmbyBwkFOVfIvaDIvJ/OZ4B85ji8tBQ4vLQUKgmzUKimzUKkmzUHzRBy3Vd0OVtQqSbNYqSbJQqKbNW8VBNmreKgmzVvBnGwtzKjhSSFRLyhC04STm5/GQNPF00kf3rUP0cYv3FeLPs81PqS+L4vkL5C+QvkL5C+Qv/AHjrfOaaPeHG/wCWs8x0/eqcUwbi3DlNc8vgKovSIVRzOQqruchVXc5Cqu6hVXtQqr2oVV7UKq9qFVe1CqvahVHtW8VR7VvFUe1bxVHtW8VR7VvFUe1bxVHtW8VR/VvFUf1bxVH9W8VR7VvFUe1bxVHtW8VN7VvFSd1Cou6hUXO6Kg53Rxe5mSOLl5kji5WZI4tVmSOLVZkjixWZI4sVmSOLFZkjixWZI4rVmSOK1d3eOK1d3eOK1at44rVq3jitereOKl5y3jilWct44pVnLeOKVZy3ijyUrOW8cUnq3ijyT9IuT3k4jhknKkiVIYJp/wAmysNy3MiXTtCURPk0lNN0NkS/EF9q8mkcwpqJi+YcHyau0LeODAKL/IkVJVokO3ShLyTNKZZZJDL/ANvvTT/Coy1/sPqaVMXJQr2Ba3kuPqSk1GZrOUwpp2GOkpUndDoGJ7xhm5sKnLM6ScMiCHTYUR0kcqzMYnvGLiUIu5XSZNuhyhyIhTW042UtCjpBerlr5m0zPjfP9PvTcQk1oVhJK+R+0UtRBf4lDBfsF7hgv2C9wcZcS/NWUh+gXuBITFOKIqOHCLMwo2FNtmq/NglkKwXZFiY+ttafYqDWCQ28hKSvEUIsVpPZFi73Vm7fx/YVSi5xUWtTfOlEMpMo6yzVuHWWatw6yzVuHWWatw6dmrcOnZq3Dp2atw6dmrcOnZq3Dp2atw6dmrcOnZq3Dp2atw6dmrcOnZq3Dp2atw6dmrcOnZq3Dp2atw6dmrcOnZq3Dp2atw6dmrcOss1bh1lmrcOss1bh1lmrcOss1bh1lkrcOsslbh1lkrcOsslbh1lkrcOsslbh1lkrcOtsl7h1tivcOtsV7h1tivcOtsV7h11ivcOusV7h11ivcLz9ivcMF+xVuHoW1tl/G4UmYgSU3v8A8kP/xAAsEAABAgQEBQUBAQEBAAAAAAABABEhMVHwQWHB0XGBkaHxEEBQseEgMICQ/9oACAEBAAE/If8AipoZi7FIVJyCMIJzMcM3BuH+mLFu/VIECRMuVLx1V66q9dVe+qvvVX3qs7fms5bms5ZmjpiEydxA3oIYeBV/uVjuVzuVEc1C6YxAM2MV547rzZXkyvMlWBVgVdH+HNfCLwn9u8QIT+DrwRM63AECg4ldPiBpUYcPbRJF22H8xCXAEBmE5iGies0Kgvz+L5KcbGNf8hIJuHZmVckC4hJWBod+L+JkTJmnDNlLm3+ZRsNqJCNAVm9Fy4TPEn5CEAATULPr+YQIAcGkS7D29YzOcVOOp6SLj0VuaK79FYOisnT/AD+eec4Qc8yS/UVlc5IFxcyUwaoQTjD0ZHRH80vFl4agzuCEAGaCSeb/AOawxxxxxwwy3ja8JXgi8UXjS8KXii8JXg6nvZH0uNS7D29YiEcdOIccAEB/uyJZ9BE0zciJp9KieZeROJrg0VuaK/NFdmisLRXFory0V9aK+tFf2it7RWdorG0VjaKxtFf2ivrRX1or60V9aK+NFbGitjRWBomLbsiSvQSoIQeGAxxJHdlcal2Ht61vo+PyMVXGpdh7asW8XkrXT8eZMSEIJRSHDXcF2HtuxQ6LWun4+emujivYe37B2un4+f6Nz2Htu08ne6fkAxguew9t24mD0BCudPx5gslgmMbmE+w9tWAOAAYq50/HiAwcJrjUuw9tW7grPT8huuNS7D21buyttPyG641LsPbVuzKvNHyGa41LsPbVuzKuNHyEa41LsPbVu3KsNHyGa41LsPbVu1KtNHyGa41LsPbVuwV9o+QzXGpdh7at2SvtHyEa41LsPbVu2V0o+QjXGpdh7at2ys1HyAa41LsPbVpis1HyAa41LsPbVpit1HyAa41LsPbVpis1HyAa41LsPbVjIqzUfIBrjUuw9tWMldKPj5q641LsPb1r7R8g1cal2Ht61ho+Q8uNS7D29a20fHxvF1JuNS7D29bEVbIg7uPjhEIAESTgjcIlFyLYK41LsPb1os7AEtGKLF0T2X6T2X6T2X6T236T2H6T/o2p/wBm1P8As2p/2bU/7Nqe4/Sf9m1P+zan/ZtT/o2p/wBG1P8Ao2p/07U/6dqf9O1P+nan/btT09avT1q/7Vf9qvR1K9HUr0JehL0J4EvQl6EvR/Kf/wAXSvF0qyq1p+19HEAQOORj1HMEKtYSDlYkq41LsPageYYUfJQ2kRuMYl2XtXcjETB/IUAqA4XZnM8WxgrP1RHMdlVNgcdxHFG3NEd/3T7n7TrH7V7fTLP7TL37Vy6q39Vd+qsXVZd3NWN5XdxZ9jNZtrNZ9rNZlrNXdz+C/Xl/y09HPLc0Vp6Kw9FYeisvRXXorv0Vj6KxNFY2ivLRWForK0RtD6V76Kz9EQY1kpkHs6lDbhGB4SwPgC5bL2wLgbjAI5ExCLF9iURAGDUqDEzQ7MeRT8SSCizXTsrw7K+OyvflW/yrf59FNWU1ZTV1NXU1dTV1cdTV1NXVx1cb+SEAI4v+4gAhClKWta1qTekkrxsnLH0nrn0vEmiCs6UIZDhCLGxgHxgwTeORiwhZyMxBeYZUWBCmLu/tSwMf3XUsOaGxQvpAxQGMG5IFUECwF6FOyHdCMGE1gHiAcXTU0g0wckA8HDRJeCYGyAkp4RmBCuBsxFIBYQkUdcBIczPDoZNT6yAh9DlHk4aHKYMIO5mgZjkIEmONJDAIuCQIuyHM0EDA6MzSHRhxEkTMEAkDPMA5IMxVP0MkJBeCLFkAGBMHX1DCEKYBCTI3QIBGcWIAYzDFyA59cUawFzkbLynSS4dBsGibFNok5CFm66I6gsCCE4xyOhzAgAwBMibsM0GtXsgRAZQCjAjECblsh2L4EZR5wkOFaZIcgYRACwiIiwxACAREHCANEvzRM+gEUJgnhAzcGM2kDzVkvpHDDdRTsuk0HDGGBPRTTAHE7VOgSU4Yu32klhGSFTUGiHW55kD4NnJj8xdDD7CxBuT6I8DQq2UnNumaBACoII4iX30AMGIDwQNj4BAMRzBs1fBHjHizg9kSUAAiyW7ISHKQ4iODtEWMXGjuC3IJgDqSTm+EbIGgGZFx5I59khZmIujiLG6H2k9gDecAtPSAEEAy7KGmfq0QBMS5kh2DU+0AO0AaK6CZTk4JkRQGjIQc/FkBqYQ7m0TYZhDlMoSQEugj+P8Aia092CCBCJgUCDZRm0Rx+j+Ju4DMRxkgZwBA4FjAyXkgm0UORUY0RGAD0jggKXSGyZxu8FSSnUAOeIdsU8xw7EEdkPyAr8Kr2UFTIpwGfsWWeOP6SouA5G9x1e0Mezg3M9PsIheAkwlnwDdU+hAATkSpPoPzykM+upvhoiCJuhEzJx4pmbg/NU+pAi1ITG4Ad4F2J4oMQAyUzHWWGKczgYE5k/SYDBh6Dhn5jEWIIVBMY8hGOZdEWosIBAqE2ShKPOkk0lslIJ9VYy2aCzXjwUaG8QiQjT0jjX1JhY8oDGOyGGrNOooqmRBg0L9E04LZhyxS7yUykYI65bJEjL7oYxRrHcVZeDZAT6wEUxgFIhFvisC3kkS8IthFPb4GgAFisVEqAw1UfqRGBJ9mfI5BSb04NiYbucUDU8AuYRkvKIYe0wxizmAgSks9g1oJe+9UIAI4MR7Mk9F50wOhyIFfLQTsDg4PRYI/Ug5dBAHZRiY0KKSxiChCA+CcBjgBxmHyQeA4IQTCgcl0YFjoSg6lsqkbCgzBgyCwHJBgWBxKN661ECAMQ46kFhBkEwbQ6ExIPxcjCAU2bhkk2aAZKG0wOUgQM0A4OxyZfRVKIQkCycwghyPR3ByQOFHEOOAyFYjANJgOJSD8EIcAwmgIBuQhApIcyD+qEZmBG7dosuFk6ZVhzECMo5KSDgENBDfNHgsjph4MEBEvkEM8Yg1CTxgL0zZQHIwAsTd4oCkgAYpHHA4JNgZwdiEN9EIAyHAIDJcULTEs1Al3dHDsewhRMINqJCCCADJqk4uz+yGCNw2TPkDnkgwOWhGEjU8kBOB40wACvCr4q4Kuirs7olkSIED7UAIVnDijwCna4RJJ6oDFcgMUKRFJmIZR6IVOWgz4AFAOyUSgTAlCSjwaAAgBdPgg02DoXLcUcixBEHCHAAiTBkw7DRaMYx0ID2U2Q4MHeAQDq0CSYYqlG0EABKS56oDdhvBDTLQiQ+pBAjxCBPH6AdEDsFEXMVIRqAmQYYhPigUZgRapsEBgzgiiAAckHUT2ZkjYk8WQ/NRYRIkl3KfR2mDgqzQVhznP2oLQ6IYAUAKSBZHjLDCzAGEauhYIRBAijBLrggUngs0G3g9HTcWBiDEqAIoSH8jjiAJHlOEZfWSFh80CgBBIZfojOxBzbg5+yAdwDSsDkKeExnOUWzYgdSGAAdAqRFQoFDZMzMXIOgF3S+Bj2N6YkyEqYKRDGADQr2CqKkHQJHEDhJAIgBkadATJjGkEOCPwIkZAaSRPE9HgXmKEMEBExrFpFiMb4VB1QVjAUAvTcHDxQhYu9bBlAwkzW8UQHdm4xMFDJQyUcZXuNEWjIBTus9ElmVjRPilBxJhDmIdAFu3TeQYFMy1EIGEiwQCWDVZ13NE0wmSMkZhzzhFM1WYa7FmFCq/FI73hEc6IxmuQO2Sc5CBcMBVcqDpEQYOcmIhEOMhlgEbWHFAEhXyVp2ReNpBDkh2UI2h6iqO4kibA50SvykAupMUzSci47EKiLLoexFDXQ4BINErBImdaZUSPAFXiHGTEDkvCblghc26Ka5HsEQ5ARMqENV4jchZEghIE+aaIInowoEXNeRbo4I+fdEB3UJjMkDGOcB7q/NV4zcnS/sABpFQxiAxSxxqvO915vuvLt15VuvKt15FuvJt15NuvMt15VuvKt15duvL915nuvO915FunO0euc6ecbEAE7Lxm5eM3I77KdUBEGQoB9IMY/I7o/mHdOfDnDAIaeaGh+gPgcAMV5dujJHm3TxlOnsB4yQAifn3R/Xbp3zRR7ozg5VEBrEoYp+fdXZqn6eTIRGqCAPTOMI6KdIH5/mpF/C4RD+wHL+oNSw9CeZuPoNXBorc0VwaKwtFfWivrRWdorG0VzaK9tFeuitnRWzorZ0Vk6K6dEGRlBQWdpn/UMUHIdF4uvEV4ivEV4ivEV4ivGV4ag5jo0R42McJiWOAsD0V06K6dFZOitnRWzorZ0V76K9tFY2isbRWdore0V9aKytFcWivzRW5org0Vtaes1AhAAJABEH+0Fn0hYGXu73+4AEGAYsAOJRz+axxPtOW9wJ9G/wBBfNPZ19uQCGMkdPWnF/vhWPPzl5RQAhJYDFRqjE0sH0/P2RV2McTQWG4QXED+haDN9R3/AKAUHIKAuN/cHhhaHlf7TCMUbIIyGzRoToDDkj94Bl6VmyZNGUCgmZxcBYIECF0PsCU2QCWgLtzZBKkTuKGuaIr7urG1VSxzVp6qy9UJoR5JJaXRW9qrd1VH08kBpIhSrZsMTyxmST7g1YFSULC1G6qP9akBuKdyLm9ASAeKAJAfAuEyoWQWQXmF5heWXll5ReYWQTKhOP6Jaf8ADFTWh3T6TZCkD9kcv9T9cMGAcA0GbVXHqrn1V96qzdV5fevPb1fb1db1d71d71Z7/wDUYYYYYYYIIoYZ9cTKn9nej+JvTvz3Iu2tyIWH2ie07ok77ure8mvX2rS1Vxaq+tVfGqsDVeF/gku+816WAnn6oRIpCkvOqnZ13JvYgM41AWrF1Q4zgc48GZ5ICsZzAzgpmpP9aAwcxkpJlLujmqHOU3AR9QJw83T/AFZAXJCkRHYj+GVbSTTTwUpxAc4wRmrBHi0V3QDILc0AJUJGwmnWxiuIxd0Szs8UVEQqE7Oz9ky2Fh4hAh0bgzIf46DotJzHQ/1BlH+jAMcwtwLT18L3YGNJh7GwtDMspscDp6S4zPcUOT7A4AyCKUEgrGVG6oPUBFAIAEAWzk2ckzkmcszlGcozFGYozFGYozFGYozFGYozFGYozlGcozlGcozFmYszEmakzU2emz02aizVWYqzFWYuzV2euzUmegzlGZ6QZneiSZHrmTcBIM5w4dV+PdCLgrMnEn/yQ//aAAwDAQACAAMAAAAQ88888888888888888888888888888888888888888888888888888888888888888888888888888ksI0w808888Ugs0MMMMYAww8sw88888888888Esss8cc4kI0ccI0088AwE8s8888888888884U8888888888888888888888Y88888888888EU8888888888888888888888sU8888888888Ac8888888888888888888888o08888888888o08888888888888888888888s88888888888sc88888888888888888888888888888888888U88888888888888888888888888888888888888888888888888888888888888888888888c8888888888888888888888888888888888oU8888888888888888888888888888888888sU88888888888888888888884888888888884c8888888888888888888888o88888888888s08888888888888888888888888888888888888888888888888888888888w888888888888c8sM88sMMMMMM888sM88M8c848888888888AwkMA0gAgA8AMIEwEcQgwQsQU88888888888wY8YscEA0YQIkgQw04YwwAQsEk88888888840QsQEskEQ4QEwQUIsYgUY80QoM888888888oQQ4IYsEoQ88AIIIYYIc4M04YIYc8888888oo8sckAE88EsMMc0cAss4AIU80QEg8888888E088888888w88488o88888888888o8888884M8c8888888M8wAAQ00w04w8000884U8888848sAAYs0888MMM8cscscsM8MMc8Mss8888888M8MMMMsc888sM888MMM8ccsccMsMM8888888888888888888888888888888888888888888888888888888888888888888888888888888888888888888888888888888888888888888888888888888888888888888888888888/8QAFBEBAAAAAAAAAAAAAAAAAAAAoP/aAAgBAwEBPxALn//EABQRAQAAAAAAAAAAAAAAAAAAAKD/2gAIAQIBAT8QC5//xAAsEAEAAgEBBQgDAQEBAQAAAAABABEhMUFRYXHwEECBobHB0fFQkeEwIICQ/9oACAEBAAE/EP8AxURykBegLpZozRlUDKROPxRlooArZKMWqX3UGwO4LQYM4aZHAcez77+NmJyAmVQQBlVcCW/XRQt6II7EUZuE7PWvPlKatB3vpFjUJCZDokKOaappz2buq/edF+86k959l8p9n8p1vyn0T8z6d+Z9C/M+x/M+/wDzOkfPZ76LPoU+hT6X2rYBsLRKSbGkzSEassBqrIDFWyCKpEW1d1Opxiykqa3n/LK2wCDzLxfBmIPuQHkidOaSb9nCbSTHq/IZrqzrappjmoSWN6GDlb/kRhtSl0Ba6Z1ljK4QqFFiaJLloybycQ4SjCs6wSspLN/YK4RDSvttHGxxa/zPxqg103lj9kCfMCVtBhJ92tvCiz+299mQmBdTiFr/AGf8tboZNK1h1GZ27np3ck5ACI1qgNONVEsC8i9ZNm3ges3xA/ZKYJIdP+0OtfSdA+06C9p0P7TqP2gvX+UE2HTug+w5/HN+fMfaG0DkvaDahyPtNgfIepLguikDHEWIZY2qPlZA4AEBqHTujtC690Q16fhDoNtAp/SSm12BfQUlC2i6LaJ0x7zoj3nUnvOpPedae860951p7zqj3nRHvOkPedA+86l95037zqP3luj9O+DadDxgunS8YJonL5oNonL5IrW7Ar5Pby8r9O7EmYaixlUB2OA0ovVVo3SjdKN0o3SjdKN0o3SiUSiUSiUSiISkE4k1lcwzzQE9pqy5p7TzIl9o6xufwS/V+cC2vdyPr2JkSlauzYsGDfhwYMGjcnTIEaI+RxaqghH6UCI53OiJCN6QgoA2W3rZddnLyv07sScRWr+OJ94ARQPseXlfp3YlcUFIvXJB8Qvx/HpGUYckBXTLx+4IqwJvFHgiTyv07t2W66zxUv49owUG6Gqza+WXtPK/Tu3Z0Ow9d+PSMFTu7Zm+V+nduxrYF/N+PiMxKWKDN8r9O7dmNlteLnmfj0jDhBcrQTF2kKcaq955X6d2JW2l0FFtq/tX8ekYcxDRLHh9mLyv07sS6Bufx5R7e/Lyv07sS65ufx7h7e/Lyv07sS6dufx9p7f/AC8r9O7Eujbn8e6e2/y8r9O7Eupbn8lS/wDLyv07sS6VufySL/y8r9O7EvO/T8lS/wDLyv07sS809PyRK/y8r9O7EvPPT8kmv8vK/TuxLzD0/HzntP8ALyv07sS8u+n4+c9p/l5X6d2JeXfT8eue1/y8r9O7EvIP4+c9uvl5X6d2JeWfx85mu7D5eV+ndiWpy/Hpntt8vK/TuxJ0eX4+kzU4r2PLyv07sSZn+OCYyptvTn2fLyv07uSVp+Opl27tXM+3Zy8r9O7EmNZYJSkQU2IgnD8cGgLCgGVXYBLh2Q5wjxp+SdnLyv07uSC528frUiMWljVpef8ANly5coVq9u/fj/T86nTo2bNm3btww2sZ0x7Toj2nUHtOoPadee0689p9v8J9v8J9r8Jf9vwn2vwn2vwn2vwl7sr+iL3v0jn/AEjo/JK3fq3x2B9G+OyKQZAXD+8e1Gi05hwC4yjpDdgbvAt25fACgAAJy8r9O61Cp7Gi1C73duF2fkkWgK5WqjxQ4qG2BCSkAjy7qpnfoAaRE2gom0XhC+UkilCcopk0K7q+xN5kxesIVydwDQ8wnUA5wo6nzjS1KRJsecSWoc5kdZZHU+cyGy5zIajzmShqNR5zIa1kT1ZCGsAnNJzTJCUhLq+sT2dPjE9jgzhOAl1/lEOn8oh13lEJBk5OOY2ZiR0btHlSI0M7icfR+U+6WdGXThx6nGk1kidik1iI0EP6qAFA7cYfo9pVPEGBiIJUcrCBcADuqkmoUAKrwAWJzxpDXS8QCm8bYTSiM9zYiGnBVl2WoXXa7S3HMaYQwfNPaG7JuLJDeyE3s8E8b+k8d+k8X/yQQUUfZI+yxX9ePs8fZ4r+vFf2or+5Ff3Ir+pFf0Ir+vFf1Yr+zFf2I6ijqKOko6bi/wCtF/0ov+lHRcdNx03Ff2Yt+bF/zIv+bP8ARJ/sJDjuTjgG8lNr3SqwvKr4OkHCAzmKUoWEjRaLWYvPt6hhqFF0yKQuXfilVUFHwA8O6o9bNexBDzuWoQqzEN3LFsjQ1Z0uDWU8464HhN1E1JNAIALS2zFy0VM2qXEpLUrQM2xNl+E8Mjx9ybyk1ywFgEC0FVxUGCuZWv1WV8D4kDj4lgcAQBLW7rZcsapLTAzIVqEo1biVvNBKCgeJjwkoUktMKxexYBCim4Ic2YATheDsZ2/3AUAlABnV0xHZlDVILAshd7WUqscRgbIheZeALzL4qVBLNJAhRMZFtGgmU4owYaLlMTXhEDnYyF4ukNckoVCtbb4VgVJPG6D/ADr0iUsALRahxJWyBswaFgFtRp2aEMz+LJShmtSI5PDrYgShRBRVbDhiS47VP+kweg5ehNVODCEiUApLXU26QgB2BgRACIGxa7NI+37xZR4xi4/QpWiTncSQQArRlaXDDxsBUwuSS6kwlIUUBdBlbwGsBAVNUC6CMN6LzZeYGULVN9X4WuYc4aAVUCSAEMarxBBrb0ZAfqZ1CKdALBha0UXWS7JibREuliDRsPESqxe4KFTWwA/rugMoAWq0Ed+gBMl1JW0vgB0isLVFYkCJvOoFYuCMM4U9oIeWAgGPe6iUwoUNpSI4ggEoEAcglLI/T7SrmB6TIAClDN5Ys7eaoFbAGgbADZEPh+Mo2VpqBoBky1O8Q6tBLEG8KNsCoRup7EdcnT0RfeCYg1CDhy6ap2MEBBgAA3VUSZfn8EOPiCFhAASmubla6G2ii0yC0ZqgrEoZXKn2ihC1RE+Ao0H4roxQbFFVQtQDCNw/CDNZuB6IYZdmC1sBUBkHCNLgIA2BUjFXn/CGEs5RSbVii27NIKLog4pcllVSKVVQDAcg+I2qDZ7UGGzgqBEAaWbIYs4QAoHIe0oIobqMUIkIMEQjYAXizbBagYBobq0RpS/AwKkhfqGMgoxlsxcXgNYXBIUFpQ4qBaCdeyNZulXkVB4PKDgJKCwFDYQLDOBQDJG4DFDTqiyOACtIytvErmtmULpNCaM2A/B9p0Hxjt14P2j1Jgi5hAxQwutQMEXacgKSuH7EJj2Mu1BuQU7od4siyBfh3DjvIqZwUs0EbR0nEakdBeZIygtVtXjDYj4/CUbHq3TIW9/8IQDWIBJDFFR31CBmYQNQJkKXOip2xqGLjY9orDgyUn9BKlw7teiUhhbykpgTYgHlDmubb+CWbbWJIALAY32h2prLqBVqlrvdsx5Lbn+ZbwyXiAAb0zsj8/cG2EhyiXbS9JguBXX0hKrWyl6EMOiIDSpgGgtlODSAIMGBA9Jfor1vJ5QIh0It2gKKI5zdbYvKfe1uKwFAaAYiINdZM4eUpoVtH4oYG86BUEoysEullfHOCPaAUUNj8EAyBsoVoAUUm6rmKuqhTRd2Xd6wBRDcnwhWAJNyVYF3elQbZ89GSyOFVh1V2wYQxvfjEqo22ftKFsN45tgVWZSrcscKrcI9pRAbmD0hpN8I3uBkIUdxLvzsArLLbSx2iS1cl1by8oBWqSyz9RphWQDYGlo6WG6Dlo1CvhFmUcT4wGKGCshigU8YVpFg9aXoNisJdVwjRmrr2TGix6nmBd4FSyUQFoViHMvBhx2VUNUgXxr8YeAQhkR0e5LUuybrVXQvRo7RdssamLWclhZ8UNkAfvj1GA4xwkHgIPnCr7yiaKwJHeU2MP75MGkUJTV6MawuCcHygWA4194kbZTEDNALONWLFqldlJOCCsUjpBALwCBAiU0LNznSBSNAMyiFh0ch5ijZrAgBCnW0+8QR5gG8MEKWmG4bBQFra7XfHbC8P7i3ykCsBdBtYFGJTFSYGqLrAVBbPyfOY2jbGxT+4vkcCii2mhWXF3thI4WiLf3c0X8n5zFXR0FgG7WqrN1Bcu3NXcRtUrWWClZwfOBomRVBY6munCKUimgYWS7DyQQWm9N+cSUBxD7yoy4YVSGTWB4WaRa6tid0A7ARRuhOMhvIRkQHzlNMSOegc6Wri74CqDTAjxVG9Qjv1xFm82ywje0smOVxg7gGFNjl1gHkT5ytEztwvdnEsM4sNbKybyi9nejrDcBVYGINYXAILk8/7iV2/D7xAXY+RlMORecBujpVV9qvxEPGCnIzdgPEDxdyVEKpsLoZo1i8yrAXESYu0TfffAnkUCGCQAvWrVVVWBmPEF7z6f5T6j5T6v5RX5zAFqzghQFDC0DPA3QfkcY1UtI3ZsuzSEH4XZFrWAbADZHBjaAO8RsgngVaAZVbKOMEkoEBVugJWaqXpCsJzT1Y6saCyWbazjMdcu7RZAGLrfFrSC0ma61uxlvQqOFcCURKRR0TCRsTm8Qaq2UBtlJnesUZNgw6Xdt4h2PEb6s0z1UVGgZwG6FP4VGrWsKZ46NmIx85mQCt0y24xDcKWpFm5zAdROEBlbBXOGDWnFCIE1AbMtqsHwvNPVjdxAULQUZW8AHhB3x5inXuLwO24IoApK8VVcBV1UEDWll5iuIJwAtbBWIuUeAotT4GMVmGMeM31YyyUJI7Vu1hHQVj30NMCM41s0YLWA1K/tKyt5JFsqy6avi/uFfI1JIiNam2yPshFSpDodVvIhQBHQyIQJkRuxi4KVWwq7buLt3lgsxUywjZWSnMUY4RQiXYq3LnIqqQXVBaLon1OfVezyvyfmMAxweYJLCBoYF4lATStLNhiDSBTzEXolBNUaP3Pn3FhPxVeC5N1A7OLFMQp1EGvYMhrCqNMoLArHoKIGfpvnhX2EFCoI4FXswwfAh2MoaBVsdMtVicc5/JCctvPeuCgbGMCnUlrmgt6WJ9Z2ClbiYYKAWgAPKBoDSkEDaKA8eMH4hzcLQKwXV3mrmZODLKFSgKBVriygrr+UF1allAW6kWaIwsBVcgcBm4MBRQGP0zHWPo2yuAbhvNlSEZgVKBWhavjNFyWL1nnAv1ZszsdeHgmizhBQBaAzyYspLn8k6xi3sdIehBWrSnS01xZjoI4fJC8zm/vM1qseqd40WSiGaBD9QrQ5P6jDHXSAB7XHF0CeIMTKoWVbVcaQAqznAfkc294x76CJT0cJ4y1Eg5JjswClDWrxpCrqFumo3v9eYw0EqwGEmi5m1uWTaG3C7AMHjFSuaQL7HNasUw1zg6ZCwJsrVYL3GkC/VV7PQYOraUVEo5CtYpP/5Zq0yyNONIqYxJ2Hbz3CFoenQ70A2pU3rLCKkPE8geEosXgVcUxQfe4u4l4QDagOVovAWXKEKrXAGVD40qccSbcgg5JdtMFQ2iyIGy5sK9X7w8Fqhq7XOysmxgAjUYwQvoLIARlhBKo2ycmMMYqiCxRRZMtW+JXlommU5sJMpxDeS60Dls3Vl9TWqMeJAerQL6DItgwYKnUzS7PElSbWIUCxQqim4agGqTG2TsTY/7jUuWLEypMjMbOxknZlE7AJldDhtDUtISBaOQxiX6AXIW5MCoa4/UNssjshkDRR2tKH5hSGkBxTRu111sgCm+uEmBefAUv3MG2WEQ3XjpMtOgcLgNBo1wazHtpsF4rSGz0PfE4FWvG7wAGdqDcL0Lx4BKoDTRHzTNuef62BhQXWIUynJhoxADn/XBqFqUi2kPm4esaM3hQvfe6GOBoFta8pHNvjOWO3gD+k7gsuXG3Zjngc3t7DKsLaqvyiurc/ii+rwL6yi0Ivr/AKyFfi058esIMGCAYB7IZuAARAi6BTLmlfpfgZvT8T2nTXtOuvadRe06i9p1F7TqL2nXXtHZLzD2hzZ7k+7GHDBMbcGwGoiyND/oYIQMGBBcPdpxZsBpFV9guQM4HpIB6TAehSA6Hy+KA6By+KHHCggDcBpDmsGC2gRza+MaxS5NtXN/vnO5ZLVoNvQDiwBiEzd+29pbRwDubKiM3jasW5V+H+gqnpr7ujMBRSO0i0gAo3rW5q+R/u9KE3VofksN4oSYSqwAarBUJjQ1AW9qJdyGITDxvVUK8U0aABPDR42bP+VozAtvYJSC5GUBpjP/AE4JUNtIPjX6Q7uxdo1ooKLuEv8AYlO7QBX0iJXma168FzFvg2UoWU3TtQQ4t7IUsqCwAKBTSHs3tecjkqTv0BsAUyUmHO7uANgBEzrXA4Ld8RKbTVUbquqMTVChoaS8eaNBNviiXEc8Rxx5wYJRMUNbdcx2co7CbdqZrdOzQoOx9TAAI1AmNAXvA7NkWoAteAH4SzQpDYgp4Nnh/qqy1j2ORcg5AcPYcApkANO/M0BcgJXcqlSucrnK5yucxxmOMxxmOMxx85jj2WRDVP3PsifcE+5J9cn1yfQJ9An0SfXINp+0gun7icQ/csl85Z2gLQG9a7L59mysaNQFrmAZfqjNGiAG4Sc3+jBwTZigLKAYC9SqrKtfDeKdfAeN92TZ7/s6x+7j9vH76P30fto/Yw+1h9rD7WH2vYaffw++l9tL7yX38vv5Oqbmy1JOZJ1D841apGrq3OXaFlTq0OrJzl1J+caPWDu1m2L1tZNTWDV1nVtYlTWEW1/VBfWMpr+yS2sqtrBt2h4x7uZp0md9UONY0f2gGnjTJWFNLT1l5whnqgIRS4FeMGWBTKoYSTMggRqxzuRlwwdhM2AwCryzdamarrt7VatwLDOWUWD0t/Vw2qzT+inxhHksDS1JqpQAtjg0H+pENPnAH7Hj2USiYqQk2SBtsaXMVKNm4oxLVgCjjtr0vl0GswVutGaKzAKFDaBYAgFqla2YxVXcSz2G2UiixvcVSbLhFCw50AN3pApV5FeNsIZ5FGAoQ2OH92WRa8hWNqDKN0o3SjdKN0o3SjdKN0o3SjdKN0o3SjdKN0o3SjdKN0o3SjdKN0o3SjdKN0o3SjdKN0o3SjdKN0o3SiUSiUSiUSiUSiUSiUSiUdrMLbZUwDtoF3Nmz/UBvhXSKHIBKARwJeSBalufSKb8/E9JT1CDEWcBB2jtDTLRlEzQAC6MWl1resYZdt2d0oaXmjHCf3DjO+imB2JeR4lMMjQqbYGAicA+P7zL1NnIqrs3dYvWsXBrliyUQUKrLo21d6R2yABpB3xshAhQ4tUqVKlSpUqVKhQoW7OnTKlUGbHsEZEi3tA39MtpRaUKj2pjh+P2WneOnS2nKdPRuUqGj8pqoxtjTWxtS6QA07kV8Wtq0No2qqrtX/5If//Z;" vertex="1" parent="1">
          <mxGeometry x="160" y="488" width="221.01" height="190" as="geometry" />
        </mxCell>
        <mxCell id="mYIh2JkVeHM76ZporqHf-12" value="" style="shape=image;verticalLabelPosition=bottom;labelBackgroundColor=#ffffff;verticalAlign=top;aspect=fixed;imageAspect=0;image=data:image/png,iVBORw0KGgoAAAANSUhEUgAAA4QAAAKpCAYAAADkC+JnAACAAElEQVR42uzd958ddd3//8//cHkpyqVX8+rF9N57QnrvhYRU0rNJNr0nu8km2TQuUIpgEERQkCZSBYRIF1F6JIJoUKTm+nG+Piff914zs+fMOWfaTnn88LgFkt2zu2fP5v265z3l//3v//6vRURERERERMXr//EkEBERERERAUIiIiIiIiIChERERERERAQIiYiIiIiICBASERERERERICQiIiIiIiJASERERERERICQiIiIiIiIACEREREREREBQiIiIiIiIgKEREREREREBAiJiIiIiIgIEBIREREREREgJCIiIiIiIkBIREREREREgJCIiIiIiIgAIREREREREQFCIiIiIiIiAoREREREREQECImIiIiIiAgQEhERERERESAkIiIiIiIiQEhERERERESAkIiIiIiICBASERERERERICQiIiIiIiJASERERERERICQiIiIiIiIACEREREREREBQiIiIiIiIgKEREREREREBAiJiIiIiIgIEBIREREREREgJCIiIiIiIkBIREREREREgJCIiIiIiIgAIREREREREQFCIiIiIiIiAoREREREREQECImIiIiIiAgQEhEVrwsXLlifffaZ9emnn1off/yx9ec//9n68MMPrT/96U/WH//4R+v8+fPWH/7wB+v999+3e++996x3333X+u1vf2vn/O9z585Z77zzjt1vfvMbu7ffftt66623rDfeeMN6/fXXrVdffdX61a9+Zb3yyivWyy+/bP3iF7+wXnzxReuFF16wnnvuOevZZ5+1nnnmGevMmTPW008/bT311FPWk08+aff4449bjz32mPXoo49ajzzyiPXggw9aP/nJT6wf//jH1v3332/de++91j333GP96Ec/su666y67O++80/rhD39o94Mf/MC644477G6//Xbr+9//vt1tt91mfe9737NuvfVW65ZbbrG++93v2t18880tmd8zf65fld5H76v0OMo8rtLH0cfTx9bncvfdd9ufpz7fBx54wHrooYfsr+enP/2p9bOf/cz6+c9/bj8PL730kv38/PrXv7afNz2Hej71PP/+97+3vz8fffSR9fnnn/M6JiIiQEhElKc05AtngplAJgAIYgLX2bNnbRwICcKCgZVQ9fzzz9ugMpgSMJ544okWRKmHH37YRogw5Uy/rwQtvZ3eR0gRwvQYBmV6TCFNj6+PI8AIcEofW5jR56GcwNPbOT8v83h6bH0cJ/Scn6PAJzgZ9N13332t4GfQZ8BnsFcKesLd6dOnre985zvWTTfdZN14443Wt7/9beuGG26wrrvuOuvaa6+1++Y3v2ldc8011tVXX239z//8j3XVVVdZp06dsk6ePGmdOHHCOn78uHXs2DGrubnZOnr0qHXkyBHr8OHD1qFDh6yDBw9ajY2NVkNDg3XgwAFr//791r59+6y9e/dae/bssXbv3m3t2rXL2rlzp7Vjxw5r+/btdvpv/Z7+TG+jt9X76H31GEqPp8fV4+vj6OPpY+vz0ueqr0Ffl75ePQd6bvRc6TnUc6vvp74Xer0I5oK6AP+73/3ORqZed/pHAn4OiYgIEBIR1ZiG6Q8++MDGm4bsN99800abdsEEJIFICBJ+hB0hRztGGtqFGMFFYBFWhBbvzpTZjTK7UM7dJyUU6bGEJGFJjy0MKCFKmBKq9HEFBGEryyDU15c2EDY1NbWgMCkQ6mPqY+tz0Oeiz0mfm9Lnqc9Xn7c+f30d+nr0denr09f5rW99y/6a9fVff/31dnqO9PwZUC5ZssRas2aNtWXLFvvz0cfSY+l503Os74W+X/reCpvaCdY/YOjnQTvQ/P1ARAQIiYgy0SeffGIPsTo0T6DTDpxgIwQJLMKJsCV0CBcaiDVca+guNXhXM3zrMYQS4URIqQWEThTGCUKDwrSB0OwSphWEKosgdL4m9bx94xvfKNl///d/+/Zf//Vfdp06dbJ69eplDRkyxBozZow1depUa968edayZcusdevWWdu2bbO/Pn3++rz0vdH3Ud9vvS70+tE/rOhnUruZOrSZnUwiIkBIRFTV4Zc6F07Ae+211+zdC4FG4BAmBAYNwBqWNVybId4M3WEHb0CYDAjNLmEaQSjEFR2E3v7zP/+zbP/xH/9Rtn//939vSf/fuXNnq3fv3tbQoUNtaE6bNs2aP3++deWVV1obNmywn1M9X3ou9DXq+6/XiV5Pet3p9al/9NGh2Do8W+fS8vcmEREgJKKMXAxF5zzp0EwNdMKGECEYaIDVcKtBWAOzMw3RJgM+kxOD1YBQxQlCJwrjBqGeuzyAUM9DnkCokgChyhoIvf3bv/1b2f71X/+1bP/yL//iSp+DdjT79OljDRs2zBo3bpw1Y8YMa+HChdbKlSutjRs32t8nPf96XvV86TWm16Jer3pd6x+e9A9Q+oco/T3FxX+ICBASEQU4dFNXsNS5SIKFwCAEaPDSwK6hVwOwGcSdaUA2xQ1CM3ynEYQqjSB0Xjk0ThCqWkCo74VBYZwgVLWA0LlLWC0IK70uS4HQ+bosMghN//zP/1y2f/qnfyrb17/+9ZLp69aOZt++fa0RI0ZYEyZMsGbNmmVDc9WqVdamTZvs77u+l/oe6bnXz7pe6/q50M+PLiCli0rpir+6yiyHzRIRICSizKd/PdeAIzwIAhrmNZiaYdtkAGYyGKwEQi8K0wTCUsN3FkFoUFgLCM0uYVpB6MSgE4LmdekEoPM15nxtGbxlHYR6zgBheBCqf/zHfyzbP/zDP5Tt7//+70tmoNm1a1erf//+1mWXXWZNmjTJmjNnjrV48WL7QkBbt261Xz96Teh7rte+/s7Qz5N+9vRzqivO6rYmHDZLRICQiGK9AqcucS8QaBDRgK6hVAOryRzmZmprEFYavLMIQmWuzmnwpMfVx9DH1edgcKTP02BBn7++Jn2N+pr1PBj0CC+CjAZP7XLo3K21a9faux46l0uD6YIFC6y5c+faOyI6z2vy5Mn2DonO+xo1apS9Y6ILjgwaNMgaMGCA1a9fP3snReeH9ejRw+revbvVpUsXe4dFdezY0a5Dhw5W+/btrXbt2rUARQOyExBOEHgHfucQ7x3Myw3hpr/7u7+LpL/9279t+W/n4ztBoM9Ln6MBib4WfV36urt162Y/Xzp3Tq/VJEFYCYWAMF4Q+r0O9bry62tf+1rJvvrVr9qfq75/em0NHDjQGjlypP0zq5/hpUuXWnV1dfaFgPR3pF5jeu3o7xD9vaJ/xDFXm9XtcXSkh26hw24mESAkooKle+fpqoDa5RFsNJCaXRZnRQKhQZXeRm+vx9Fj6vHNLpJwpZ0i4Uqw0r/wO1E1e/ZsG1QTJ060MaVBTRfU0NAmQPXs2dMe4nQOlKBkcKTB1wkf76DpHCCdg+Hf/M3f2F166aU19ZWvfCWRvvzlL1dVEh8jri655JKq0/dKu0Ua2AEhIAwKwnKZvw9KVenvA/2q506vGV1xlnWSCBASUc76wx/+YB8aqN0nDZcaPk0Gg3GB0IvCqECow/X0r+Da9dKAvXr1amv58uXWFVdcYcNsypQp9gUntLulnS2BTDtZ2sHSzo2GWw2cGgQ1oJUauLzDVNLYSVttja+0V+1zqF+1u6rXf1gQ6h90AGH1KEwLCCuhMGkQOtPXxLpJBAiJKAfpMCCdF6ZDDjVompwYbEsQCn1CnW6mrXud6Z5ngpzOsdG5NkKcDkfUbpqGVA2BGsw0FJXDWRZglDbk1bq7mJbdx6w+P84EhvXr14cCoX4fEALCKEGo55c1lAgQElHG00U/NFCawyKTAqHAJ+RpyF20aJF9g2vhTudQ6VA5DagaNjQoldqB8xtoqPr8hsao4nmOJg3/K1asKAnCcle/BYSAME4Q6nXDOkoECIko4xkIRg1CYU/nzOm+X4Ke7gWmC4doGDSHXvoNM3ms0rlAfgNete9T7ccIUpG+V2lNPze60E8QEOr3ACEgjBKEOqyedZQIEBJRxtMQGQSEgp8umrJkyRL7HLzBgwfbO3saBDUwVbqyI0VfVFfLrDSUxv1xwnxuflX79mE+RhIQ18+Xbl0BCAFhW4OQi8oQAUIiykEaHiuBUADUBVl0VUxdBVM7fRq0/AamIPkNWaWq5X3CfJy2zG+4zGO1ADjI+2QB7tXAVj+D+rnkkFFA2JYg1K1lWEeJACERZTwNjaVAqAu56MItOtRTQ1qlocpU7RCWt6odJoNe5j6LlQN5lP8okBTIq8VpUNzWmh5fNy1nhxAQtiUIhw0bxjpKBAiJKOtpWHSCUDcm143FnTcDz1N+A2Wtg2bUVQPtWofdtAA5LVWLzraCajlIlHpbvTZ1CxZACAjbCoQ6YoR1lAgQElHG+853vtOCQd08XcOf35CXpvwGzlqH0CDDadpwGxeI04roNEM1qV3YWbNmAUJA2GYg1O+xjhIBQiLKeN/97ndbQDh58mTfgbGazAAZ5H0qDZ9hyxNugxQExFEiOovorAWeYbAaFJ76edG5hIAQELYFCPVxWEeJACERZbxbbrmlBYS6RYQuVhGm9u3bl6xdu3aRFRatQaHqV5D3CQLgMGhOCrJtic5qMZGXQ4z16+bNm6sCof4fEALCKEGoj886SgQIiSjj7dq1qwWE8+bNs+8rVU2dOnVqVceOHWvOickg7xMWqlEXJXyDgjgMOsPu1Ea9OxrljmoWoBoEPPq5bSsQ+n3PAWH+Qaivl3WUCBASUcbbsmVLCwgXL15s30tQdenSpWzmbbz5vU+pqsVnJYgGeZ9KhcFtUBBXi9m4dlXD7sTGvTua9OHCSaEzLCIvu+wyQFhhZxYQxgNCPX+so0SAkIgynu4vaEC4cuVKq0ePHlb37t1rrlu3bhUL8j7eymHUr1qhGqQgsA27o1qppHdUkzr8Nyl4ZgWQgwYNqgqE+m9AGA0I/VCYFhD6oTAqEOp5Zx0lAoRElPHq6+tbQLhu3TqrV69eVs+ePWtKiKy1uNDZVoCMarczzp3LOEFYdAy2JQh79+4NCAFhm4BQ33/WUSJASEQZb+PGjS0gXL9+fc0YBIRgMG8gzNrhpXoNAkJA2BYg1M8x6ygRICSijLdhw4YWEGq3EAwWe3eQQ0WzB0I9N9WAUL8CQkAYJQj1dxnrKBEgJKKMp11BA0JdYCYsCAUXDT4a7MLeN6/ccOkcHisNnVHfv6+awbaax4vzKpiVHs/vY5YawtNwJc6wRX0PxFquCJrExWeuvvpqQAgIEweh1gDWUSJASEQZr66urgWE27ZtC707qOHFOzQQFTn9TIQFYSXwHjt2DBACwsRB2K9fP9ZRIkBIRHkC4c6dO0ODUENIucHYb9AoN3BEUZIfqy0/dlq+ziSx1RZfa63pZyLuW1McPHgQEALCxEE4ZMgQ1lEiQEhEeTpkdM+ePaHPHdSAUi3+iPJeFCCs5pBY/exWAqEChIAwShDqHpiso0SAkIhydFGZ/fv3hwahOWQUDBC1BmFc51zqcG9ACAiTBuGECRNYR4kAIRHl6bYTjY2Noa8sqqFHg4LfwEFUhLwgjPMCPJs3by4JQoNCQAgI4wDh9OnTWUeJACERZT3njembmppCg1ADkdkhrDQwf/nLX7YuueSSlr70pS9VnfP9whTHY5r09VUq6ser5WNG9Ximas6ni+Mxa/m4YR8nrSDUP+z4gVC7hDfddBMgBISRgnDu3Lmso0SAkIiynnYWDAiPHj0a+r6DGpSqBeFf//VfW3/1V39FlJlqQaEThHHfnmPdunUVQcgOISCMGoSLFi1iHSUChESU9XTvQQPC48ePhwahBqkgIPzCF75gF3ZgN4/jDMhQ3kG4evXqTIHQD4VpAWElFALCr1irVq1iHSUChESU9XQxCgPCU6dOhcJgUBB+8YtfzOw5Yt6ifrxaivrxqhkIo368MLfXiOv2EzqcOGkQ1oJBtWLFCkAICBMHoU45YB0lAoRElPF27drVAkIVBoNKw1dRQEjFSK/ntINw2bJlgBAQRgJCPxR6Qah717KOEgFCIsp4un+ZE4R9+vQJBUINZtVegAMQEiAMj0Glc7kMCFU5ELZr1w4QAsLIQKgrU7OOEgFCIsp4uvegE4T9+/cPjEGloQ0QEiBMDoTC0Pz5810gLHcvQkAICKME4cmTJ1lHiQAhEWW9hoYGFwgHDRoUCoQa6DhkNL7MLQzKDeGV0uDJ85heEAbZHRSGdPl/QAgIkwahXmeso0SAkIgynu496ATh0KFDA2NQadAzICw3jJicIKz0tnQxDdph3l+DP89jbTlBWM3r2jl01wLCoBhUM2fOrAqE7du3B4SAMDIQ3nLLLayjRICQiLLesWPHXCAcMWJEKBBqEASE8aShvUuXLjXXqVMne6jUY2iHiOcyfyCcNm0aIASEiYPwrrvuYh0lAoRElPV0qwknCEeNGhUYg0oDIiCMp8GDBwdOKASE6QVhGAyqyZMnA0JAmDgIH3roIdZRIkBIRFnvmmuucYFwzJgxoUCo4dEMC4AwHhDqwj/du3e36927t/17Xbt2tX/VVWL15wMGDLC/H+Z9OnfuDAhzDMLx48dXBcIOHToAQkAYGQiffPJJ1lEiQEhEWU9DoxOEGiyDYlBAAYTxg1DoM0O8BsK+ffvaw6b+TDtAvXr1sqGo4RoQph+EYTGo9A85+scdQAgIkwThM888wzpKBAiJKOudPn3aBcJJkyYFAqHZsdJgCQiTO2RUQ6bwBwiLDcKRI0faICx1c/q2AmElFALC7IPwpZdeYh0lAoRElPVuvfVWFwinTp0aeHdQCRyAMF4Q6vnW4KlBUQPtwIEDAWFGQRgFBtWwYcMAISBMHISvvvoq6ygRICSirPeDH/zABcIZM2YExqDSwMlFZeIFYceOHW346bnWsG52CvWrwAcIiwfCIUOGVAVCvXayDEI/FKYFhH4oTAsIK6GwWhCePXuWdZQIEBJR1rv33ntdIJw1a1YoEGrgBITJgLBfv372sDho0CB7INaQqoFZg6yGT11Z1AtC7kOYHhBGhUGl7zEgBIRJg/C9995jHSUChESU9R588EEXCOfOnRsYg04QmkHYLwPCL33pSxXflr5m7wIpAVCZ/xYG9KuAqF91CKmuNGreXul+hBreNVDzXNaWBmEDQg3L1b5fkiDU9xwQAsKkQXj+/HnWUSJASERZ77HHHnOBcP78+aFAqF0pQBgvCIMkCGiw5HlMBwijxKDSPwBUA0L9fAJCQBgVCD/55BPWUSJASERZ78yZM9ZVV13VAsKFCxcGxqDSoYmAMJ40LAt2Gup1yKj+Wzt/5mbj+n89/zpPUL+vcwz1ZxrMwWC2QeiHQaVbjwBCQJg0CC9cuMA6SgQIiSjrPf/889aJEydaQLhkyZJQIBREAGF8aTjX8C70CYAayM05hQaEGkj1Nt26deMQ0RSCMOrdQaV7UwJCQJgkCPV2rKFEgJCIctDLL79sHTt2rAWEV155ZWAMKiEEEBIgLA3CODCodGVZQAgIkwShHp81lAgQElEOeu2116zDhw+3gHDFihWRgVBDByAkQBg/CHv27AkIAWGiINTnxRpKBAiJKAfpPlIHDx5sAeHq1asDY9AECAkQtgZhXBhU+rmrBoQ6pBgQAsIoQKjngDWUCBASUQ7SfaQOHDjQAsJ169aFBqEZHAAhAcJkQKideUAICJMEoZ5X1lAiQEhEOUj3kdqzZ08LCDds2BAKg8oMwtWCUH3hC1/wTW+bxr74xS9WXVSPU01CtorqcYIW9eOZLrnkkrJF/XjO12lQEMaJQaWLOQFCQJgkCPW9Yg0lAoRElIM++ugja+fOnS0g3LRpUygMKg0bZhD2G2ScgzZRFtJr2+817cz5cxA3CHVuYDUg7Nq1a+pBWAmFgDAdINRrhjWUCBASUQ76/PPPrW3btrWAcOvWraFBqEGkGhBq5w9kUJbSUFwrCPVrnBhUuuUIIASESYJQ9zllDSUChESUk7Zs2dICwh07doTCoNKQYgbhancISx1GWekw0qQLAoioHoeyu0OYBAh1X0pAmG0Q+qEwLSB0olCvJdZPIkBIRDlJh4kaEO7evTs0CDXA1AJCncNV7ZBN1Q+GUT1OW+c31HqL+vEM6pIEYa0YVEJbNSDUxWcAISCMAoS9e/dm/SQChESUlzZu3NgCwn379oXCoNJgAwgpL2lATgqEQTAo8AhmgBAQJgnCgQMHsn4SAUIiyiMIGxoaQoNQgw8gJECYHAgFLEAICJME4bBhw1g/iQAhEeUl3WrCgFA3qQ+DQaWBCBASIKwNhEExqPT+5UCoACEgjBqEo0ePZv0kAoRElEcQHj58ODQINSwBQgKEyYFQ/+0HQrNLqJ9PQAgIowDh5MmTWT+JACER5aW6uroWEDY3N4fCoHYgNEhpYNBgAQgJEH41Vgyarr76akAICBMD4cyZM1k/iQAhEeWl9evXt4DwxIkToUGoIcsMwn731nKC0O/tiNoyLwirfT9zP86kQKifX0AICJMC4fz581k/iQAhEeURhFdddVUoDDpBqMECEBIg/GrsGFSnTp0ChIAwMRAuW7aM9ZMIEBJRHkGoevXqFRiDSgMYICRAmCwIT548WRGE+sceQAgIowDh2rVrWT+JACER5fG2E6pPnz6hQKihDRASIKwMwqgwqI4fP94CQgUIAWGcINyyZQvrJxEgJKK8VF9f7wJhv379AmNQaaADhBRlGsBHjRplTZ061Ro7dmzV6dL4HTp0KAQIdUEoJwi1SxgVCP1QmBYQ+j03aQFhJRRmCYR79+5l/SQChESUlzZv3uwC4cCBAyMBoYYHQEje/ABh0uDvfJ8JEybYwOvUqZPVsWPHmhJa/IbttgJhlBhUR48ebQVC783pASEgjAqER44cYf0kAoRElJe2bt3qAuGQIUMCY1Bp2AOEVK527dpVTABx7g7OmTMnEAaVsFML5NIKQj8MKt1DtBIIe/bsCQhzBkI/FMYJQl2AjPWTCBASUU7avn27C4TDhw8PBUINgoCQogKhBnMdKhoEgwaElQ5fThqEUe8OqkOHDgFCQJgYCG+88UbWTyJASER5aefOnS4Qjhw5MjAGlYZEcw6h3/DzxS9+0R6yL7nkkooXW6D81L59+4oJKObtNZhPmTIlMAiFmUqvRb80PBsQasiu9v3KgTAODKqDBw8CQkCYGAhvv/121k8iQEhEeUkXB3CCcMyYMaFAqOESEFJUIFS6OEwQDOqCMhrCNVTnHYQNDQ0VQahbygBCQBgFCO+9917WTyJASER5af/+/S4Qjh8/PjAGnSDU8AAIKYoEEnOxmVrSsKzht5pL/icBwrgwqPRzfM011wBCQJgICB999FHWTyJASER5qbGx0QXCSZMmhQKhzgEzQwMgpCjzG7TLFWZ3MEsg1E6/QFjq5vSAEBBGDcKnn36a9ZMIEBJRXtLVCZ0g1AU8gmJQ6ZA/QEh5KSoQxolBtWfPnoog7N27NyAEhJGA8Pnnn2f9JAKERJSXjh8/7gLhjBkzAmNQ6bwtQEiAMFkQ7tq1CxACwsRA+Mtf/pL1kwgQElFeOnXqlAuEs2fPBoREEYIwbgyqHTt2AEJAmBgIX3/9ddZPIkBIRHlJw6MThPPmzQuMQaUbiANCAoTJglD3Ew0DwkooBISA0AnCc+fOsX4SAUIiyksaFp0gXLBgQSgQdu7cuWVo8LughwGh+sIXvmDfqF7pv4NmHqOWwryvN31NlYriMcr1pS99qWRRPEbS6R8Kai3M+3r78pe/bKfvSdIgrBWDauvWrYAQECYGwt///vesn0SAkIjy0s033+wC4aJFiwJjUHXp0sW1Q1huMHKCkCgLafiu9uqmetsgIAyCQcFm8+bNFUHYp08fQFgDCtMCwkoobAsQfvjhh6yfRICQiPLSbbfd5gLh0qVLQ4Gwa9euVYFQg4d5uyCZHRxTFI9RS96dpDCPEWTnKopdsDA7dlHsAobZpQyzk1put7bS22swTysI6+vrASEgTAyEn332GesnESAkorx05513WldffXULCJcvXx4Yg14QOgeQSgNKNQNNucHHvK3fnzvzG6LMn1cauCoNaJUO86qmagbCSgOk35BZbdUOrpXertJhltW8TTWDdaVBvBLmgt7zMCwIg2JQbdiwARACwkRAqF9ZO4kAIRHlqPvuu88FwlWrVoUCoQqz80eUpZy7JqVKCoR1dXUVQdi3b19ACAhDg1Dvz9pJBAiJKEc99NBDLhCuXbs2FAadO4QaLqodVmodaCr9ebV5h6Fahqdqhqtacg5e1Q5rtQxz5u0rvY0TO5Xexosjvz+vBVJ5qVoQhsGgWrduHSAEhImAUB+TtZMIEBJRjnr88cddINROQ1QgrOUiHERhDuGs5ZDRIIehVntIqxngzc+ABvMkQLhmzRpACAgTAaG+DtZOIkBIRDnq5z//uXXVVVe1gHDjxo2hMAgIif7BdXhd3BhUOtQbEALCJECo54y1kwgQElGOeuGFF6wTJ060gHDLli2BLybjBaGGEnBARayWQ0ajAOHKlSsrgrBfv36AEBCGBqGeU9ZOIkBIRDnqlVdesZqbm1tAuH379lC7g8oMDoCQAOFXY8eg0tWBASEgTAKE+t6ydhIBQiLKUa+//rrV1NTUAsKdO3eGwqAy9xjUUOI3OBHltWoPGY0KhMuWLQOEgDARELZr1461kwgQElGeeuedd6zGxsYWEO7duzcyEGrwAAcECOPFoFq6dGlFEPbv3x8QAsLQIOzcuTNrJxEgJKI89f7771v79+9vAeGBAwdCYRAQEv1jVYeMRoVBtXjxYkAICBMBYY8ePVg7iQAhEeWpDz74wNq9e3cLCA8ePBgahBo4ACEBwvIgjHJ3UC1cuLBNQOiHwrSAsNJzBwhrA6EOPWbtJAKERJSjPvnkE2vHjh0tIDx8+HAoDAJCov87ZFQDdtwYVFdccUVZECpAGC0I/VCYdxAOHjyYtZMIEBJRnrpw4YJ9qwkDQl1xNCwINYyYYRgcEOcQxg/C+fPn+4JQu4SAsFgg9ENhGBCOGDGCtZMIEBJR3tq0aVMLCE+ePBkKg0pDCiCkIuc8jzZuDKrLL7+8IggHDBgACAFhaBCOHz+edZMIEBJR3qqvr28B4VVXXRUahBpgNDhogAAHxA4hIASE+QHhtGnTWDeJACER5a0NGza0gFD17NkzMAYBIVHpcwjjwqCaN28eIASEiYBwzpw5rJtEgJCI8tb69etdIOzTp08oEGq4MSCsNFQR5bFSO4RxgnDu3LkVQThw4EBACAhDg3DRokWsm0SAkIjyDkJdfCIoBpUGH3PZfXBARcx7DmGcGFTatQGEgDAJEK5cuZJ1kwgQElHeqqurc4Fw0KBBgTGoNCwBQmKHMDkQzp492wVCg0JACAijBuHGjRtZN4kAIRHlrXXr1rlAOHToUEBIFAEINWDHjUE1a9askiB03pweEALCKEC4fft21k0iQEhEed8h1H2mgmJQaQADhMQho8mBcObMmYAQECYCwsbGRtZNIkBIRHkH4ahRo0KBUMMZICRAGAyEtWKwWhDqUHBACAjDgvD48eOsm0SAkIjyftuJcePGBcag0uAGCIlDRmsHYRAMCi8zZswAhIAwERDqtcW6SQQIiShn6SIBThBOnDgxFAg11AFCAoTJgXD69OmZAqEfCtMCwkooLCoIb775ZtZNIkBIRHlr06ZNLhBOmTIlMAaVhj1ASBwyevFenHFjUE2bNq0iCAcPHgwIAWFoEN51112sm0SAkIjy1ubNm10g1G5DGBBqSDQg9Bu2iPJakHMIw4Bw6tSpNgjL3YsQEALCakHoh0K9ph988EHWTSJASER5a+vWrS4Q6hL2QTHYpUsXe4AEhAQIqwdhGAwq7eoDQkCYBAifeOIJ1k0iQEhEeWvHjh0uEM6bNy8QCIVB1a5dO0BIgBAQAsIcgvDnP/856yYRICSivLVnzx4XCBcsWBB4d1C1b9/edQ4hQKCigrCacwjDYlBNnjy5IgiHDBkCCAFhaBC++OKLrJtEgJCI8tb+/ftdIFy4cGFgDKoOHTq0gFADEkAgdgjjBeGkSZMAISBMBIS//vWvWTeJACER5a3GxkYXCJcuXRoKhJ07d24BoYYggEBFS0N3NSCMAoNKt4oBhIAwCRC+/fbbrJtEgJCI8taRI0dcIFy+fHlgDHpBqEEHIBA7hNGAsNzHmzBhQkUQDh06FBACwtAgfPfdd1k3iQAhEeWtEydOuEC4atWqUCBUgJAAof85hFHtDhoQXn311YAQEMYOwvPnz7NuEgFCIspbQqCGSQPCtWvXhsIgICQOGf2qLwijxKAaP348IASEiYDw448/Zt0kAoRElLc0ODpBuH79+khBGGT4Jcpylc4hjBqE48aNSx0IK6EQEGYThBcuXGDdJAKERJS3brrpJhcIN23aFAqDygwPGmYAAgHC+DCoxo4dCwgBYewg1J+xZhIBQiLKYbfccosLhFu3bgWERBGAsNQho3GAcMyYMRVBOGzYsMyD0A+FaQGhHwrTAsJKKCwHQj0mayYRICSiHHbHHXe4QLhjx45QGHSCUAMLQCBAGB8G1ejRowEhIIwdhPpcWDOJACER5bB77rnHBcLdu3cDQqIYDhkFhIAwyyDU182aSQQIiSiH/eQnP3GBcN++faEwqMxl9zWUAAQChPFhUI0aNaoiCIcPHw4IAWEoEOr5Ys0kAoRElMN++tOfukDY2NgYCoNOEGrwAAjEIaPxgnDkyJGAEBDGDkJ9f1gziQAhEeWwM2fOWKdOnWoBYVNTU2gQmoEYEBIgjBeD6rLLLgOEgDB2EOq1wJpJBAiJKIc9//zz1vHjx1tAePTo0VAYVBpGzCFzAIGKlvP1nwQIR4wYURGEehtACAjDgLBDhw6smUSAkIjy2C9/+UvryJEjLSAUDsOCUIOK3425ifJc2H8QqQWDgBAQJgVCrQOsmUSAkIhy2Ouvv24dOnSoBYQ6fDQMBgEhFT3nIaNxY1DpCqKAEBDGDcJevXqxZhIBQiLKY++884514MCBFhCqbt26hQKhBhxASIAwGRAOHTrUF4QKEALCsCAcMGAAayYRICSiPPb+++9be/fudYGwZ8+egTHoBKH3xtxERTpktFYQBsGgcAIIAWESINTrjDWTCBASUQ774x//aO3cudMFwr59+4YCoYYfQEiAMBkQDhkypCIIdSXSdu3apR6ElVAICNsOhKNHj2bNJAKERJTHPv30U2vbtm0uEOrQoKAY7Ny5sz0wAULikNFLY8egGjx4MCAEhLGDcOLEiayZRICQiPLYhQsXrE2bNrlAqAEzCAiFQUBI7BB+LVEQDho0CBBmHIR+KEwLCGfOnMmaSQQIiSivbdy40QVCXbUw6O6g0jAFCAkQXho7BtXAgQMrgnDkyJGAEBCGAuH8+fNZL4kAIRHltQ0bNrhAqAtQBMWg0qBlBuJyAxxRXjO3XWlLECpACAijBOGyZctYL4kAIRHltfXr17tAqIsHhAGhBjRASIDw0tgxqHTObykQOncJASEgDAvCtWvXsl4SAUIiymt1dXUuEI4bNy4wBpUGNw3ECiBQ0arlkNGwGFT9+/cHhIAwdhBu3ryZ9ZIIEBJRUUCoq8mFAaGGOkBI7BBeGvvuoOrXr19FEI4aNQoQAsJQINyzZw/rJREgJKKigHDKlCmBMag0DBoQaiADCQQI49kdBISAMCkQNjU1sV4SAUIiKgoIZ8yYEQqEGhQBIQHCS2PfHVR9+/YFhIAwdhCeOnWK9ZIIEBJRUUA4e/bswBhUGiINCDV0gQQChPFgUPXp0wcQAsLYQfjtb3+b9ZIIEBJRUa4yOm/evFAgbN++PSAkQJgQCHv37t0CwnL3IgSEgDAsCG+77TbWSyJASER5zXtj+iuuuCIwBr0g1GAFEqiIIDT/IBInBqsFoW4lAwgBYRgQ3nPPPayXRICQiPJafX29C4SLFy8OBcIOHTq0DMQaJJwDjBlwnAOPGYacw5F3mHIOXGYgcw5oZoDTr2bQ8w5/3kHRO1T6DaJE1abXcrkdwjhA2KtXr1hB6IfCtIDQD4VpAWElFKYdhI888gjrJREgJKK8pvtLOUG4bNmywBhUHTt2bAFh1nMORGZYcg5PZrhyDlvewcw7xHkHvnIgNr+aIdOLYm/egdaLYS+KzRBtMAyK4wVhHBhUPXv2BISAMHYQPvXUU6yXRICQiPLa1q1bXSBcsWJFYAyqTp06tYBKg453SHKCxwkivwHIb9hxwsw51JhfzXCeF6QmieFSKPbmHTbN98dg2IvivO8SlzuHMC4Q9ujRoyIIx4wZAwhzCEI/FEYNwueff571kggQElFe27FjhwuEq1evjgyEGsjSuIvj3BXzGyhLDZDmVydCnIOid2D0GwrLgdg7CFYz7AHidOwSO983bgyq7t27A0JAGDsIX375ZdZLIkBIRHlt165dLhDqNhRBMWgyAEkrCIte0iAutUtcbhguB2Lzq3MXstKQ6xxok4axc4cwThB269YNEALC2EH42muvsV4SAUIiymv79u1zgVBXHY0KhBqsABhlAcbO8yr9MOEHB4HAnEOowTtuDBoQ6ufWey9CJwjHjh0LCAFhKBC+8847rJdEgJCI8lpDQ4MLhLrITBgMKg0WgJCKmFAQBoS1YFB17doVEALC2EH4/vvvs14SAUIiymtNTU32MGlAuG3bttAgNOdSAUIqMgjj3h1U+vkEhIAwbhD+6U9/Yr0kAoRElNeOHTvmAuHOnTtDYRAQEiAMBsJaMah0EadKIBw3bhwgBIShQPjpp5+yXhIBQiLKa6dOnXKBcO/evaFBaC69r8HKb/gjylsCAyAEhHkCoX6ftZIIEBJRjtMA6QThgQMHQmFQA6q5sIaGJ5BAgDAeDAogHTt2BISAMFYQ6n1YK4kAIRHluBtuuMEFwoMHDwYGoTDoBKEGJJBAgDA+EHbo0CE0CCuhEBAWG4T6OKyVRICQiHLczTff7ALh4cOHQ+0OKg04gJAAYbwYVO3btweEgDBWEOrrYq0kAoRElOO+//3vu0DY3NwcancQEBIgTA6Egl4lEI4fPx4Q1ohCQPh/6flgrSQChESU4+666y4XCE+ePBlqd1Bp+NFQrF9BAgHCeDAICPMPwkooTAKEen5ZK4kAIRHluPvvv98FQhUGg8oMxYCQAGG0IPQCRJgDhIAwThDqe8ZaSQQIiSjHPfroo61A2K1bt0hAqEEHJBAgjGd3UAlsgBAQxglCvXZYK4kAIRHluJ/97GcuDKqePXsGxqDSQKWhWMMMSCBAGM/uoBLMKoFwwoQJgBAQBgahzilnrSQChESU45599lnrxIkTLhD26dMnFAg1aBkQ+g2GRHnL/GOIhuu4dwcBISBMAoQ9evRgrSQChESU51566SX7yqJOEA4YMCAwBgEhFTmzQ+gHwqgwqIQvQAgI4wRhv379WCuJACER5blXX33VampqcoFw8ODBoUCoQQwQEiCMH4T6mIAQEMYJwkGDBrFWEgFCIspzZ8+etRobG10gHDZsWGAMKg1vGoo1sIAEAoTxYNDc5xMQAsI4QThixAjWSiJASER57r333rP27dvnAuFll10WCQg1mIAEAoTxgVA/a5VAOHHiREAICAODcNy4cayVRICQiPLc+fPnrd27d7tAOHr06MAYVBrszJUWQQIBwngwqIQhQAgI4wTh1KlTWSuJACER5bmPP/7Y2r59uwuEum9ZUAwqDX2AkABh24FQAUJAGAUI58yZw1pJBAiJKM9duHDB2rJliwuEkyZNAoREEYIwDgxWAqHZJdTPcxwg9ENhWkBYCYWAsDIIFy1axFpJBAiJKO/V19e7QDht2rTAGFQaCM1QDBIIEAJCQJhdEC5fvpx1kggQElHe27hxowuEM2fODAVCDZFmKPY7rIwob5UCYVwYVAIPIEwWhH7fn7SA0A+FtYJww4YNrJNEgJCI8t769etdINQ5I0Ex6AShhgmQQIAwHgwCQkCYBAi3bdvGOkkECIko79XV1blAePnll4cCoQZMDcUKJFCRQRjn7iAgBIRJgLChoYF1kggQElHRdggXLlwYGINKwycgpKKDMG4MKqGmEggnT54MCAFhYBAeO3aMdZIIEBJR3lu3bp0LhEuWLAGERBkEoQKEgDBKEOo1xTpJBAiJqGCHjF555ZWBMajat2/fAkINgECBAGH0GFTCixeE3pvTA0JAGAaEp0+fZp0kAoREVLQdwlWrVgUGYceOHa0OHTq0gFBDHlAgQBgPCPV+lUA4ZcoUQAgIA4Pwhz/8IeskESAkoqKdQ7h27drAu4NeEGqQAwoECKPHoJABCAFh3CB84IEHWCeJACER5T3dZ8oJQgEx6O6gCRASIASEgDD7IHz88cdZJ4kAIRHlPe+N6evr6wPvDnpBqCHPb6AkylPCRK0gDIpBpf+uBMKpU6cCQkAYGIRnzpxhnSQChESU9zZt2uQC4ZYtW0JhUGmQMDuEQIEAISAEhNkE4Ysvvsg6SQQIiSjvbd682QXCHTt2hAahBg9ASIAwPgw6QaiyAkI/FKYFhJVQWCQQ/upXv2KdJAKERJT3tm3b5gLh7t27Q2HQCUINZECBAGE0ICwFDfNz6705PSAEhFGA8K233mKdJAKERJT3du7caQ+TZrDct29faBBqIAGEBAjj2x0EhIAwahCWQuFvf/tb1kkiQEhEeW/Pnj0uEDY0NITCoBOEGrqAAgHCeDBYDQinTZsGCAFhYBCeP3+edZIIEBJR3tu/f78LhE1NTaFBqGEFEBIgBISAMNsg/Oijj1gniQAhEeW9gwcPukB49OjRUBhUGnI0GGuwAgoECOPBICAEhHGD8PPPP2edJAKERJT3BEAnCI8fPx4ZCDV0+Q2bRHlKr/e0gXD69OmAEBAGAqH+nzWSCBASUQE6ceKEC4SnTp0KhUGlAUiDsYYnoECAMB4MAkJAGCcI9TiskUSAkIgKkIZIJwhVly5dAmNQaTgChAQI4weh/gEHEALCOECoz401kggQElEBuv7661uBsHv37pGAUL8CBQKE8WAQEALCOEGor5U1kggQElEBOn36dCsQ9urVKzAGlQYJQEiAsO1BOGPGDEAICAOBUM8fayQRICSiAnT77be3AmHfvn1DgdBcbVGDEFCgooMwLgyqkydPpg6ElVAICLMBQn1PWCOJACERFaAf/ehHrUA4YMCAwBhUZjAGhAQIvx4bBgEhIIwThPoes0YSAUIiKkAPPPBAKxAOGTIkFAg1iGkw1kADFKjIIIxzd7AaEM6cOTMXIPRDYVpA6Pe9SwsIK6HQCUL9Xc4aSQQIiagAPfbYYy4MquHDhwfGICAkQPg3iewOKt02BhACwjhA2LVrV9ZIIkBIREXozJkzLUOlaeTIkaFAqCHNgNBvECXKU14Qxr07CAgBYZwg1MXFWCOJACERFaAXXnjBOnr0qAuEY8eODYxBJwg1tAAFKiIIk8AgIASEcYJQ55KzRhIBQiIqQK+88op16NAhFwgnTJgQCoQa7gAhAcL4QXj8+HFACAhjAeHQoUNZI4kAIREVoTfffNM6cOCAC4STJ08OjMEOHTq0gFCDCVAgQBgPBoWJSiCcNWsWIASEgUA4atQo1kgiQEhERejcuXPW3r17XSCcNm1aIBAKg0pDnwZjDR9AgQAhIASE2QPhxIkTWSOJACERFaHz589bO3fudIFQQ2TQ3UEnCM1w7BxGnAONBh4zFJnBSUOVGbw0mJnhzQx4GgCdQ6IZMs0gqkHVOdACFUo7CINi0A+EBoWAEBAGBaHuYckaSQQIiagAffTRR9bWrVtdIJw7d25gDCoNkgaEbZ1zwHHi1AxOBqYmJ0wNTp2DohOmBqfOodY5FBucgiVAGBcIjx07BggBYSwgvPzyy1kjiQAhERWhzz//3Kqvr3eBcP78+aFAqDRomqHROwg6BzkzmDkHLu8Q5R2CnEONBpe04LNaoDoHMCdMvbumyglT766pcg7GTpya59w5wIPT9IEwDAYBISCME4RLlixhjSQChERUlDZs2OAC4cKFC0NhsJrat29fcxps/XIOuM6h1Tt0egdJ7yDoHey8w5l34PIOUlmBqXfX1HlIr/manYfzKudgXOqQXucA74RpEQ7pTQKEXkxUAuHs2bMBISAMBMI1a9awPhIBQiIqSnV1dS4QLl26NJMgLAfEWvIbjqsdmr2DcSmQOgfWUiB1DpfewbHU8Ocd6rK0Y+rcNS13OK93x9R7OK/fjqkTI6VQWuvrqlz6ftYCwrC7g6q5ubkqEPr9PKQFhJVQCAiTBeHmzZtZH4kAIREVpXXr1rlAuHz58sxjsC1BWE1+w3StA3alwds7UHuH5Uo7pKUG13K7pVndMXVeBMmLU+cQ7r0IknPXVG9fLQijwCAgBIRxgnDXrl2sj0SAkIiKCsJVq1alCoRFx2BYENZSpcP2ahnUyw3vfsN3uaHab0gudQivd8BNGpVtBULlBOGcOXMAYcpB6IfCtgThoUOHWB+JACERFaW1a9e6QCggsjsYDwiLjMFqBvggg32tA7/fgF9qgPcb1EsN3/rzJDBYDoTOexECQkAYFISnTp1ifSQChERUlHTxACcIdZGZOEDIoaL5AmEWMRgUAUFwAAgBYZZBeMMNN7A+EgFCIirqDuGmTZvYHQSDgDDlGFRHjx4FhIAwFhB+73vfY30kAoREVNRzCLdt2xYagxoYzTlVzvvrmZu+O29bYG707rwqpN8N3tkdZHeQ3UFACAjjBeHdd9/N+kgECImoqLed2LlzZ2gQmkvwx32Dd+eVIJ23J6gET+e98pwI9d6SAAzmH4RZxWA1IJw7dy4gBISBQPjII4+wPhIBQiIqSt4b0+/duzf0oaIa1Jw7hJWGlXJDSVvfI68UOr27nV54Om/W7gSoF59pACGHimYbhEeOHAGEgDAWEP7sZz9jfSQChERUlOrr610gPHDgQGgQaoAzl+APMgj7DVXlBqZq0ZkmcHrRWQmeBp/enU9TKYAWBYRFw6AThAoQAsIoQfjcc8+xPhIBQiIqSps3b3aB8ODBg6EvJKPhzu+ebFEhMcrKDWjlwOkdvtK6y+lEp/dm686v03u4rXPns9zuJ7uD8YCwGgx6Qei9Ob1AOG/ePEAICAOB8Be/+AXrIxEgJKKitHXrVnuYNIPl4cOHQ4NQg58BSZABOguAjAqdlQa+LBxaWwqdTnh6AWrgWQqf5RDK7mDr9LMKCAFhHCB87bXXWB+JACERFaUdO3a4QHjs2LHQt5nQUBglCIsKyDgOra10iG2pAbEtwelFpxOeTnyW2vl07np6D711Hn6bxd1BQAgI4wThb37zG9ZHIkBIREVJF5FxgvDkyZOhQei87URbgBBAJn9obakh1jmApvl8zlLoLPV5l9r99B52m9TuYBIg9ENhWkDoh0JAGByEv/vd71gfiQAhERWlhoYGFwhV2JvQZw2EADKeNIAabAUFkYFWpYsJpWWX05w3GzcGVVNTky8IL7/8ckCYAhBW+t6mEYR//OMfWR+JACERFSUNlV4QdunSJRQINUiaAbnUoXpFChDWBsK22OWs5mJC1YITEALCJEDoh8IoQPjpp5+yPhIBQiIqSs3Nza1A2KNHj8AYbN++vT2A5nmHEEBmG4RxpAE9zK1WasWgOnToECAEhJGDUP994cIF1kciQEhERenUqVOtQNi7d+9AIBQGTewQAsgigjDo1xoEhLpFzFVXXQUIAWGkINTbsTYSAUIiKlAaHr0g7NevX+DdQZM5jA4QFheQRQKhBvigO4RBMKiPVwmE8+fPB4SAsGYQ6rFZG4kAIREVqBtvvLEVCAcOHBgKg04Qeq+8SMXBIzuEgBAQZg+E+nxZG4kAIREVqFtuuaUVCIcMGRIahBowDAjjuscbpRuQgDA+DAJCQBgXCPX8sDYSAUIiKlB33HFHKxAOHz48FAaVwUC1IEziJuGUbBpOnVfezPMFdMwho3GD0AmGxsZGQAgIIwehnlPWRiJASEQF6r777msFwlGjRoUGocGABps4QAggsw/CPF1AJ8g5hGF2B6sB4YIFCwAhIKwZhPo+sTYSAUIiKlAPP/xwKxCOHTs2FAaVGZDTAkLwmH0QphmPtR4yGhaDgBAQxgVCvS5YG4kAIREVqCeeeMK+9YQThBMmTAgNQg06WQUhgMw+CJMGZK2HjAJCQJhWEHbu3Jm1kQgQElGReuaZZ6xjx465QDhlypRQGFQagjQga3DJOwgBZPZBGBaQtYAwCgyqhoYGXxBeccUVFUFYCYWAsHgg7N69O2sjESAkoiL14osvWkeOHHGBcPr06YAQQALCGjI74ubem4AQEGYVhH379mVtJAKERFSkXn31Vfvy9U4Qzpo1KxQGlQYkDccaUEBdMfFYRBBW2iGMCoOAMBwI/VCYFhBWQmFcIBw0aBBrIxEgJKIidfbsWWv//v0uEM6bNy80CDU8AcJiA7JIIKz2kFFACAjTDkLddoi1kQgQElGBeu+996zdu3e7QKiLUYTBoNLApQFZQ0g1gxblD5BJg1AI6De8pzVx8RBrwqLBVufuHe3XYVoOGY0Sg+rAgQNlQagAISAMAkJdZZq1kQgQElGB+uCDD6zt27e7QLh48eJQGFQayMwOod/5OkHP5aH0lyQIhY3FDROsO946bD383k3WT9693rr5td3W/F2j/4KU/wCEgBAQVglCXVSMtZEIEBJRgfrkk0+sLVu2uEC4bNmy0CDUoObdIYw7EJZeEMZ5+Kred/KyYdaP3/2W9f2zDdbxZ5Zbhx5dbH3vrf1/geF11rKj420gtOU5hFFjEBACwrhAOHv2bNZGIkBIREXqwoUL1saNG10gXLFiRSgMKg1xBgNJgRA8ZhuEQQ9fFQq2f3eBdfe5E9bGm6dZ//QvX7eH8AGTuljfeX2HdddvjlnDp/aL/TYUfjuEcYBQ5/76gXDhwoWAEBDWDEK9blgbiQAhERWsDRs2uEC4Zs2a3IMQQGYfhCZB49CPV1q3nz1kjVzQ0zWILzkyxt45XNo0PtaL6PgdMhoHBgEhIIwLhMuXL2ddJAKERFS06urqXCDU/4fBoNKAZw6hywMIAWR6Qajhfs3/TLfuOXfKmr9/hGsQn7ltqHXXO8etLafn2XiI6wI6UYKwGgwCQkAYFwj19z/rIhEgJKKCtXbtWhcI6+vrQ4NQw58ZkIsIQgCZHAjVZdP6W/edu9q68fWt1pglva1/+fevW10H/bfV9LPF9g7h8sOTY32eyx0yGtfuoNq3b58vCBctWgQIAWHNINy2bRvrIhEgJKKitW7dOhcIdZGZMBhUGgwBYbHxmCQIBYBFDeOsh977tnXb2wes616rs65/faP1w98ctW5/44jVf0Sv2G/H4QVhnBgsB0InCgEhIAwCQl2siHWRCBASUcHSOYNOEOo2FGFBqKEREBYbkEmCUAkO01YPt65+arO9K/jAu9da1zy1xRo3f7ANhDg/dqkdQkAICLMIwqNHj7IuEgFCIir6IaO6UX0YDGoA1TAJCIsNyKRBqPT5Cyx9h/awevbvan2j3TcSQbEXhHFjUO3du9cXhLqfaFwg9ENhWkBYCYWAsDQI9VpiXSQChERU8B1C7TwEBaFzAHWCsNahjLIPyLYAYVvlPWQUEALCrILwpptuYl0kAoREVPRzCBsbG0PtDnpBaK4EGTbwla00tHpvPVIEECaBQUDYNiD0Q2FaQOiHwmpA+IMf/IB1kQgQElHRWr9+vQuETU1NoTBoihqEADL7IMzrBXSch4wmBcI9e/YAQkAYOQh//OMfsy4SAUIiKlreG9ProgJRgFDDhQGBcyhxDi5muHEOQWaA0q9m2PKeJ+Z3GCqAzA8IswLIMCAMgkE9t4AQEMYBwp/+9Kesi0SAkIiK1saNG10gPHHiRGgMOkGYVGagqQWfzsHMDG9OgDoHRQCZfhC2FSCdh4x6X1dRg9C8jp0gLHUvwiVLlgBCQFgzCM+cOcO6SAQIiaho6b6DThBqyIwChBpANCBrQCk14DgHl1KDSZKYDIpP5+ftRGgpfPoh1LsbCgiDJVjotdehfQcbJ1HCPY5zCIPuDgJCQBgXCF944QXWRSJASERFS/cd1DDpRGHHjh1DYVAZEGggiuqQzlJDWanByzlUlRuUSg1DaYSo83MrBVDvTmgt+Cx3OG4WQdirS1frxOTLrec2H7Te2HPSunfRemvd8HHWf/wFG0nsNNYKwjAYVLo9DCAEhFGD8JVXXmFdJAKERFS0du3a1QqEXbp0CQ1CDTRmQG6Li8pEcS5huUHQO+yV2v2shNA073xWi0/n1+zFp/O2E3GD7L//ApTbF661fnfTD62zB79pvfUXEL5z7NvWb6/+rvXNCfOs//wLRvIGwko7hEuXLgWEgLBmEL755pusi0SAkIiKli5f7wVh9+7dQ2EwyyBMI0LL7X5Wg9C23v1MAoTT+w223v3Wrdab25utbUPHWYO/0dFa1X+E9csth6zffvNWq274uFjP+3SCsJpzCMNiEBACwrhAeO7cOdZFIkBIREWroaGhFQh79+4dGoQadsyADPqygdByu59+AC01aDrxmQQIN4yYYL337Tuse+audn3+S/sMtX5z5DrrwSu32FgBhIAQEPqD8Pz586yLRICQiIrW4cOHW4GwX79+oTCozKX4Ndj4DW3VDnCULWgmeQ7h4sEjrd+dvtO6Z94q1yDe/d//y3pz+1Hr7UPfsrp36hzr51DtIaNRYNCcQ3jq1ClACAgjBeGf//xn1kUiQEhERev48eOtQDhw4MDQIDRXXtTwUi0Iaw2ApTcnCOO+/2OfLl2t1/afst7cfcKa3b1fyyB+Rc+B1lt/+b1XG66y2v/lNZmGHcKoQei9F6EB4bJlywAhIKwZhJ9//jnrIhEgJKKipUHSC8KhQ4eGwqAyQ3KcIASQ2QdhmENdTfrebtRhozfeYb2xo9n67vTF1nWT5lu/qttn/faaW6zT81faIGlrEEaFwayC0A+FaQFhNbcYyTMIWROJACERFbBrr722FQhHjBgRCoPt/v/dmLSBEEBmH4Tl+q+/YGTzZROtN49cZ7173W3Wb//nZvuqoz/dsNca1L1n7IetAkJAmHUQ6n1ZE4kAIREVsNOnT7cC4ahRo0KDUAOZuTF9VkEIHrMDQiUgDOrWw6obPt5qmDDbWjVsrNWpQ4dQu49RgTBKDAJCQBg1CJU+H9ZEIkBIRAXse9/7XisQjhs3LhQGnSDUIFIEEALItgehsySe4zSD8MorrwSEgLAmEOrrY00kAoREVMDuvPPOViCcOHFiaBBqWDMgAIDFA2RbgzDp/EAYNQYBISCMA4R6XlgTiQAhERWw+++/vxUIp0yZEgqDSoMcICwuIAFhcBBWwiAgBIRxgFDPNWsiESAkogL26KOPujCoZsyYERqEGvI0IOtiBQCteHgMA0Iz9Gpg1kDtHco1tDvfXm+jAdoM4BrQS71dEiA0n3ecu4PmxvSAEBBGCUJ9X1kTiQAhERWwp556yjp58qQLhLNnzw6FQScIVbUDHOUHkGFAqOHVvHZKpdekXktOEJZ7W318Ddd6TSa9QxgXBqsB4fLlywEhIKwJhB06dGBNJAKERFTEnnvuOau5udkFwnnz5oUGoYbDUiCsNQCWzTTQxglCQaEaEJpd6r59+wJCQAgIferSpQtrIhEgJKIi9vLLL1tNTU0uEF5xxRWhMKhBU0NjFCAEkNkHYa3vm2UQmkNG48QgIASEcYCwV69erIlEgJCIitjrr79uNTQ0uEC4ePHiwCA0g6YThBrOkkQhgMw/CIUIM/QDwtYgXLFiBSAEhDWBsH///qyJRICQiIrYO++8Y+3bt88FQt3UOszuoBk0zZBsbhqe9YBe+kCoNJBXA8I4r76qj2EOGY0bg2neIayEQkCYXhAOGTKENZEIEBJREfv9739v7dq1ywXClStXhsJgXkEIILMPwriuwAoIAWHWQThy5EjWRCJASERF7MMPP7S2bdvmAuGaNWtCg1CZIVlDVhFBWGRA5gWE1WY+lgbyuDGY5kNG4wChHwrTAkI/FKYFhJVQOGHCBNZEIkBIREXss88+szZt2uQCYV1dXWgMKg0ZGpI1SAG+YgGyaCA0//iRBAj1MQAhIIwahNOnT2dNJAKERFTUNmzY4AJhfX19JCA0gz0gLB4eiwpCDetx7w4CQkAYBwh1uyHWQyJASEQFTTuCThBu2bIlNAaVhhNAWExAFg2EZjc8bhCaoR8QAsKoQairS7MeEgFCIipo69atc4Fwx44dkYJQw1LQi0ZQNgHJIaPx7Q6qvXv3+oLQeWEoQAgIqwHh6tWrWQ+JACERAcKL7d69OzQGlQaXakBYawAs/RkQagitdZAvAgjDYNAPhAoQAsIgINSpAqyHRICQiAra2rVrXSDUfQmjAKFBgYaiKEEIHrMPQr/MzjIgDAZC7RICQkBYKwh1+yHWQyJASESA0K6xsTE0BpUGHg3J+rWtQAgg8wlC4cK8fdbOIQyLwWpAuGrVKkAICGsC4cGDB1kPiQAhERU13XfQCcKmpqZIQKhhyNysOysgBJD5BWGcV2A1IKxmhxAQAsI0gvDkyZOsh0SAkIjYIbxYc3NzaAwqM6jnGYQAMvsgjOIKrNWCMAoMAkJAGAcIr7/+etZDIkBIRFxU5mInTpwIjUGlAQoQFhOPeQZhqQAhIMw6CG+55RbWQyJASERFbf369S4QasiMAoQarsx5VQCvWIAEhPFhsFYQ+v3MpgWElVAICOMH4Y9+9CPWQyJASERFbePGjS4Qqg4dOoTCoNLg5UQBaCsOIIsGQnOrjLYCoXKCUPeUA4SAsBYQPvzww6yHRICQiIqa7j/lBWGXLl1Cg1BDWanh3PyqIURDioYYM+iYYUjDkhmoNGxpGNOw5hzq9PhAM52AZIcwPgyWA6Hz5vSAMBsg9ENh0iB88sknWQ+JACERFbXNmzfbw6QThN27dw+FQaWBzW9QjzKgma4AYTgQ+g38gBAQxgHCZ599lvWQCBASUVHbvn17KxD26tUrNAg1yGlI1rDhHN7MQOYcsszg5ByGzHDjHFoM/IBmdkBY6+6j/l/Pn3mMSiDU25pDNtv6kFH9GvfuoNq3b58vCHUrGUAICGsB4UsvvcR6SAQIiaio7dmzpxUI+/XrFwqDXhD6DYJBcg6KTmSagc6JTDN0mWHKoM4MSEkjswjQrBWEzgQHoUPw69Spk9W5c2e7rl27Wh07drR69uzpAqHeR3+mXW3VrVs3+xxYPYYBY1udQxgHBgEhIIwDhK+99hrrIREgJKKipuHSC8KBAweGBqGGPIOeqEEYV15kOncznUOfF5mldjSLDM0wIKxUNbcpcMJSr0XhEhACQkBYHoRnz55lPSQChERU1A4ePNgKhEOGDAmFQQ2UBoQqKyCMcvfSu4tZ6pBZ5zDpHQ6dyGzL3cwg0DTnAcYBwjRefbXUIaNxYdCA8OTJk4AQEEYGwvfee4/1kAgQElFRa25ubgXC4cOHBwahGSg1ABYRhGHwGAQufofMltrRdA6OBpmmqCGZRRAG+T60FQhL3YsQEALCICD84IMPWA+JACERFTUNlV4Qjho1KtTuoNJwaGCgAc0c7kdtA8hagFPqkNlyO5reQ2bN4Klf9ftFuIiO2RE1h4zGicFqQLh27VpACAhrAuEnn3zCekgECImoqF177bWtQDh27NhQu4NmoCx3+KEZQpyHHnoPOzSDlvf8Nue5bWaQBIttB0gChIAw2yDU38kXLlxgPSQChERU1G666aZWIJw4cWKo3UFTpXvKRX2em0FmJWiaAc9A0wyRTmgCSKo25yGjcWMQEALCqEGoP2MtJAKEPBFEBe62225rBcIpU6aExqB3uNSw6L2ap9/tItr6wirmvDrnTqb3QipmqPODpvP2COAx3zuEaQHhunXrACEgrBqE+nishUSAkCeCqMDdfffdrUA4ffr0SEEYZOj0G0adQ6b3Sp6lbhVR7nw350VVktzJ9LtaZ6VbQnhvBwEgsw3CWjGYFAj9fj4BYb5AqM+ftZAIEPJEEBW4Bx54wIVBNWvWrNRisNb8BtRSA6sG0FK4rOaG9215H8Iw52am7ZBZQOg/8APCyihMCwgroTANINTXzVpIBAh5IogK3GOPPWadOHHCBcK5c+emDoRxY7CaoTUoYPxudl9uFzMN9yEsd8hs2g6XbWsQ6jkJAsIgu4PVgLCurg4Q5hiEfq+dICDUc8xaSAQIeSKICtyZM2eso0ePukC4YMGCwu0OxgnCKG6A7h12Sx0e67eL6R0a474HYZBzM/0OmfVCM+ghs3HuEOprihuDgBAQRg1CfW9YC4kAIU8EUYF78cUXrYMHD7pAuGjRInYHU4TBSudLBRmKyw3K3sNjvTe3956L6d3FbOudTO/hsl5oVns7k1q+v0F2CAEhIEwLCPUaYS0kAoQ8EUQF7tVXX7X279/vAuGyZcvYHYwJhGnFYKVBOcgAXQmXTrSVGmi990pLEzSdyDRvXy0Iw2AQEALCqEHYqVMn1kIiQMiTQFTkzp49a+3evdsFwhUrVsQCQg4VzRcIq8FgLUN10Cs4lhqkS+1eencxo0YmIASEWQRht27dWAuJACFPAlGRe//9963t27e7QLh69Wp2B8Fg6kEYdAgvN5g7dyxLDd2lBmznOZHOW4jEhcFqQLh+/XpACAirBmHfvn1ZC4kAIU8CUZH705/+ZG3evNkFQu0wgMFinTtYZAz6DeZ+JXETekAICOMG4aBBg1gLiQAhTwJRkfvss8/sAdIJwvr6+sKAkENFAWGWMAgIAWHUIBw+fDhrIREg5EkgKnq6kbUThFu2bGF3kN1BdgcBISAsAAjHjBnDOkgECHkSiIremjVrXCDcsWMHu4PsDmYOhEXAYDUg3LBhAyAEhFWDcPLkyayDRICQJ4Go6OkiMk4Q6qqj7A5mC4QcKpovEPoN9lGBsNLPNCAsBghnz57NOkgECHkSiAChG4S6L2GWQMihovkCIYeKAkJAmBwIFyxYwDpIBAh5EoiK3sqVK10gbGxsZHewjUDIoaKA0G+orwRCtXHjRkAY8PWfFhBWeq1FCcLly5ezDhIBQp4EIkDoBmFTU1ObgJBDRQEhu4PhQcgOISCsBYS6zRDrIBEg5Ikg4pBRFwibm5vZHQwJQjDI7mAcGASEgDBqEOqq0qyDRICQJ4KIq4y6QHjixIlQIORQUUDIoaJtB0IOGQWEtYBQryfWQSJAyBNBVPB0yJAThBoy2R1kd5DdwfRhUOmiT4AQEEYFwiNHjrAOEgFCngSioqcbWTtBqNq3b8/uILuDHCoKCAFhzkGo1w7rIBEg5IkgKnibNm1qBcLOnTsXfneQQ0XzBcI8YLAaENbX1wNCQFg1CG+66SbWQSJAyJNAVPS2bt3aCoRdu3ZldzBHIORQ0XyDUAFCQBgEhLfffjvrIBEg5EkgKnq7du1qBcKePXvmBoQcKgoI84JBPxCaXUJACAhrAeF9993HOkgECHkSiIre3r177WHSCcI+ffqwO5hSEGqQ79evn3XZZZdZ48ePtyZPnmxNmTLFmjBhgjVq1Chr4MCB9iG/YBAQAkJAWAmEjz76KOsgESDkSSAqeo2Nja1AOGDAAHYHU4RBXeRn2LBh1qxZs6wlS5ZYixcvthYtWmQtXLiwJf2/fn/p0qXWlVdeaf+ekNi7d2/74+UBhEXHICAEhFGD8MyZM6yDRICQJ4Go6Omy414QDh48mN3BFIBQz9W4ceNsBAp4CxYssObNm2fNnTvXmjNnjjV79uyW9P/6/csvv9x+O7293k84FBKHDx9uf67sDqYDhEEwqAG+Egh1kag4Qej385sWEFZCISD8v55//nnWQSJAyJNAVPR0I3ovCLUblSYQFg2DeptBgwZZV1xxhZ2QJ/DNnDnTmj59ujV16lT7MFEdLmrS/+v39ed6OyFReBQOtXPohKE+RluCkENFASEgTAcIf/nLX7IOEgFCngSiovfNb36zFQhHjhzJ7mBMIKwGgzo3UIeAzp8/34bgjBkzbOxNmjTJPgxUu4ZjxoyxRo8e7Wrs2LH2n02cONFG4rRp02wcaudQMNSO4YoVK+z/1mGo7A6GB2GSGHSCUAHC5EDo91pPCwj9XlvlQPjGG2+wDhIBQp4EoqJ34403tgKhsBEHCDlU1H+I1WMKfTrcU7t7OmdQEBTwBD2hTxeT0S6fdnGHDBniSr+nP9Pb6G0NDvUYeiw9ph5bu4WCoS5AEwaEHCratiDULiEgBIRhQHju3DnWQSJAyJNAVPRuvfXWViDULhS7g8kfKqpdPYNB7ezpMFDtFgp3I0aMsIYOHWofSqqL/ijtCJodQKUdQb29waJwqCuPCoaCpg4n1Y6jdgh1+OiqVatsMGpIZncw/buD6sCBAy4Qem9Ov3nzZkAICKsG4R/+8AfWQSJAyJNAVPTuvPPOViAUTMBgsiDs37+/fZiowaC+B4KcDt8V8ARB3W5C/7927Vrr4MGD1qFDh2wg6NYhO3futLZv325t3brVqqursw83FQYNDIVKQV+7hTq/UH+uQ0gNCsHg3wJCQFg4EH744Yesg0SAkCeBqOjdf//9rUConSRAmBwGNbhrZ1BI06Gd2hk0GNSuoHYDhcHly5dbhw8fthoaGqw9e/bYCBQAdZjg+vXrrXXr1lmrV6+2Vq5caR8SumzZMvuxdNVYwVCHkupx9Xv6OE4UamexqCDMCgYBISCMGoSfffYZ6yARIORJICp6ujGxhksnCIUFMJgcCM2hojqc0xz2aTConUOd67dt27YWCGoncMuWLdaGDRvs3UCBTlgUAAU8XZnU3HpCu476b+0SapdRh57qUFN9TO1ECoXm8FF9THYHsw1CvS4AISCsFoSsgUQECInIevrpp63m5mYXCHU+WhFAmAYM6jnVbSF0awldTVTn+unwTh0mas4V1JCvw0J37Nhh7wBpN1CHjWonUAjU+xsE6nGEPCcIzc3r9bjCpXBoUCj86231ONpd7Ny5c2ZBmHcMAkJAGCUI9fasgUQECInIvjFxU1OTC4QCAruDyYBQOBPatDuo8/t0SKcO7dRuXt++fW2oGQhqR3DNmjX24aDaCdT7CYDmZvX61WBQQBQChUVlcKjzCoVCs1Oow0d1TqH+XLuMeht9XuwOti0Iy+3oeK8yCggBYVAQ6nNgDSQiQEhE1q9+9St718EJQqEgSyDM8k3oDeC0U6cdO+3i6VBRnTMosGnA37hxo70jaCAovAmCgpwSJoVBA0JhUN9DpcNB9T4GhcocPip46vBUHaaq99XbVDqfMAkQcqioPwhPnDgBCAFhaBDqc2cNJCJASETWW2+9ZZ+X5gShdqXYHUzmYjICmzlcVFcB1Xl8ughMnz59bNA5Dw0VHAU3A0EnBg0EzU6gcKfHVnpf/WpQqLfVuYn6ONox1FVGzfmEelvtQur7x+5gunYHASEgjBKEep5YA4kIEBKR9e6779qHJDpBqJ2otgBhkTCoevbsae/eCXTapdPhojqU05w7aC4UYw4NFQC1k2h+NRg0h4jq7fR4Su+ndBN65UWhdiO1C6lzFceMGWMfOqrH02MIoNqdZHcwXbuD1YBQV50FhICwmteUnnvWQCIChERkffDBB/aughOE2iFidzB+EOrQUAFN5//p/EEhTEAT1HQ4p2An7OnPhTXl3BnU7wuKwqBBoPAnSDoT8J1XITUXmtEOoc4n1MfS7qR2Kc0uoVCor5vdweAgjBqDWQah389qWkBYCYV5A6G+l6yBRAQIicj69NNP7XPUnCDUrQzYHYwXg0rn6pkLymiHTjt1QqIuJiOkCXvKgND5q3YGnRgUBIU4nQNo0v+b3xMKzU6hQaGuaKqPpY/p3SXU++hcw6Ag5FBRQAgI0w3C9u3bswYSESAkoovphuZOEAqI7A4GB2E1GFQCmROEuqCMbiCv8wcFNHPOoDdB0BwmKtwJe9rVFeSVvp8691C/p3Q7CScKzaGjen99LF1gRucumnMJ9dh6O+0WsjuYHgya2074gVD3qwSEgLCa11aXLl1Y/4gIEBLRxYQHJwh1i4OgIORQ0epBqPP4yoFQQBPInLeVcN5j0FxBVMgTAHVLivr6ejuBXvcqdMJQKNRuoTl01JxLqHMVdYEZ7QbqHEZzxVE9tt5Pzxu7g4AQEOYPhL169WL9IyJASEQXExacINRFZtgdjBeDSgAz5xB6DxnVuYTmRvPmKqJmZ1CQc+4MCoM6D1QY0CGDAr1gqN83O4Z6OycIzWGjOjRVABVEBVLvYaMaGvMCwqxjEBACwihBqHOVWf+ICBASUUkQ7t69m0NFEwChrihqrjLqvaiMDuPUIZ2CoDNzs3nt4Alswp7wJwjo+7Zz504bhZs2bXLtFAqEpQ4bFQCFPnMLCh3GqiuY6mPrbfV77A4CQkCYPxDqH4FY/4gIEBKRnXaOnCDUhSvyBMI0YlBpZ067ddr5mz59un2RGSFRh3Bql1AoU9oVNDuDZndQqBPwtAMo/G3fvt3atWuXDUKhQLuEAqHZJdSho6VAKIzq9hfmaqPe8wgFRnYH04FBQAgIowShDktn/SMiQEhEdoKCE4SNjY3sDiYAQg3lOoRT+BLChDGhTDjTrp3wZ1DovOm8QKj3MzuEgp9QaA4Z1eGj+n/nYaPlQKhdxx49etjnEgqjQqnz9hPaLWR3MDsg1D8MAEJAWM1rTD/rrH9EBAiJqOQho4cPH2Z3MGYMmqHVXCBG9xbURWacF5bRuYUGhQaDQpygJhBqZ1fQ02Ghwp92BU3ei8uUO2RUj929e3cXCLVbqV1LfRx9DmkCYZExqBoaGgAhIIwEhPo5Z/0jIkBIRCWvMtrc3MzuYEIg1IVkhDMduqkrfOpCM7ripw4b1Z+ZcwZN2h3U2xsQCnrmKqMCoDPn7mA5EAp83h1CA0K9TbUgZHfwa7FjEBACwihBqJ9t1j8iAoREZOe9D6EGzrSBMI8YVB07drRxp506HZ6pw0Z1IRdd5EUXl9Hvm8NETWaHULgT8gQ+fQ+1G6gEQf3qvCeh87YTThAKoc5zCM0ho2aHUBe7iQOEHCoaDIQ6nBsQAsIoQKiff9Y/IgKERGQnQDhBqNgdjA+E3gFVO3Jmt04Ac+4S6qqfziuLCmleEAp7Qp+5Mb2BoBODZnfQe9sJfSydr+i8Ob3zHEIhkd3BdGDw0ksvTTUIK/1sA8J0gVB/L7D+EREgJCI7nW/mBaGGyThAyKGirYdVncOnXTtzcRkhULuEOpdQKBTOzPmDQqHe1gtCHRIq/DkzN6TX25TaHdRj6vHNfQidt50wVxnVn4HB9IDw4MGDgBAQRgJCHVbO+kdEgJCI7HRVSi8IdSgju4PxY9CkcwjNPQl1GKcO3TRXHNWvwpsThc5dQmHPwNCZgaDZGRTwnLuDupCNDhcVCnX/Q52zqNtM6Pe1K6n3a9++PSBMCQarAeGOHTtyBUK/n8u0gNDv5yAtICz1utMtalj/iAgQEpGddhW8IOzatSsYTBCEnTt3tsEmiAlkgpluVK9DR3XBlwkTJpREoXO30ODQZH7Pi0G9vz6OzlPs3bu3fbioOX9QGBVK9TbaJQSDgBAQ5hOEei2x/hERICQiu927d7cCoa48CQiTwaBJV/kU2pyHjmrXTrt32ikUEp0oNFccNTA0ODSZ39Of6+0MBvX+emzn7qBud6Hf08fVIap6+6FDhxYGhFnAoDp06BAgBISRgPD48eOsf0QECInoYrrZtReEOncMDCYLQr3NnDlzbLjpKp+6uIuQJqwZFJqdQud9CQ0MnRedMQg0EHTuDOpxdSGZvn372ruEZndQF7TRx9fb6P313LA7mA0QKkAICGt57V177bWsf0QECInoYroRvReE2jkqAgjTgkGThngDPR26Kbzpyp/aKdTho0KhrgZqbmjvhKHBoTPz++ZtdUVTHSZqMKhdSR2aOnny5JbdQb2ffi+Lu4N5xqBqamoqC0LtEuq8MEAICKt5/d18882sf0QECInoYseOHbOHSScIhQV2B5MHoerQoUML5AwKtVMopGk3T1cEFQwFRQNC/Woyh5U6f1/3M9RVRIVB3d/QYFDQ1OMIirrthd5HKNTnzO5g24LQi0FACAijBOFdd93F+kdEgJCILqZB0gtCHaKYJRDmBYOlUKjDR7V7p3MIdWinYKfdQqFOMNT/C3R6OycIzWGnQqQQqF1Bvb3ODdTvOTGoQ0WFRh0q2qVLlzbfHeRQ0dIg1G4+IASEUYDwoYceYv0jIkBIRBe74YYbWoFQYGB3sG1AaIZT3fpDSNMhnDpEVFcf1VVAtVuoG8obGGrHUFcK1dVIBT+DP/2qQ3/1+/pzQVC7gno/vb8ex2BQj1+0C8lkbXcQEALCKEH4xBNPsP4RESAkooudPn26FQi1e9QWICw6Br0Dqz5XwU07d9r90yGk2i3UBWC0uyfY6aIzOq9Q2NPOrjf9voCvt9Pb6/2026jdQx0mKgwKndo99Bt62R1s291BdeTIEUAICCMB4TPPPMP6R0SAkIgudscdd7QCoQ5NZHew7XYHvWmXz1wkRoAT5GbNmmXvGAp3Qp6+ZwKfzjUU6PWr0u/p6qSCpYGgdhuFSyFTj6kdxTRgMG8gjBKD1YBw165dgBAQVvVafPHFF1n/iAgQEtHF7r333lYg1FUn2R1s291Bb3qOtBNoYKjDSYU64U67hoKegKjdQ8FP6b/1e/ozvY0OD9X76H31GHobAaASBoOAkENFowfh0aNHW0BoUAgIAWEQEL766qusf0QECInoYg8//LBrsFRCBLuDwUEYNQZLwdCcX6gLyGjXUFcHFfa0e+hMv6cLzOhtzI6gdhd79OhRFQTZHUwHBsuB0Hlzei8I/VAICIsNwrfffpv1j4gAIRFd7Mknn7RvPeEEocAQFIQcKhovCJ3pwjM6T1DfL++9B733JtQuobmdSLUQBIPpAmFzc7MvCHfv3p05EFb6WQaE8YDw3XffZf0jIkBIRBd77rnnWt2cXjtL7A6mG4PegVW/p2Fet43o3r27vQOo/9bwb96+FggCwnRhEBDmC4R+r/kkQHj+/HnWPyIChER0sZdfftlqbGx0gVCHH3KoaLZAWE1g8GuZBqF28gEhIIwChB9//DHrHxEBQiK62BtvvGHt3bvXBUKdl8buYLExmDcQZh2D1YBwz549gBAQVnxd6rV04cIF1j8iAoREdLFz587Z9y9zglA3KWd3MD8g5FBRQAgIAaFJ/8/aR0SAkIha0rkkW7dudYFw+fLluQEhh4rmC4RFxaAB4fHjx0veixAQAsJqX5t6HNY+IgKERNSSziWpr693gXD16tXsDqYQhBwqmi8Q1oJBQAgIowKhPjfWPiIChETUks4lWbdunQuEdXV1qQMhh4rmC4QcKgoIAWHbgFBfK2sfEQFCInK1du1aFwg3btzI7mCMIORQUUBYKwb1PpVAqItDAUJAWOn1qeeVdY+IACERudIhok4Qbt68OTYQcqgoIGR3EBACwrYDob4frHtEBAiJyBeE27dvZ3eQ3UF2B1OCQUAICKMEoV4XrHtEBAiJyNWqVatcINy1axe7g+wOgsGMgXDfvn2AEBBWfJ127NiRdY+IACER+YNw//797A6CwUKBMM0Y/MpXvmJ/PEAICKMAYbdu3Vj3iAgQEpH/IaONjY1gsEAg5FBRQFgtCtMCQr+f27SAsNLPSVuBsE+fPqx7RAQIicjdmjVrXCA8fPhwYUDIoaL5AmEeMaj0eQJCQBgFCAcOHMi6R0SAkIjcee9D2NzczO5gBkHIoaL5BaG+NkAICP1e49W+XocNG8a6R0SAkIjcrV+/3gVCDZtZAyGHigLCvGKwWhDq3F9ACAgrvWZHjx7NukdEgJCI3OlG9E4QKnYH2R1kd7DtQOjEoNJzAggBYRQgnDhxIuseEQFCInKnG9F7Qaihkd1BdgfbAoQcKgoIAWF8IJw1axbrHhEBQiJypxvRe0Goe1WxO5g8CDlUNF8gjAKDSs8lIASEUYBw/vz5rHtEBAiJyN3u3btbgbBLly6Jg5BDRfMFQg4VTRaEBw4cAISAsOJr98orr2TdIyJASETutLPgBWGPHj3YHQwBQg4VzRcI2xKDgBAQRglCXVWadY+IACERuTp06FArEPbu3TswCDlUNF8g5FDRtgehvg+AEBBGAcItW7aw7hERICQid7rvoBeE/fv3Z3cQDALCFGCwWhA2NDQAQkBY8TW8d+9e1j0iAoRE5M4Mlc4GDRrEoaKAkN3BlIBQ37soQVgJhYAwvyA8fPgw6x4RAUIicnfddde1AuGwYcPYHWR3MFcgzCoGqwGhquWQUUBYXBDqNcO6R0SAkIhcnT59uhUIR4wYwe5gjkDIoaLZBqG+55VAyA5hdT+3aQdhpZ+JsCC88cYbWfeICBASkbs77rjDPuTMCcLRo0fnBoQcKpovEBYNg4AQEEYJwu9///use0QECInI3d13393qPMLx48ezO5hCEHKoaL5AWA0GlV4rgBAQRgHCe++9l3WPiAAhEbl78MEH7WHTCcJJkyalDoQcKpovEHKoKCAEhMmD8JFHHmHdIyJASETuHn/88Vb3Ipw6dSq7gzGCkENFAWG1GFR6jQFCQBgFCJ9++mnWPSIChETk7tlnn7X279/vAuHMmTNjAyGHigJCdgfDg1A5Qdj4/7V3pt9ylWX6/jfaDz2t/uDqafUSCBASCBCmMA8CIQwhIQTIQEiAJCRhDCJhEPuLtjZqa+PQakNLq6g0Agq2orBwQBpaHHCisUEwkK/7t+7d6zq/u97sGs6pOqeGc3+41qmcU1W7aledU++V+3mf5447IoQRwq7v6WeeeSafeyGECGEIoZUf/ehH1S233NIihBdffHHSwaSDSQdHQAaF3ptNQugpYYQwQtjLe/qHP/xhPvdCCBHCEEIrL730UnX99de3COEll1ySdHDE00F9XwvxQw45pFq0aFF16KGHVgcccED9uOZKCFMqGiGMEI6XEL744ov53AshRAhDCK385je/qbZv394ihGvXrk06OMIyqHN57LHHVqeccsp+nHzyydXixYvr4yUdHH8Z7FUI77zzzghhhLDre/sXv/hFPvdCCBHCEEIrr7/+enX11Ve3COG6desigyMqhFqYS/qaZNA54YQT6oV6ZDBCGCGMEMIrr7ySz70QQoQwhNDK22+/XV155ZUtQrhx48Z5I4TjJIP6nkQP6TvppJOqI444oi4bVcmoksHy53q95pMQTpoMvuMd76jf1xHCCOEghPC1117L514IIUIYQtifDRs2tAjh5s2bkw6OoBAedNBBU7J34oknVgsWLKiOPvrougnQqlWrquOPP7468MADqyVLlkxdT9/TfSUdHH8hFMMUwk5SOCpC2O13er4L4d69e/OZF0KIEIYQ9mf9+vUtQnjNNdeMnRDOh0YyLnpKBk8//fRqx44d1ZYtW2qJv/baa+tyX4nj0qVLp66rBDHp4HjKoNDvA0KolDBCGCGcqRDm8y6EECEMIfQkhGoyk3Rw9ITwmGOOmZK8gw8+uBbByy+/vG4CBBLCCy+8sE4P2WuoNLFp8Zp0cHSFEBlsEsKm4fR33XVXhHCWhLCTFI6KEHZ6//O+1XXyeRdCiBCGEBqRRLgQ7ty5M+ngCA6h99RPQqi9ni6DsGbNmjolPO6446aur9diXIQwpaIRwgjh4IVQx83nXQghQhhC6GkP4Y033ph0cEhC2Kk8TU1jEDxd1t7BJiEUEkJPFCUISQfnXgj7lUGh36UIYYSwXyHU483nXQghQhhCaKTsMrp79+6hCGFKRTsL4bve9a6WZjFKAJtkUKKo5jK6DtfXbedaCFMqOndCePfdd0cII4Qd3+s6N/m8CyFECEMIjVx11VUtQnjbbbclHexTCActg+CSd9RRR9X7BMtyUZWWLly4sGUuoZeMJh0cn3RQ6HcwQhgh7FcIdU7zeRdCiBCGEBpRcxIXwj179vQlhCkVnT0h1GLeRU9loYcffng9f1DNYxYtWlQddthh9QxCTxN98Zp0cHzSwQhhhHBQQqjXKZ93IYQIYQihka1bt7YIoRaXSQdHLx0EDaF3KRQSwmOPPbZatmzZfj874IADkg72IYTDlEGhhfzf//3fRwgjhH0JocrG83kXQogQhhAa2bVrV4sQauGZdHD00kFHXUYZK9EJNZ/pZ+9gSkWHL4QSsQhhhLBfIdTfjHzehRAihCGERm666aYWIdRiM+ng6MogC1Gd7yOPPLJRDJUUqrFMOouOtwz2KoTve9/7IoQRwo7ve5WT5/MuhBAhDCE0oiYyLoQipaKjL4Sg40oANGpCEqiFe4bQT44QStIihBHCfoVQ/3mUz7sQQoQwhNCIFpOlEGphOClCOMky2CuTJITzSQYjhBHCQQmh9hjn8y6EECEMITSiBWYphGpAkHRw9IRwvsvgfBRCCdw4C2EnKRwVIez2+zsJQqjOw/m8CyFECEMIjdx77737CeGCBQtGTghTKhohnG8y2KsQ3nPPPRHCCGHH9/8ZZ5yRz7sQQoQwhNDMfffdt58QarRB0sGkg0kHZ08Ie5HBCGGEcFBCeN555+XzLoQQIQwhNHP//ffvJ4QaV5B0MOngbAlhSkV7F0LJXYQwQtivEK5cuTKfdyGECGEIoZkvf/nL9ULThXDJkiVJB2dJCFMqOllCOJsy2KsQvv/9748QRgg7/g5cdtll+bwLIUQIQwjNPProo/t1Gl26dOmsCGFKRSdLCFMqOvtCqAZPEcIIYb9CeNVVV+XzLoQQIQwhNPPtb3+72rNnT4sQHnfccUkHI4PzSghHUQYjhBHCQQnhtm3b8nkXQogQhhCaefbZZ6tbb721RQhPPPHEyOA8EsKUio6uEB5wwAERwghh30J444035vMuhBAhDCE088ILL9SLBRfCU045Zd4IYUpFI4SjKoO9JoRpKhMh7Pa7oCqQfN6FECKEIYRGXn755WrHjh0tQqiZVUkHkw4mHRy+ECYhjBAOQgj1/snnXQghQhhCaOTVV1+ttm7d2iKEZ599dtLBpINjJ4STJoN/9Ed/FCGMEA5ECO+999583oUQIoQhhGb27t1bd6BzIVy+fHnSwTETwpSKTpYQSgbFgQceGCGMEPYthJ/85CfzeRdCiBCGENqzcePGFiG84IILxkoIUyo6WUKYUtHpCaF+Pkwh7CaFEcLhC+GDDz6Yz7oQQoQwhNCe9evXtwjhypUrkw4OSQhTKjpZQtiPDIqDDjpoXgphp78foyKEnX5fR00IH3744XzWhRAihCGE3oXwkksuGYoQplR0soQwpaKzJ4QiQhgh7OX3Ru/3J554Ip91IYQIYQihPevWrWsRwrVr1yYd7FMIUyoaIexXBsWCBQvaCqFSwghhhLAXIXzqqafyWRdCiBCGEHpPCCWI/QhhSkUjhEkH50YIlRJGCCOE3X5Hnn322XzWhRAihCGE3pvKXHnllUkHkw4mHRyyDIqDDz64qxDqZxHCCGGn35Hnn38+n3UhhAhhCKE9mzZtahHCzZs3Jx1MOhgZHAEhPOSQQyKEEcK+hfCll17KZ10IIUIYQmiPBNCF8Jprrkk6GBmcOCEcNxkUhx56aIQwQti3EP7qV7/KZ10IIUIYQmiPBNCFcNu2bSkVnTAhTKnoeArhwoULuwqhvh8hjBB2+l159dVX81kXQogQhhDac91117UI4c6dOydKCFMqOllCOF9kUBx22GFTQogURggjhNMVwjfeeCOfdSGECGEIoT033HBDixDq30kHR1MIUyo6v4Rw0aJF+wlhOZw+Qhgh7Pb7sm/fvnzWhRAihCGE9uzevbtFCG+++eaRFMKUikYI55MMisWLF3cVQv07Qhgh7EQ+50IIEcIQQkfuuOOOFiF8z3vek3Qw6WDSwVkWwm4yKA4//PAIYYSwLyHUbfM5F0KIEIYQOvL+97+/RQhvv/32oQuhFmlaxGnRpYWSvrI442dJB8dXCFMq2psQHnHEETMSwk5SOCpC2E0KI4SDEUI9nnzOhRAihCGEjrgMirvuumuoMqiFkRbzWoxpsaMFtxZ0+r4u67haxPF9/VvX4zLSOKpCmFLRyRLC2ZJBsWTJkghhhLAvIdRzyOdcCCFCGELoyMc//vEWIbznnntmTQjbLeRYfPFvv40WbFo86vtaUGmRqcta7OjnehxamOv2Wrjqsq6nxa8ua6Gl72vhpO/rvrRo0/WTDvYnhCkVnV0hPPLIIyOEEyaEnX43Z0MIdc7yORdCiBCGEDry2c9+tkUItfCcq3QQMdOCR4trFlRa0LNgROIEcqjvuzjyfaGFlX6mBa4WRLq9Fsi6fy36DzzwwKnFvC4jA1r0sljTffpiMDI4+UI4ajLoQtg0ixAh1OUIYYSwHXrN8zkXQogQhhA68uCDD9aLSoRQC825kEEWab5XkLRQC3p9X5dJ/7SAJP3TIlSLeN1Oi18tmJBA/VyPUdfXfZT7ErVI1XW0cNNtWVC9613vqr/qGLofJFXH0nV1PORTP2MxyX2NsxCmVHQ0hfCoo46KEEYIZyyE+l047rjj8jkXQogQhhA68/DDD+/XWEYLudkSQhZaWshoweKLKy08df9awGmhiYAhc1o06bKuowWP/q2FrBbnuq+DDjpov/RP1zvggAPqhZiOq+vrPvRYkEbunzJSfV+XkU9d1v3wffYvCl3W40dY9Tx0Wc9P39dj1eNEHJMOJh3slaOPPjpCGCGckRDq90Dv05NPPjmfcyGECGEIoTNPPPFEdeedd7YIoRaHs5UOakGkRZgWQKRu3jAG4WKBp+voshaXup6ug6SRBPoeRC2eEDkEQc+HBZIWxTSr0XVoYqP7J/HTfVI2yuPXZRaWWvTx+EgndRua4bCXUcdhL6N+JjHlMvsauT0LRS00kcekg/M3HRRLly6NEEYIpy2E/K0TZ555Zj7nQggRwhBCZ55++unqtttuaxFCictsCCGLHhZh+h5JIOWdLly6TKc8/dtLRnVZ96VST5rHKBXUAknX16JY94M0+jFZlHlXU75P+kcnU24jcUD2kDjKT3W57HDKc9CxdX39TAtyFm06x8iIHiuLOC3M9Rz0M92n7ocuqrqsx8vXpIOTK4PimGOO6SqE+hohjBA2yaBYsWJFPudCCBHCEEJnnnvuuermm29uEcIFCxbMSjrIHj1KMHWZZi5anCOHpHSMmODYPoNQ16FUU/flaZyXjCJcLJYQRd1Wx+M+KVVF6vTV9wrqtjqmHgfpH0mgC54u69iIrBbaOp7uQ7f1JjU8DprnaFGox6TLuj2pKOmprttOWHV9HrseW9LB8RfCY489NkIYIexZCEsZFCtXrsznXAghQhhC6MxPf/rTateuXS1CuHDhwoEKIXv2WIAhRj4GghbpSA/XR3p8vIQWr3QD1SKXJFALUKSI9I9jsHDSAtZLRmkew+MgmeP2PHfdL8+JhR8dUmlkg5jQ1RQZRTzofErJKAtEL3ulVNUb1SCUHI/FL813ODd6vDoHpKc6ho6t56vv6/rcXtelZHXUhDAy+H+oIUiEMELYixA2yaBYu3ZtPudCCBHCEEJnfvvb31bbtm1rEcLFixcPTAYRF8o/ETEWVFqIUi6q75PU0eSFPYf6txY/yF9ZMupNZXTZy0e1ECZJ8/JR7l+LMUoy9RhJCD2Bo1zVm8ewH1G3dUkl8XNppESVZjq6HmJK4xlEGDHV/XI9xmzofjk/SKO+p2Owz5GGNkigp6e6X84ZkopQ6f5ZfNL5lbQx6eDcC+Hxxx8fIYwQdv3dayeDYsOGDfmcCyFECEMInfn9739fbdmypUUIlyxZMtB0EInRwkaLF0/pSMrKskjuQwslLR5pJKPLWmh6kxdPApEKT+Z8jx77+Jg9yMJO94+E0n3Uyzv12HU9BNfTOEpGmzqcSr7YQ4gIkwRy7FLqmMWIUCKjlKvqejq2jqHHwfPjGDq3npJyHJ4Dksl+TBaVOh9IO3sfeV0o62WRrMs8dt2m3aI1MvhHM+aEE06oOwBHCCOEnf7DpdN79uqrr87nXAghQhhC6My+ffuqjRs3tgihuhsOupEMiRYjJUgFvUSSbp6kdD6HkFQQeaNEUsKFAGkhjDjRNZTjsFDT/bCQ0uWyZLTco6fLyBGNZJAqykeRPJJALx9lZqKXjJKS0jyGUlfdnk6rNKshqWOxicjRgZVy0Kb0TwKAmNKshnPAfSLsSDXPge/zvD215HXRYyM9ZdwGwkojHmSYfZ7dJHGShLAfGRTLli3rKoQiQjg/hbCbDOo+H3300XzOhRAihCGE7qisyIVQe5f6EUJfpJHMecmoFqaImBaiJGTMIdR1mYXo3UcpH9UxmEOIHLabQ4gkISakgogeC0LKRJEhxJSFYVky6nv0dFkJIdfX86MM1fcccv8cg8SUcRmUjJKS8jh1DJrP6BiUvnIM0lckz8dZIE2Uj+p+dZnXAimmjNX3KZK+0jWVY1BKigjzvHV7PVbvBEvy6Hsq+T7Ph4Y4COF0xHBS08FhCGEnKRwVIewkhaMihN2kcBBC2E0GdZ2HHnoon28hhAhhCKE31q1b1yKEWogOqrMoCzJEhySJTpqUI5LSNTWVQRC1MNL9a4HqIyUQOi8f1fVZPOn67eYQ6j4lCcght+Xx0mCG8s2m8lHdnxbTLqMuQMgLokjK6eWjpKSMlEBgBR1OdTwvGaVclWPrcUh+KTfl+VE+6kkg54ZkkpJT9jK6CPNcKRNFLnW/NOzh+t7hVI8NiUfgKXVlPiSCxtxIJJXXiNeUMl0uI41zIYTDkEFx4oknRggjhPsJYS8y+OCDD+azLYQQIQwh9M769etbhPCUU04ZSDpIOSELe0RKC1YkRYvNpjmELNaQDS9N9DmEJE66nhJC0iaJEWWX7DnkPr2RDGlXpzmEiJjv0aP0lWYxzAx0aeRnpGDscSw7nFLCSWMXnjfnhefBZUZuIF+6vpeGliWj7NX0MlYWoTxupA9Z5CsiR8ko5b/IKOmffkbjGn1flxFZUkhvssP5Ic1EJnneiDr7SHldKOslPSW5RV55rEjjuKaD4qSTTuoqhPp9jRBOvhAihd1kUO/7+++/P59rIYQIYQihv4Tw9NNPH0g6SFdN9gR6SocMabHJgp9mLiRJJGcsLJFI5I1REEhFuzmEkkOEgJSOElUWfqSCCCBpmZdFss/RS0bLpjI6BnMIdVstsr3UlYWk7tPLR3UdnR+SwlJGvakMKSYpHWko54dRGF4+SkpHiWpZMurCxV5BOpb6ZR9/gdSRkvJYSVw9/eMyj5uSURbCvt+UlNSb1XD+/Tz5Xsamhjs0I+plIT1qMihOPvnkCGGEcIpu72G95z/zmc/kMy2EECEMIfSfEL773e8eiAxSaknzEfbU0TgFwUJc2G/XlNLRVKZM6bTIRZYow3Rp9IRKt/GUjjLUcg4hyRwlqjwuHjuzDpE6EjxSKU/pyjmElDn6HEISTG+s4wtLT9conURMy5TOx3Do2IgUz9WTQN8P6KMmKA3ltSjLVX3uIaWePubCy0dJMTk3pHc6hu8r5XzzGpdJIPLLbXh8NNahQQ8izGVKWhGQ6YrhMIVQSX2EMELI365u79VPfOIT+TwLIUQIQwgz48orr2wRwnPPPXdgQugloySEdAMVzCEk6ULG+Er5KGmjp0G+d6+pqQzX53gcg/JR7h/hQUy9NLFM6WgqowWcFso+65BySvZFki6y4PPElLJIRmz4HELGOvgcQi57IxkfKUESiDzpGCRlXjLqTWVI0WgYg6iXXUY9oeCYiBivhZeMkgLzfcZZUKKKRHOscsA2i2PGavBaIOiIMGLqcxbZW8o+ShJFynanUzo6TBkUp556aoQwQjj1nx2d3qv33ntvPstCCBHCEMLM2bx5c4sQrlixYiAyiNyQoLH49/1z7GcrRz9wn4gKDWdYTCKJpF00q0EufP9cmdKREtGchqTL5xDy2L37qJePIjfIqI97oKkMiZ0ej45DKkjiybnx7qN8j9TNUzovi0RM/blSolrOISy7j3pHT0pBSenYR1mWZFJmSukrIkxiV5aP8h8AJK5eMsr55370MxJdF/KyfBRpREaZjUj5KeffE1qkGPmlfNZLZUdVCFW6HSGMEHaTQb0X8jkWQogQhhD6QsOLXQgvuuiigQkhC3lvjqKFJz+niQqlgTRLKccv+P45n0PIoHkt3rSPjyROi1hSQASDnyGmneYQcmwXIBrUIGc0ZGHBiRTpZ4iRj3ugZLTscMr9IL801uHcIJFIXZnSuQw1zSEUiCL7M7kPPzckglyPx4e0liWjXq5KIxnKTfX8KO2kSQ73S1qnnyF4lJjyeiOmlMpyGbn0kRxe3sr7jSY7lI8iv5SesrcTOR41GYwQRgh7kUG9P/IZFkKIEIYQ+mb79u0tQrhq1aqByCDDyZtKRj0hREi08GQPnc8h9G6bpFU0TiEp06Lexz34HEKJItfXohdJ0THKsRjIF6LQbQ4hx5aI0UjG5xAyyJ77KecQ6ja+f85FmAQOSWL/IwlXp0YyHN8buDTNIfTSVc49j4nmMQh7OVKCtJFjcG68ZNSbygj2f9JIhsfNuUHouE8kmw6nvBZeMorwktZyGXGnDBU59PJR0t5RFMIzzjijJyHUey9COHlC2E0G9+zZk8+vEEKEMIQwGHbt2tUihJdeeunAhJBFF6kbe7woD2TAOh0vSXpY4CGTlIPq+1qEdmok4+WjdJ30lM5LRj0hRIAoGaUhDaLk5aMkgwgMcwHpMlo2lUFaECBE0ZNAxJGkjvPl8/ya5hCWTWUY9+B7HNlzyIKUJNDnECJlZcmoN5VBirk+ktpUPopwkWZ6SoeM8logyFxGyFmw81gpE/XOoSSBPvC+LBnl/eVlrF6+y/2OigyKM888M0I4T4Wwmwzu3r272rdvXz6/QggRwhDCYLj55ptbhPDyyy8fiAyWTWVImLRgRSCYQ8gsP8TIyzBJwXzkAmLkyZCSQJqJSMoQGR2DEkO6mlK+inyVcwg9pStnIJKgIZTeSIZFJlKENDKH0FM6SiRptOIpHQ1bKHFlYUtK6kkg6auOQTltmdLRVEYLTTqOUv7J/fnePc4LCRrCxOvBOed43lSGyzSFobsnwutDtnnclPEis5wPnzHI6+T7KCkZRQLpakvJLtJISoiY0rGVfZd+TkdBBsVZZ53VVgiRwgjh5AlhNxncuXNnZDCEECEMIQyW22+/vUUINYZiUEJIGWA5hxAZKpvKkNLRcZRSSWSRY/o4C8TIZahpDqHPQNT1EQFKVCmT9H11LP5IqHz8AskcIx48IURMdQzdjzeSKecQermkp3Q0tfH9c+yd9BEPlGFyfmjGosUnCaY3kvE5hF4y6k1lfMQDIo0MIvdII1KHuJUpXdMcQp+BSPLL/fEeaGok48kj56bscMp/ElCiisjyvMvGOl4+OkpCqPEv3YRQKeF0hLCbFEYIhyuE3WRw69atkcEQQoQwhDB47r777hYh3LRp00Bk0Es4WZT5HEKEjrJF5v0xcsHnEHpCSEpHcxAauVA+SpknCzBkhlQJGW2aQ0hKh/SwQKV8lMfow+tJBhEKRNEbu5RNZWjsgvx6OS0NZLx8lPPYaQ5hU1MZrk8TG2Yd8rg59wgenUIR4rJk1Lur8ly9kQySSvdS33NI6SsiRkpXloyWTWX4zwTul2TPy0d5TTkGSaCn1CSKZbkq70HeO7r9sGVQnH322T0JoZLxCOH4C2E3Gbzqqquqt99+O59ZIYQIYQhh8Ghx6UK4ZSq8mSsAAFJoSURBVMuWgchguzmENF2RAOgyC7OyfJTEivJSkh06TfocwrKpjGYSUn7IHELdnxaw7GkkgeQY7GukbNVHLviMO8QIwaPskPJRLXb9cbPgQ5JIxNo1dvEOp5ScUpbKMZBc7z5KgkfqVaZ0TU1lKFelRBUR5ByUox/4NyWZnJt2cwi9XBUhR3C9sY7PIURQef2QQy8ZZf9pUyMZnjfCixzynCll5fss4JFaPa5REMJzzjknQjggIewkhaMghPxutkNVG2+99VY+r0IIEcIQwuzwkY98pEUIr7322oEJIcKC3FHuSHkUSVlTSocM6Xj8TItFhsuzcGQxjzDRsbSXOYQkcIgADWnKURg+h5A0DTnRYs73z7mY0n2Ux4SkUD7qw+sRXlI0FqTIaLl/DjHScyKlYwyHdx9lkUpKikAimj6HsKmpDK8fKZ3PISTl4/Ejii5i/h8D3u20TOlooON7GRF13xPIZZJA3iPt5hB6Qohw8hy8fJTH22un0dmUQXHuuedGCOeBEHaTwTVr1lR79+7NZ1UIIUIYQpg9PvWpT7UI4XXXXTcQGRQkMyRlNGNBWNrJF0mZz5xraipDWaSuo4UxqRWNZJh1iGghPUgBYopYtmsqo+fA46VElduw2GSB5/MXvUyxTOkQMRJFSlSZPYhQe4JJukbjFJ5HU8lokwhToopEU1rrw+sRWBarPofQS0a9iY03kqHDKa8L0omQ8p4gHSSla5pD6E1lfMYjSTGXea9wn4g698P8waaSUf7jAWlH0LuVjs62EC5fvjxCOOFC2E0GV65cGRkMIUQIQwizzwMPPDDVwl5oDMUghZDB4+2ayiBDPofQG8noMqkR+8gQI12HlEgLYy8ZdUnyDqfcD6mgj8Uou3iS4JXliGVTGR/3oMuUbzJnsSwfRTp0DJ9D6OWq5egH0jUfw0HpK2kaDXD4N/JFmS0C6uWqvBae0vE6lHMIWex6StdUouopHXLIsSmb9UTXz4eLoncj5fVARklJfQ6hX9b9kQqS8Hr5KONAfO4hSTbne1gyKM4777wWIUQKI4STIYTdZHDFihXVm2++mc+oEEKEMIQw+zz00EP1YhMhvOmmmwYigz6/jw6eJDuUBJKOaWFOGSWpjTeVIdEh/SOp8kYyXj5K91HKQb1MtGkOITMQSfUQA59DqPt3YWCIO+LhswBdRhEx5gIikz6HkEWml9ZyHB/ZgIx6SucyxPHY44hE6RikgF4+6p1CaTBDSsdr4U1lfNwDHWA9CfSxEYgXjYKQWRbCvo8SWeb1JgFlwU4JLffFPkOfQ+izDr1MtCwZ5fX2/Zwko4gv/8nQrnR0LoRQQtAkhOUsQpUoRwjHSwi7yaAaCr3xxhv5fAohRAhDCHPDY4891tJpVEOPByWEyBAioIU8KR0JGk1SGAjPuAVSI4SScsSmlE6Ld5chLZJJt5rKRzk+QuT75zrNISRd47FzW8owWXx691HEgxJHT8p8/IIfW9dDQDmGN9nxRjIkgWWJqnc49T2V7OEkpWOhyv2zr46kDnH0pI1zzmvR1FQGcWPUBOfcB3A3JYE8BlK+pjmEui5D53W/lBEjzuXweh6LzyH096aLKeW5lI8OQwbF+eefHyGcQCHsJoOnn3569frrr+ezKYQQIQwhzB3f+c53WmYRvve97x2IDDLegM6dlOmRXLWbQ6jraTFJCaO+r+NTKuljAmicwt5CygC9fJRyTi9XZag990MqSBKIdPFzmrGQWnqXSz3esqkMYqrFOSmddx8t5avdHEJv7MJeQVJPUjpSTxrt0PCFtMvnENK0xZu5tGsqg5iyoEawvbFOUxJYNnnxOYSe0lHqSkpHN1Ofy0h6yf0idTxHzrmP3vBy1XZzCHmfefkoryvniffAsITwggsuiBBOmBDye9eOk046qfrd736Xz6UQQoQwhDC3PPvss3UqiBDecccdAxVCUj5KF7VQZCGG3NFExecQsuAv5xD6UHYtflnsU4bJ42VxhjRSZkpJICMQSOloQMIcQsSG0QwkjIghZY5ePkoi5s1cPKVDhhBhGrOwiOw0h5AFJc15SLuQobJcVeeGVJby2KY5hN5IhpSubOyCCJdzCBEu5kOyXxTR9JJUEkYuc854jdvNISQBLecQemMdbyTjSaA3kik7nHKZpjfILyW1pJnDkEFx4YUX9iSE2i8bIRx9Iewmg8cff3z16quv5jMphBAhDCHMPS+++GJ1ww03TAmhykcHIYNIC6V4XsrIIl6LUBZfNJVhlh/lk/ycZIdSVITES0bLOYS6jdJCkiddH7Fg36CXYVKe6R1OkSGfQ0hKRykkySOzDsvyUY5PqaQ3kkFYkRNkyMc6ePMYzpGLtieBlGB6IxmXVN9Tyd5Cyj9JK8txG1yH5jycW/breTOXdnMISVVdaun4WpaP+kxCUks/HiWjSCBSzFgTJJX3HeeHBNml0RfrXkqs+9TxhiWEF110UYRwQoSwmwwuXbq0euWVV/J5FEKIEIYQhsMvf/nLavv27VNCqAXooISwaQ4he+a0GGeMQ9McQvYdMoeQ2zKH0JNALx/V9ZA1RMVLRsuUDrFEBGgkw2gMxIXj+BxCShm9ZNHnEHpKp2MjWHoO3jW1XSMZzkdTYxdvKkOJKnMI6dRKKugySidRrkfJZFNjl3ZzCLktZZiduo/6fwx4Mkda6yLM9TnPvCY+sL4sH+U2XibaaQ4hJaoILuW0/IzrI6bDkMEI4eQIob+nmliyZEn161//Op9FIYQIYQhheGjPypYtW6aEUAvOQciglzUiG/qqhSeypUUj4kjaRXpUlgo2zSFEhhj3QErH/kCa1bCAK+cQ6rJuTxklMurlqjwPkktSOspMaYrjzVnYp8hYDOTEZZTUgPtBkNlDR1MZzhsJJnKKFPH4ypTO5xCyz5DxHpSh0pmV8lGSOh80z89J1tgfyF5PEkKOR4dT0lOf80fSyL+5XM4h5LVomkNIIxnOrXdg9QU4ySDvQQQXAS1LRn3fJiWwNJWZaxkUmkGHEDbNIowQjr4QdpPBRYsWVS+//HI+h0IIEcIQwnDR4OONGze2DKfvRwh9EUZKV5aMslDSYpNkiL2FdI2kkQyJHeV8CBP74UiifPxCOYeQ9EeLZW7Lgh859UYyyBeLQqSTvYyUjHpTGWRIJaokaKSQdEplocj9k4KRdpUpnTeVIZHU9xhsz/kpG77QrAYJ5DwhoE1zCHl8up7PIfTEjsYvngQiXt5IxhPTsqkMj4nU1/frUZJKaokwkhCSmJYdTv14XPb9nIgl7xVfqPtMQlJaRolQMjoMIbz44otHRgg7SeGoCGE3KZxrIewmg4ceemj1s5/9LJ9BIYQIYQhhNLj88stbhFALvX7TQUTCx0hQcuhNVBAMpK8ppaPU0Mc9kDDSSIY9gczEI01DQrTgp5QUUfHRD4ipLpPMcZm0kfTIG7LwPJAK3z/XlNJRYooYsnfP5xDy2JEjjteU0rkIczzGezBbD/kiTWNPHSWzpHSIqZerendVzomPe/BSUm9IQzLn+/XY41jOIfQ9lSy22TtJ6TDfR/C4Ps+X/YQ81qY5hLwW/h8JlBpzrkhGaTQzDBkUq1at6kkIFyxYECEcMSHsJoOS+J/85Cf57AkhRAhDCKPD2rVrW4RQC8d+ZbBsKsMCXAtWEhstQrmuN5KhfJTrcftOcwgZNaHFmBZcjCbQMShdRL4QIxIqRIyUzucQIhj6Hp0qdRmh9EYy3l3V9xz62AM6nHrJqM9AdBlClLhfT0m5X9+7541kytTMS1cRU+Yn0kWVy6SDpGnIEckj6V2nOYTeiRSppXurl73yvuCypys+95BSYl5vBI9GMt4RFUlERn3QPKWsiCnnsiwZpanMsIRw9erVEcIhC2EnKWwng/znRDv0+rzwwgv53AkhRAhDCKMthGqMMggh9LETSAVJGaJSNpXRdSgTJeFjHAOXETpKDZlXyEgDLbq8ZNTHQCAfiCL7ElkgsnePBR6pEaKKGDXNIRQupuxrpJEMwuLyRdqFwCKmHNsbu5SjH3RdnhPnh8veSIb00xvJNKV0neYQUqLKnkCEHRn1mYS+r9H3UfocQprKMN6DtJJzgLiV5aOUqJJgItidylUpUeW18/JR7wBJkon06zENSwgvueSSCOGYCWE3GdQ5fu655/KZE0KIEIYQRo81a9a0CKEWmf3KIBLh4xG8kUy5r44EDAnxlI4SSW8mop9rgUXCp8s0SqGRDGWYiCl75mjgQjLk3U6ZjUgZK3v0WKh6yaiPrSgbydDkpd0cQn8c7M3T/SNEnLOykQzHQ5LKxi5luSry6+WtPj/RG8nwmHg8vv/OG7t4+sf3KV3ldeaxevMY7h/h8jmEntL5DESeq48cIckry0e9UyilrJwP30fpl9vNIeR9Mywh1O9kL0J48MEHRwhHQAi7yaCes2a+5vMmhBAhDCGMJJdeemmLEC5cuHAgQshiqKmpjBbgdAOlqyMLNy0m2bPHoq0sHyU9LEtGvakM3yelYwg85aMs+Lh/7+iJtCAVuuwyROmkbqMk0BvJIBTefZS9Rd5EhQ6nPpOwnENIGSsyS8JI0uUyyuOmkQxi6h1OKRn1pjKksixskWKSUZ9DyPV5LKRqPu7BE1NSOuSV/yTgOXiCWTaSQeQpEaZ8l1SxnEPoZcS8zpSP+r4umh1Rosq5IZX19+OwhFC/kxHC8RBC3qPt0GN7+umn81kTQogQhhBGl8suu6xFCBcvXty3DDI6wpuleELFPjBkSJeRIWTQxz1QKkmixuLRj0HyhQAhnV4y6ikdDUR0fcSH8lEEkO6j3jCC8RJIkssQYurlqpSVIm00w6EMtal8lPTRh6yTxpVzCJEhOqpSoorQIXc+BJ6yT0SMtBAZLZvKkMyxj5KRHD4zsWlGILcV5RzCsqmMNxdCOD0Z9STQy0c9CfTyUX9deNzsfURuEWrKSZFFGKYQ3nPPPRHCERfCbjKoY3/nO9/J50wIIUIYQhht1q9f3yKERx555ECEkMSOREwLKS1YSfqa5hAiP+x18zmE7BX0OYRcJgnU9XUMRjWQfLHvEPlCIJEQT+mQIT+2HhNlpkgqQsp+R0pJkSIEqEzpfA6hz0Pk/rgtYyh8DATHKecQlimdl49SrqrbIMI+hxDpQ0b5SkrncwgRUxdhXc8bySDhvAYIHQlmWT7KfxBQJtpuDiFySWfZpi6o3n20bCTjiXW7OYQIus6Zjj0sIdS+XgmhD6dvEsJDDjkkQjgkIewmg7r9k08+mc+YEEKEMIQw+mzatKlFCJcuXdq3DPreLF+Aa1FaNpVBmFiMM4dQCyoWiJRvNs0hZOB6uzmECJPPIWTBzzF88Uca5c1VfA6hd7YkhUSGmEOo2/H8vJGMzylDYEmmOs0hLKWY9I20iwWul48iXpx/oXPZbg4hrwWSjvxymXPD/XJ9jsH559yUcwiRYlI6EkuX0aZGMqR3nBvGRZQlo95URvfFHEJeA2+AU5aPemdSXYf3xLCEUKl9hHB0hbCbDOp9/Nhjj+XzJYQQIQwhjAfXXnttixAef/zxAxFCkjlvIkPDGAQLwSCtQlQQDBI4LtOQRd9jnp83kuE4noIhFb5/zucQUpJKSoeg0O2U8lHSw3KkhO+lQw6bOpwiZQys1+OjBJbzxGLTy0c9XWOPH2JESudNZRjvQTJGaa4ngZyfdnMIWfCWCRzJnJfm0vjHZxgifsgukoyAebfTMqVjXx+Lci5TlupJIPfN8/byUR4rJaO8FiS3ng5zW84BX4clhJoNGiEcTSHk71Q79P58+OGH89kSQogQhhDGhx07drQI4Yknnti3DHpTGRb1zKvzlI6FmRaJfp8IAD9HWpChdnMIdRwlhFxfx6MM1buPksaV5aOklJQW+hxCL1NkfAYNXyjt5LI3kuEYiKnvn9P1y6YypHTlHELksywfdVFETD2l8w6nSDEdThFPPSYueyOZsnzU5xB6YxcXYcpHdR3OE3LO+fAkEDnzOYSIH69FOYeQY+vxIcX8JwO3bUoCeR6cD+926g2Ght1U5oorrogQjqAQ8vvZTgb13v3yl7+cz5UQQoQwhDBe3HLLLS1CeOqpp/Ytg95IxksCPaUr5xCy2NKiEBli8UhDEy772AqazJAWdUrpkCHSRco/WfyREPpeoXIOIXJTziHUcRBTUjrElDmEJJ6cG08CETEaw3hjF59DyD5KXUa4fA5hWT7aNIeQMQvt5hCSxnnzGJdzHh9lmN5IhoZANJIpS0YRYR4HezApPUUKEWruF6njnHLOPQn01x4ppoER4sxz8AY43BdfeV2GJYTr1q2LEI6YEHaTQb2fvvCFL+QzJYQQIQwhjB933XVXixCeccYZAxFCFtx0i9T3aCTDWAb21FFiyv4w5hCy/65sKuND2ZlDSEkjZZi+59BHHXinyaY5hMiG7pcET19J0TgHJF0++oF9jZSGuoxymXJVhqojpt7V1Gfi8fiZF0jpJcle0xxCLf5JxDyla5pD6N1HEV6fQ8hrUc4hZI8ejWR8ViT3w2tadh/1URNlSkcqSGkupag00PE5hF7eWpaPujRyW5dR3l88Dt6nozCHUI2eehHCQw89NEI4B0LIf5C0k0G99z7/+c/n8ySEECEMIYwnWly6EJ599tl9y2BZMupzCFmAa6GJEPocQi0Y2UdI+ShiwgKe/XeexrH4P/DAA1sSO9I3LXopQ9VtfdFHIkRCRdKFDHlnS0/pdBueE8dAKJAvFpW+59CHoSOm5RxCjk2qSErn5aPcl5dhljMCff+cp3RIMSkbiRx7GWms411NEUcSPATPxz14SocU+x5OxJn749wgl1yfnyOg7A8sy1UpGfV02LuSkpLynvAk0MtH2f84CiWjGzZsGHsh7CSFoyKE3aSwFxnUzz71qU/lsySEECEMIYwvH/vYx+pFJkK4fPnygQgh4yRIXii1pDyQTpPlHEKSMlI6xIX0r2wkw2Mi+SIBYg9bWTJaNpVhDiElqgiR7ofLXj5Koom0IEM6jkpUy3JVoWPTIEbHQxS97JX7R5LYH1iOX3ARRoZ038whJElFhL2RDOeenyGmPH8E1FM69lF6+oekclvfW+hlniymSenKklGfQ0hKR2LI+4bnxOPjte1WPur7KJFi77SKOHsnU13nHe94x9R7ZlhCuHHjxgjhCAhhNxkU+vuZz5EQQoQwhDDWfO5zn6sXnwjhBRdc0LcMlgkhiZIWpUgKoyYoH/VGMsiKj1+g5LFsKuMyxKxDmpAgeyz+2LdHySclqsgGpZqUE/I8GE9BiSplppSVktB5EkiqR4LmJaPIkEsx4zUoBaWkE7lGRr18lH2N+rcLEPsavakMIyEQQx63oLSWx44k8XPSNF4LSkbLpjJcppyTc0bCy2P1hjI8H9+754mdJ37l+8AbDfHaInTIJ1KNmNLkyEtGfdQHCaF+NiwhvPLKK3sSwoULF0YIZ0kI+U+OTjL44Q9/OJ8hIYQIYQhh/PnSl75U7dmzZ0oIV65cORAh9Hb+ZckoYsTin8YuNHlBjlggkkjRHZR0DTFyGWqaQ8ixkSotckm2fO+eD69H8EihEBJPBb2pjCTDUzrKRxnLwH22m0PI5bJk1JvKkDCSoJEEesMX33PIMRAxUj0vGaVc1aUYieeccz9IHeMqKPNEFOle6jLK+UeKaRxEasmx+U8D32vI9X1+oM899JJRn0PoezjL8lEE1xf7HIPnxX8MDEsINRs0Qjg8IexFBvU65PMjhBAhDCFMBBqgvHv37ikhXL16dd8yWHYZpbQT0SPZQY58DiFpYZnS6XbIkL5XziH0mYeUj+q+WOj7/rmmOYRerupzCNk/yHNCJMvy0TKlcxl1MUKEEVmSMJrpePko6Rqlk56UlXMIvdspcwgRSGSrLB/1RjKUj3aaQ8hrodvTVAapJhWkk6l3H/WUDvnlteA/D7xclSSP/0xwGfUUEXH0JJDvkxy6jPocQspYed78hwT3o68RwvknhLzPOsng3Xffnc+OEEKEMIQwOXz3u9+trr/++ikhXLt27UCEsKmpjBasyIgWoSzCyu6jiAE/Z8+bCwlliuXoBzWVYVGv4/kcQu7P5xBymdTN5xByvLI00Yeya8FcNpJhYemNZCiV9P1zXjKKcHJsT+mQJha3DJpvaiRTimk5hxAZYmA9KZ031inLR2kGQ7pG85mmOYRcpnEQIkv5KAkvaRxCxj4+n0OImLoI8x8IXJaYqEyU/wDg+i6NXj7qoyYQP09lR6GpzFVXXRUhHIIQ9iKD733ve/O5EUKIEIYQJovnnnuu2rp165QQaih2vzJIyV053sDnEHrJqDeV8TJFFo/sRyNh5DqkkJSP6jaexqnLaFNTGWYgMtjc5xDSSAYpRb48ofIh6S5AZVMZro80kqbxuEkaSfB8DqE3dnHR8aHsCBfpKZJK8kX5qzeSIRUkyStLRsuUzucQctlllNcWUaTcjgYuntKVTWVI8hBypJjH7gljU/koZbBlySjyy22Z0Yhgc9lny3lDGR7PsIRw8+bNHYVQRAgHK4S9yOBNN91U7du3L58bIYQIYQhhsvjFL35RJxIIoTocDkIIKaNEMLT40uKS/YA0TqHUExFAyJATLxkth7IjNswh1P1ShsmIBspHfV+j759jfx+Xy6YySATpH+fEy2G7NZIp5xB6Qsjz1mWG01M+yr5DbyRD+SjzEcuS0bKpjI5NSkd5LOWfyGg5h5B9jZSrcs6RLx5vKcW6LmKK8DZ1HyVpRGa9sYuXq9LlkdePElUuc24kcjx+HpMnhJQge8lo0xxCb+qjYw5LCLds2dJVCJUSHnbYYRHCAQlhNxncuXNnZDCEECEMIUwmr776aj0IGyGUHPYrg5QvtptDSJpDgqXLLMi1kKRstCwfZQFPYlgKiWAOIQkh+/B0bEQR+SIJRCzYw9c0h9BTOkoymUPI3jtdpnyTclDfc+jjHkjdENOyZJRjk4hyfe7Xy0q9+yjHQMi7zSH0GYjIr3d5dQGlvJPUFMHzJLCcQ4iUcWxEtpxD6ELnTV44z5wbLxllviGXSYc9SUWivXyUJJAEEulElnU/wywZvfrqqyOEcyiE3WTwmmuuiQyGECKEIYTJ5a233qrWrFkzJYRajPYjhCy0EKFyDiEJFIkbclI2dkGMKC8s5xBSSsq+Qx8pgRhp0cpij6SsqakMMsQcQm8kQ6MUGr14+SipG1LhJaNanHtTGUoddWySNxJJ7hPp4rn4yAbEqNw/hwxxPPbA6bbIZHmfPBYvH+V8tJtDyLnl+iRt3vzFh8n7HEJdz/+ToGkOIa83+/p43/A8SBV5zD7AHsHz8lHfR+mvkae4lMDyWF1IdZ/DEkIJSIRwboSQ92E7NALk7bffzmdFCCFCGEKYbC655JIpIdR+wn7TQSQCwaBMUMKEJGpB6Qs60jlEoJxD6KkgYoV40FVT19ExaMCi61BiSAJHgxLKJCkrJSnzklEfyo4A0aCGEkpKTj2xY9wEKZ2XKfo+Sm8qw7FJwGju4nMIfWwF/+YYPu6hnEOIDNFxFLH0OYSIOnsOy/2BpHmcc47nTWV0PcpjkeVOcwh5XyB4PDcEtGkOIY+dklFv9qN/S+RoUsNlXl9KThHTcg6hN5UZ5hzCa6+9NkI4B0LYTQYvv/zy+j/M8hkRQogQhhAmHo2aQAivu+66vmUQ4fI5eMhJu6YyyBAlo+wZJDFEkkjTKLf0lI4yUS8Z9XJVZEiPg/thLyP7FX0OIYJCSuiiQ0rns+8YNaHrcDweezmyAqHzeY3e2AUZ8jmEdOv0RjLclrSrTALbzSHUY2qaQ+j7IpFRjlE2kmEmIaJYNpLxJi+e0nFsSlS9sQ5lqew5RBy9cY3PPSQJpKupl6gisggkx+B+vaEMx/Vus8MSQv2nTC9CuGjRogjhDIWwmwzqb+LevXvz+RBCiBCGEOafEO7atWtgQkiyUw6ZJ7UjlaLkkxLCsrGLN5UhpaNzp+5Ti08aj5Tlo8iLd7n0lK6cQ4gMMYfQG8mU5aPsbUS+ypTOm8p4uap3XfXHioRSIkmCRhkljWyQUd8/56kg5aPsh6NklOfjw+s5hs8hRA69XNXnEHJ+SOmQL85PuefQZ/shsz6H0MtVvalM0xxCzhGPoykJ5D3iMspll2KfQ+jjNhDTYQnhtm3b9hNCMWpC2E0KR1UIeb+148ILL6z+8Ic/5LMhhBAhDCHMH3wP4Y033ti3DJYlo2VKJ3SZxIxUkD2DSJfPISQpI/VhkU/JqDeVQYYoH6XMk/tEvmgkgwggqZQWermqN5Vhb6Kug5i2ayRD+Wg59qBM6ZrmEJLqIbac53JMhY97KDuc+hgObyrDHEJKVBFBhJw01RM7Lx/lNaaZS9McQp0nru9zCD21JAksy0nLOYS8Ft5URteldJj0tCw39fJRkkAeX6c5hMMsGd2+fXujEJazCCOE0xfCbjJ43nnnVW+++WY+F0IIEcIQwvxCe2UQwltuuWUgQsji2ofAezKny14y6ikdJV0sHnU/LBhplIK4sO8Q2UBCmAXoMuqlq8gOcwjZo8hj9zEEJGWUZCKmLiT6t4sp+xr1mLTgRhRpoNPUSIbyUfZTlo1dvHsmxyY1YwwHUu17DsvGKZSAelLWVK7KefD5htyW23u6yPlpaiTjkupNZZBdXR8p5hx4mSj7DJFIzgHnxktGy6YyXjLqMyvL8lFJIyMshjmHUGXb81UIO0lhv0LYTQbPOuus6ve//30+E0IIEcIQwvxjw4YNU0L4nve8p28ZRAQQCRIlLTwRFp9DyN5ArteuZNSbyvhQdi2ESd+0SPXuo0iR72v0PXPlHEJP6ZAh3Ve7OYQ8P4SvaQ4hj7WpXJXHpMtNcwgRaxI6UkHSvCYZKpvKcH3KVTkGl13qfCahp3R+PJ9D6AmhHqeXj3L+vDmN7wdEZjkfSKDPIfRyVZ9DWDaSQSqbykcpey1LRnl8nhCyR3SYewh37NgRIRywEHaTwVNPPbV67bXX8nkQQogQhhDmJz6Y/vbbbx+IEPpCu90cwqaUriwfRRBJ1Hw/HILhZYplUxmERItl9vzpGKRf3kjGy0d5PGU3S59DqOvRVZNZh6RWpJ6kaeXcPeYVUjJJklrOIeTYnv55IxnKRREr0jXKPBEpBNTnEHrpKsmc76P00Q96bN5IxgUPQWs3h9CP7eWjlNN6V1NeRy8f9TmElNGWTWW8iQ3lo+VtPQnkvvie763UfQ6zZFRD0HsRwsWLF0cIexBC3lftWLZsWT2PNZ8FIYQIYQhh3qImFgjhnXfe2bcMlt1AERaamiAFSEU5hxAZIuUjpUOymEnIfZLYkXwhLC5APpOQRis+h1ByoEUsIxj0mJBFum36mAYkiaRMz6Ns7OKShPCQ0jFPsWkvI+eIMk9PytrNIaSJDR1OuS37FL37KAmaCyTng0QSGfWmMrwWpLVcJhHmcftICU+KEVPfR1k2lfE5hIgt56ZsJEMZKKmgi6mLIq+RJ4RNcwgRRO4/Qjj+Qsj7ph3HHntsZDCEECEMIYTrr79+Sgjf9773DUQIvakMqZL29CE/WmiS0Hn3Ub5SPsrtmxq7eFMZhERNZUi3GALvcwi9iycdThEXX0BybCTJh7Izz49SUn+sCJ0ngcwh1DFcUnXZRz94SoeAco5JFxE5JI9z227cAwmml6vSoRTB9Y6vXj7K40cgvbsnx2tqKkMyh4TzGpSzDTmGdyLlfLDPsqmpDO8Df0+4vPoeQBc80l4eqyfZNAIahaYy+n2MEPYvhN1k8Kijjqp++9vf5jMghBAhDCGE2267bUoItQDtVwaZ4+YdNhla7iWjTSmdLiNHPoeQMlISM+SLNI/SP0/myjmEyJAeB/vPdAyfQ0hi54kaEulz7co5hPoZTWwoUaX0lOfn5aM8dqTL5xB2ayqDINM1lA6nnigiW0gjpawIkKd0SLE3leF+fQ4hl3ltETked1k+6vsom5rKlHMIeU25T28kw+PmOXHO6TZb7qPkPwx8RAaNdnivcJ80kvE0U+djWEKoTr+9COHhhx8eIWwjhN1k8Igjjqh+9atf5e9/CCFCGEIIQotPhFALzkEIoTeTIfmjcQplhl7mSXdKn0PIcRAjukXqvii99EYyLBwROgTD960hES6jCA2PgwHryAoLzqbyURrJcAxkw8tHfQ4hKR0lquUcQgSQpI5EDRGj9BJ5bppDSPmobqcFPaJIOS3pm5ePtptD6CkdaZw3laGRDK8RexY5Py6N3kgGOfSGH76PknPhI0BI+Ph+2UiG+0Hqyi6jneYQ8vq6mA5LCG+++eYWIWwaTh8hbC+E/IdBOxYuXFi9/PLL+dsfQogQhhACIIPigx/8YN8y6J1GffQAciKYQ0jSxf366Aef56dFOgkXnSDLOYTeVEYLel1mgY800pilHALP9XwOISWIlIx6UxnkhOeE8FKuSpmnyxc/Q0x9DqGndL5/jrJabstlkjwfoYAU8VjLvXQ+h1DnmXSS0R7e5dWTQF4zBIzXo6mxS9lUhn1+OjflHEJvToPkepMXxJRy2bJkFKnmOlzmdfXyURrJ8Px5/Xhv8l4Uwy4Z1eiXCOHMhLCbDB588MHVT3/60/zdDyFECEMIwbnvvvvqRSdSqMVXvzLoySDCRUKlRTj78JrmEJIGeeLHqArkDKnjGCRf7NGjRJUFP3MBvVxV/0YUKT1FtEgCKTNkWDvjJhAYJKRpDiEypMU494N8lUkgAoTcIaYuN01NZZAnnqseszeS8e6jLneUf5YpHVJMSoe8UbbLbV3O2YPpjWQoUeX8k56WcwjpAqn78n2UnBvfZ+gdSJE9HynhXU3LpjLcjpJbl2hKaikf5f0zLCG89dZbI4QzEMJuMqj9xS+++GL+5ocQIoQhhFDywAMPVHv27JkSQk/s+hFCT8pIeRA65Au5YO8el5EQkihKQkmAkCF9n/16ui3jLGhW4yMreBxeKugzCSnb9DmEpJwMe0dGeawuo57Y0YVTt+exlikd5aq6ja5PuaY3lUHQuF+uz/FJvVyGynJVxFTX4bGSSPK4Gf3AcZrmEHK8dk1lKFFFZCnPdGn0JJBGMt7YpdMcQk9rPcVlDiFJoEtj2UiG27ZrKkNira/DEkLt6Y0QTk8I/TVuQs//+eefz9/7EEKEMIQQmvjKV75Sl6khhFogDkoGPSVC9HwOIUJRlo+WjWRIAhFLXYekBxlqmkOIHGixzJ4/5h5SgumNZEjseDzIDULioyZoKkNKp6YyJGgkoDSrQUa5f9+rhnQiQ+UcQs4h4x5I0EhckRlkDvlCkj2la5pDiBQz448OqXrcPvvRE0akrjyGi6mLMMmtoFwVyeR8cP/eSIZjIKbeuEY/p3TYu6v6HkfvUMr5KZNAL1FlL6huMywh1CzQXoRQjVEihO9sSYmb0HP44Q9/mL/1IYQIYQghtOOJJ56oduzYMSWEEptBCiFyxX49EiqEsN0cQoQNYSJR021pyEJiR3MWT+wQIKSz3RxCShMRAW5L4xsdg+97GSaPhbTL98+VcwgpS0SEKVHtVD5KMxjKR0k3kR7KIn0OIV1Uad5C+Sjn37t4ljP4SMq8sQsyxWtG4kbXUG8kg1BzPjo1kikbu/B9blPOIaQcsCkJpEuoN5JxUWxqKkPjIJJRhJpzOMySUaX1MxXCTlI4KkLYTQqnI4TdZFD39+yzz+bvfAghQpiTEELoxDPPPFNt2bJlSggPOuiggcmgjyugJJAmIyR9usx1SQRpXOJSgAxRMooYIV+6rH1CyIEWupRWluWjyBct6r3TZJnScWxSOhqkMO6B+yEJ9PJRJI40ypO5pjmEiApi63MI2d9Imsbj9nJOSlSbmryUHU69hLapfNTnELIHsiml84SW45GeUjLqcwibykdJ6ZAxL1dF9MumMp7WIq8SKh53UyMZH0fA/siyZHTYTWXuvPPOeh5ohLCzEHaTQV3ne9/7Xv7GhxBChDCE0I0XXnihWr9+/ZQQHnLIIQMXQpc7FvAuRkgCcshin8SQJJCFuzd88dTHBcjnENJUhuuQ9iGm3A9JIGWkpGvIQzl+gTJF/czFlPJR3TdD4BFLRAz58jmEpG6IKc+1TOmQYvZa0iyF8+NdPJs6nJZzCClX7WUOIcKO0CG1HKNs5tI0h9BTOu/yiuTytWwkQ/kqyaN3VG1qKsN4DhJWGha5NJI2epqp6w5LCO++++5aCMtZhKUQLlmyZN4KoafBTej37Nvf/nb+vocQQoQwhNALGtC8Zs2aKSE87LDDBi6DLoVIDtLFPj72sHlK1zSHULen7JM5hHTgpHwUiSORQoDYd+YyWjaVocMp8uYzCXluXj6KeHn5qA9J926neqw8Djqc8ti5TCOZsnyUjqMIjTd2aSpXpXyU27Ln0B+3d/GkyQuC53MIfR9luUfPG/wgaJTwcj7KRjKcj7LbqTeV8REgCDnyTvlomQSyN1DX4fuku01NZXgteO15jYcphJLBCGF7IUTq28mg3iPf/OY387c9hBAihCGEXvn9739fXXDBBVNCqO6FsymEpG4s6LUIpJEMl72Ej3SNvWfsv0NO6KrpTWV0PeYQIpBIDYt/hAfp8oQKYW2aQ0jyxbiHspEMIksSSJdQZMMlpGkOIcdmLx234bXgGE3lo5SZknhxnprmEPI42MPJbWkgw2tECuh77BBTP4aXjHpTGd2ONNPPAeeGclpPBHlv+PHKklFvKkNzIUkgo0FcGmkkg0jw+nFsyomHXTKqxxYhbC+E3WRQr/3Xv/71/F0PIYQIYQhhOuzbt68699xzp4TwyCOPnBUZLMWQZMiHkJOUIUmMe2CxqAUfMwlJzJBMrueNZJrmEJLSMQ8ROaRclaSLZiZII0mbD1ZHSLxk1OcQ6jZajHNbymNpJEMjFu6f61FCy57HpjmEeuzIEykkDV8oVyWBI20kraMsFOnsNIeQlI69kLyGJHFNSSDH8P1c3uSF18JnU/ocQtJdb4CDyPGacq74fim/ZVMZSlR57Tg33gDHjzEMIdRjiRA2C2E3GdRr+NWvfjV/00MIIUIYQpgJy5cvnxLCpUuX9iWE3WSwqYQUCULIXGjazSFEkhAuXV+LWxqlMNuPdBHxRIAoUfWUzucQImI+7J35hhzDy0cpt+QYiKnvn0NGvakMKR2JHzLq58OTQOYQ+jgFF6Cyw6mndF7eSkKHUHsSSBLr3T09pWuaQ4j88hpRnsn5Qco8EeT5sC+S18L3USLhXpbqpaSeBEqquG/KR72JjUuFdzvlvaj71/MZ1tgJPYcI4f4y6KNNmtB5++IXv5i/5SGEECEMIcyU8847b0oIjzvuuFlNB5vwfXJIHPv4SKq84QtpFalgpzmEguH1un9GVlAK6mMxKJfkMmLkjV2a5hDSSIZ9bsgXcwiRUZdGHwPBOfCSUW8q43MIafjCvkhPXJFFUjCkh32RPpOwbCrje+nooupyznXKOYQ8PhLXpiYvSDGC7OKMzHkJp0MDGD8eMuqpIMdDfnm9kAlKeL2RDPsMef+xZ1TPdxhCqOP3KoRK8ueDEPoe0Cb0uj3wwAP5Ox5CCBHCEEI/XHTRRVNCuGzZsjmVQVJCkiRvasLin/2FpHSUXrK3CMHzRjKUB5KglSWj3lSGksNyDiFNb7hMcoV4IVy9pHSCOYS6rY7NvjXKRxEjkjqOWY6XKMtV2bun21Cu6uWjSDUyh4gi4QgX+wZJ6bxclWOzhxNJ9fmEpHrcN5fZE0mJqpeMcr1Siss5hD5AnnOL1Hn5KGWi3u3US1e9fJRzwZgPTxSHIYR6Dr12GZ0PQthNBvWzz372s/kbHkIIEcIQQr+sXr16SghPPvnkoQihw74637tHl0t9D/mikyYypDmESIQWwQgdJZlAWoTo0bSFxi5eMurD112y9NhJu2hWQwpZNpLxMQvt5hAipqSWlI/6HELEhYSNJJDH6nMBhXc71fFI4BBhEjFEiyTQpREZRbh8vES7OYS+h5Mur8hW055DEjz+7eLXaQ4hUsz7g5SNJNClkWPwPR+DQipLOfKwmsroMUQIe5NBcd999+XvdwghRAhDCINg3bp1U0J42mmnDVUGu+GNXhABxKjdHEItiFn8k9Kx+Od+SQWRRqSEf/uQ9aY5hCoZ9QYzJGM6BrLlQ+ApTyXBQ8B4ju3mELoUIzbIHvslfQg8qWDZSMZLRhFTkkr229E8ppxDSDkt9835QEwpUS1LRknvED/2YyKZnA/fW8hjRvqROn2f16LdHEJdx5vv8F7hflwW+UpCOwwh1DnuVQiPOuqoiRVCXqdOMvjRj340f7tDCCFCGEIYFJs3b54SwjPPPHOkhdCTvna4NCJxyIvvn9PCtZxDyOw6Rjww/4z7Qeo4DmWeJBpl+WjTHEL22yGdJJiUZiKLyJKXjyI3Pn6haQ4h3+e2PG8a0nDfZRJI+ag3lfFRDj6HkHEPpKfe+AexpEkNj8n3CiKcZcloKcXsA6SMVfLm4kbKSCMZ7z7q0uj7KH1/Jf8RgHQPaw6hHut8F0LS5E4y+MEPfjB/t0MIIUIYQhgku3btmhLCd7/73WMtg01yWOIpnZdL+tgDH7+AVPgMRMY90HQF2aPhi3cfJZHyUQdIqpeMlnMISRX9ftnzRiOZcg4hTV5ouoIAkSKWTWUoGUV+SSsprW1qJMM+Ozq1tptDyPd9DiGi7fsjfZwEx+B4pLQIKK+FN5XRdUlrSY0lh5wbLx/1WYfefZTHo8eqr8MQQp3L+SyEPpKkHToX+ZsdQggRwhDCgNmzZ0/9v+4SQo2gGEUhHJQMdsP3LyIUJGc0ryk7nOrfjFzwlE6ywVgM9rz5HEI/FhJEOuhz/sqSUf3ch7KTQtJFtSwf9T2HHINUEEn1ktGyqQzjHrhfSvo4z74nkPPhewV9P5gv+l2KOR88JkSa8+HSSCMZ3xPoJaqe0CLFXKfswOqpJeKor8MQQj3WYQhhJymcKyH0/bXtuOuuu/L3OoQQIoQhhNlAC0wtQCWEK1asmOh0cDpC2AuUdnoJpncf9ZTOO5zSNRVRofxU4kX5JM1tEFOkkdSMlM5lyDuc0tiFlA4xZe9eWT6KNCK8iFiZ0nE8H/FAiSpi6uWj/lh9yDzH4zb8jNe7bCqDFHN9nR/KR0VZPlo2kmmaQ6ifkwryuIchg0Ii1YsQikkSwl5k8NZbb83f6hBCiBCGEGaLT3ziE9Xtt99eC+H5559fL5xd+AYphJMkg6UQdgLhQhoRQOYKdppDWKZ0jOHwhi8kXV4+6ikdItU0h5CmMkrsSA/LOYRlIxkEz0dNNM0F9KYyjPdwceYyx/IkEAH1OYScGz+ez0CkkQxJqjcBootsObqAJjYI97CEUOesVyE8+uijJ0IIe5HBG264odq3b1/+VocQQoQwhDBbaLDzTTfdNCWELoLtviYdnJ4QliliEz4nkDQPwdNXSji9sYs3lZHcMIeQElVKOykN5TGQBJLM9TqHkAY1PocQefXH11Q+Ws4h9JLRsqkMpbkuyJxv0j99j1QQ2Su7j7qk0lSG8R6U75KYDqtUFPQ6zich7EUGt2/fHhkMIYQIYQhhtnnkkUeq6667rhbClStX9jSHELkrJc+/HxmcnhB2E0VA5nwOIYmdCxAlo+yra0rpmuYQcr9cn3STy6SWnsZ5Uxld5th0REVqaSQDPoeQf/scwlKEPfHzOYQ6BuWj+rdLY1MjGZ6rvuqxDquRjCOhmy9CqPcdyXQ7tmzZUr399tv5Gx1CCBHCEMJs89RTT02Nnli1atXUqAXB0HVGLpSlpKXwdftK8sTXSdg7OJcy2AuIFV/LRjJlSudzCEnaeM24PgkjrwnSSMJTlo96SlfOIeQy5aq6LY/Dy0e9Myj3iyjSebUsGfWmMshvOYeQOZRlo5phC6FmZ84XIewmgxs2bIgMhhBChDCEMFc8//zzU8Pp16xZM7VoK8u7hMshgsjXfkpFmwQx6eDMhbAXXBpd8EjpkEOaz5RNZZhDSIkpiZ13H/X7LFM6xLKpZJQyUcpdSfW8jLVsJOPlo8wkLMtH+Z4eN4nlsAbRlxx44IHzQgi7yeDatWurt956K3+bQwghQhhCmCt+9atfVatXr66F8LLLLmtZIPrCryz5KkWxSRbblZiWklgK4UxkcCZCOF9lsKlssxfK8lFSOtE0h5DEDuHUe4R9kk1zCEn/fA4hYtpuDqGXrtJF1ctHSQvL7qP8exRkUCxYsKCtEAoXwqVLl46lECL97VCFwt69e/N3OYQQIoQhhLnkzTffrJvJSAjXr19fl669613vallkNkmivrbrHNgkiZ06lE4nHWSUAV+TDs5cCKcjg6W4tYNGMoiYXmsvE+Vy2VSGBjrMQ6QhTtlIhvQPuaCLapOMIo26f32fPZCki6PEIYcc0lEIlRKOsxB2k0H9DfrDH/6Qv8khhBAhDCEMg3PPPbcWwk2bNlUHH3xwzUEHHTSFytkkilp0ShbLhaYvHtslip1EsSw7LZPDpq8uhMidi15kcDhC2IQkziFh5D6Zs+glp2VTGRrUcB3mEPJ6SqpIFv0YXIc9hHQnHTUWLlzYVQhJCcdNCJtGfjj6+/PGG2/kb3EIIUQIQwjDYvny5bUQbt26tVq8eHG1aNGi6rDDDqs59NBD68WqEgyJokrbEEVJomRRkkiqyCK0XFg2iWK7RLHXJNHlsJv8ld+jHHEShHCcZLAXJEj66k1ymK3YaQ4hg+ZpYEMTm1EqDW2Hftd6FcJjjjlmbISwmwyeccYZ1euvv56/wyGEECEMIYxCQrh79+66YYU48sgja4444oiaww8/vBZFIUEUkkWJosuiBBFZdFEsy0/bJYouiO0SRe9y2q7UtCwt7ZYOdhPEpINzI4TTkSjfE6h/e7o4LiII+o+Y2RLCblI4W0KIwLfjlFNOqf73f/83f4NDCCFCGEIYNitWrKiFUAvRY489tlq2bFl1/PHH1xx33HH1AlRlahLFo446qhbFJUuWTImip4qIoqD8lFRRskj5aS/7FHtNFMuRGO0a1zTtN+wkgHMthPNdBsdJ4AaNfpcmSQi7yeAJJ5xQvfrqq/n7G0IIEcIQwiiggfQSwg9+8IO1+J100kk1J598cnXqqafWX/VviSKyiCiWsihRLGXRy089VZQouiw2JYosZsvFaNnMpilRbJqb2FRu2iSJ/rWT8CUdjAwOAv3OTIoQktK2Q38v/ud//id/e0MIIUIYQhgVNH8QIZTwKSWU8JES6n/z9f0TTzxxShRV7qWvQt9vShVFU6ooSSxLUD1VRBQ9USxTxekkip3SxH6SROSPywhiSkUjhNNFvyOTIIQ0AWqHnudvfvOb/N0NIYQIYQhhlNi8eXO92JQQKi2UtEneJHESOv2PvhahLoqSxG6yqH+7LOq2uo+mElT2KkoWSRXZq+j7FOmAiiw2NbRhoVsuYMuyU2SxW9lpKYllguglpikXjQzOBP0+NAlh03B6/Q6NohB2k0H9Xv/yl7/M39wQQogQhhBGjV27dlV79uypU0ItSiVflHkqwSPRQ9okixK5drLYiyi2K0Htda+il5+WexXbdT9tamgz00SxHIHhSWIph02lpH456WCEUL8/4yyE+r3o9J7Q7+rPf/7z/L0NIYQIYQhhFLnjjjuqG264YapsVBInsZJgIVsSL0ZQdBJFSZxkTmI3U1nU90kgdbtSFssOqIiid0Atu5/6PEVEsVwwaxGsxW3TPsVuiSI0dTntlCQKCR5i2KsgzoUQRgbnDr3Hx1UIu8mgfv9eeuml/K0NIYQIYQhhVJEEXn311VNCeOedd9YLQi0kGUZP6oYozkQWO6WKEsBSFIVEsWxsgyx6+anotQMqDW0oPy1l0RNFXzAjiWX5abeOp70kimWjmqaSUpfFpIOThd7TvQqhfmdGRQj1Pu/0ftDv0wsvvJC/syGEECEMIYwyn/70p6srrrhiSgjFrbfeWsubpAcJ0kJQC0UtIjvJ4nREUZD4uTBOJ1XU9zxV9BJU5ip6B1REsV0HVBJFyk87iWK7zqftEkXveFomit3KTpHFMinsJomRwdFH799xE8JuMqjj/vjHP87f2BBCiBCGEEadr33ta9VFF13UIoTiAx/4QL04Peecc+oFoqSG8Q7dRFEgUzOVRS9BbRLF6TS28VRRUH5alqB6qkj5abuZijy/sqGNL6jZowi9NLNpGolRlp02JYlNZaX6KsFzMexFEiOEc4vep+MkhN1kUH8XfvCDH+TvawghRAhDCOPA008/XZ111lmNQuhs27atFiUXFxKv6cjidFLFmcridESRxjZegqr7JVV0UfQOqOVMxbL7qctimSrOJFH0jqdNktjU4bSUQ2SwU3oYGZx79L5ECMUoC6Hem53eC3ofP/PMM/nbGkIIEcIQwrig7n8So25CqMWo0CJ1w4YNtSRJUrzckb1y0xHFQZaglqIoEMWZlqD6uAxPFV0W281U9FSRElQa2jBPsRyT4Ylikyw2jccoS0/LWYntmta0KzHVwt7lsJsoRgb747TTTmsRQqWEoyiEeg92eh/o50899VT+roYQQoQwhDBO/OEPf6ilplchFFqcCiUZmmMoYZKYuByWzEQWexHFQZagzqSxjTe1aZqr2NTUhoY2eh5efurdTzulip0SxXI8hktit0SxFMOmFLEUxKSD/XP66afvJ4Q+nN6FUO+7YQih3mud/mNA779vfetb+ZsaQggRwhDCOCJ5mYkQghasWsRu2rSpFiZJSyc57EUUZ6MEtZMolrLY1Am1l1SR6/texaYOqIgisuijMsrup77oL/cplvMUuyWKvk/Ry087JYpeclomie3SwnaXI4D7c+aZZ46cELoU6v3USQb1fnr88cfztzSEECKEIYRxRfLSrxCCFrBayGq24cUXX1xLkcSkV0EcdKoo+hmX0asodpJFUkUvPy3nKtIB1WWxTBU7zVRsShQZkcH5QhL1tZyj2JQouih6I5umktMyPSxTRL5KgCKGrbz73e8eWSHsJoN6fzzyyCP5OxpCCBHCEMI4o5K1QQqho0WtFrfbt2+vzj///Fp4upWXTlcU56KxDbI2E1ns1timXQlqWX5adkBFFEkVvalNp1RxuokiaaIniu0ksWxe09Swpl0JabvLk87ZZ589kkLYTQb1uj/00EP5GxpCCBHCEMK4s2rVqnrxOQghLKWQ5highe5dd91VXX311fVCWMJVNqcZpCx2E8XZKkHtJIoujL2UoJIseglqOVeRVLGcqdiUKrpAdJunSPlukyz6eIymstOy22mnjqZNpaXzRRDPPffcnoVQ74m5EEK9D7rJ4IMPPpi/nyGEECEMIUwC11xzTXXbbbfNmRCCFr5CgqixFpqHKPnRQnVQgjhdWSyFcTqiOAhZ9GSxqbFNUwlquVeR4zV1QC3LT737KbJYlp+WsthJErsliu32JnYafVHK4qTtR1y+fHn9OzAqQqjXWa9JOxnUz+6///787QwhhAhhCGFSeO9731uXdA5LCIEFsbjllluq9evX1zMSmX84G5LYiyh6sogsznVjm7IMtZe9ishiOVeREtR2TW3oftqUKvqIjG7lp979tNyjWDazKdNE36PYrstpN1Ecl4RxxYoVtRA2DaefayHsJoM695/5zGfydzOEECKEIYRJ4sMf/nC1du3akRJCLY6dO+64o04RV65cObWParYEcTZTxdkoQfWxGZSbkiw2yaJuz1xF74DKPkmXRVJFSlCbyk9JFZsSRdFUeto0R7Gp62lT6WnTPsVxThUvuOCCkRBCvWadZFB84hOfyN/MEEKIEIYQJg2Vf6nTYa9CWErhXAihFsxw55131qjMdcuWLdWFF15YL5QlK2UKNdei2EkW+2lsgyhORxY7Nbcp5ypyfe+A2tTYxkVR8JjLmYouKYgHCWuviWKvqWJT59NOJaijlirq/TtsIexFBu+99978vQwhhAhhCGESeeyxx2oBGDchBKWHoPJX7YlUoxxJj6RKkjEXkthPqqjFOYv7uW5s0ySL7VLFphJUOqA2jcrg8TeVn/K8fUxGL91PvQS13Keor91SxVFrbKPUu1ch1GsyaCHUedf56SSD+huQv5UhhBAhDCFMKD/4wQ/qReUkCKHYs2dPC7fffnu1Y8eO6rLLLquHgEuetAieS0mcy8Y2Pi5jurLYbWRGOS6jTBXZC1k2tfHy03KmIqMymKnoqWLTTMVeU8V2JagzbWzTxCCEUP95MSwh7EUG9VjydzKEECKEIYQJ5je/+U29QNaCcxKFUN/T9Vh0s/BWyanSxNWrV9ddPCUtEo1RFMWysc1sjcvopwS1qbGNp4rsVSRVRBT7SRVpbNNNFts1tiFVHFRjm5mkinr/DUMIdS67yaB+f/I3MoQQIoQhhAnn7bffrhe9W7dubZsSjpIQllI4UyFsWnjrq8pONSfx4osvrkVHsjKbXU4nqbENoijKLqhlqqj76jZX0Tug+qgMTxW9A2qZKrostmts025URru9imWq2G9jm0suuWTOhVDnSc+nkwzu3r272rdvX/5GhhBChDCEMB/QIvH000+f90Loi289b52Hf/iHf6i/qvRUiaLmJUpwJCmjKIqz0dimSRT7LUGl/FTfZ19jUwkqqSIlqE2Nbdp1QHUh6mWvYi+p4kwb2zTtWRTT2UOo89WvEPYigzt37owMhhBChDCEMJ/Qgl4L3EsvvXSqdHQShbDbwrudEH7oQx+qx3P84z/+Y406Ln7kIx+pv+q+du3aVV1++eV1t1ZJzLD2KA4iVRzlxjZlB9R2jW18rqKnik0lqJ1SxabGNpzXpsY2vY7LcKZTMtqvEOq56vF1kkFVCkQGQwghQhhCmGco9WJBqEWwZqNJpiKE/18IRSmEH/3oR6uPfexj1T/90z9VH//4x2s0q+2f//mfa4Gk/FTnV3Izl6Mx2kGZ5HS7oCKM0xmXMejGNvpKssh1ekkVuzW2QRSH0dhG74+5EMJeZPCqq66qS8jzNzGEECKEIYR5hhKupgWiFsvLly+vrr/++jkVwlIKR0UISQl7EcL77ruv+uQnP1l96lOfqj796U9Xn/nMZ2r0PR3nhhtuqNatW1edc845tcxo0T5uqaLL4qBTRWRRojjdxjYkkKPe2EbXU3OjuRBCCWknGVy/fn311ltv5e9hCCFECEMI8xHJTafFIsmhmoRoGLwWqxHC6QkhUvgv//Iv1Wc/+9nqc5/7XPX5z3+++td//dfq/vvvrx544IH6Zzr2zTffXG3cuLGW8XGVxU6p4qg1tkEUmxrbIIre2KYclzGdxjYuinrMvr+1mxBKfmcihN1kcM2aNdXevXvztzCEECKEIYT5yn/8x390FUJHpW5azJ911lnVpk2b6kXtuAthufgehhCKf/u3f6u+8IUvVA8++GD17//+79UXv/jF6ktf+lL9Mz2G97znPXVp3/nnn19LjRb949TYZqYlqLMxLqNbY5syVfTGNqSK3timXapYNrbhPGzbtq2rEIp+hLCbDKqpTWQwhBAihCGEec5///d/T0sIS9QcQ4tPLbLVXEXSEiEcrBCKL3/5y9VXvvKVmq9+9avV1772terhhx+uv6/j6bmoFFXlf0oXhymMg0gVkcXZShX1ldSwXQlqmSr229iGVPHss8/erwNut/fldIVQr0On39sVK1ZUb775Zv4GhhBChDCEMN9RIwktyvuRwhIt+rWAVkMVdS7UgteFsJTCcRZCMUwhVMIrvv71r9c8+uij1WOPPVY9/vjj1Te+8Y36ZzqmntMtt9xSXXnllbUMSI7mWhgRRUHnznFsbEOqOJPGNrquxpjMphDqPHf6/ZSQvvHGG/n7F0IIEcIQQvg/NmzYMFAhLFHLfS1UtYhWmZrK5bQQngshFLMthKSEsy2EDz300LSF8Jvf/Gb1xBNPVE8++WTNt771reo///M/q29/+9vVd77znfrnOq6em5qcaJ+oOs1KXCRj87WxjYuimM64jHaNbfQ9JehNMzIHJYTdZFAzR19//fX83QshhAhhCCH8fyQasymE7fYiahGvBfSqVauq7du3Ty2MBy2E01l4z7UQirkQQqSwFMKnnnqq+u53v1vzve99r3r66aerZ555pkaXdRs9Lj3/W2+9td43et5559UCJTEbx8Y2iKJgL+BsN7Y57bTTqt27d9fp4EyEUPfRTQh1jjr9zkkqf/e73+VvXgghRAhDCGF/JBEarj7XYuhoPpsW71pcK6XavHlznagMUwjL4fSzIYSkhKMohPqefqbr6fq6ne6DxPGRRx6pn5vOnYRHr5lKhSVHEi5J2zAa20gUR6Gxjd7L5557bj2XUsyWEOocdPrd0uN49dVX87cuhBAihCGE0Jlnn322uummm+qF7zDlsBx7ocdz5plnVmvXrq127twZIRwRIdT96jg6no6r4+txSBT1uPQY9fh1TnSOkcYLL7ywlhSJl4TNZ/RNyrgMCaJKcFWKO5tC2E0GJamvvPJK/r6FEEKEMIQQpsfzzz9fC9IZZ5xRl3iOiiCKP/3TP60X7EqiSBNV0jhKQlgOp5+vQqjHqsesx67noOei56Tnp+ep56vnrvOl8y5p2rFjR3XFFVdU55xzTp22ScIkbZK7QYqiGPS4DMmhRoOoiY/ek4MQQpWeNgmhHn+n3xOJ6a9//ev8PQshhAhhCCH0hxIGSc26devqxe8oyaGPwNCiXomNFtDam3jNNdfUC/GmhbeYFCGUgI2zEOp56/nrPOic6PzoPOl86bzp/Ok86nzqHOs1kljt2rWr3td48cUX1/9xoXJNpXaSNgmdksFe08eZNrZBFCWJKrtWgq0kVDIoVPY8XSEsh9M3CaEeX6ffB/0evPzyy/n7FUIIEcIQQhg8P/vZz+oFu8ZKqDROMjaKkogoaiGvUj5JA2WnWoiXC+9REkIxF0KIFPYqhLo9UjibQiiahFDnVedY51rnXOder4FeC70uen30Wuk102un11CvsUTsxhtvrN+zkshLL720TvLOOuusuuGKZFLvESV9kjuXL2YI+nxElYyqHFOdO1UCq+65N998c50MlkJISjgoIZSodnrPK6n8+c9/nr9VIYQQIQwhhLlBDSu02NdC+NRTT61LOkdVEH0chhIeNQRRaaKGumtBrwV4L0JYDqePEI6uEOr1lOhL+PX6SrQkXBIv5mLS4ZbmRZQeS+IkdBI7JE/Sp/eK9ttKMoUuz4UQdpNBlbL+5Cc/yd+lEEKIEIYQwvB48803a4GQQCmNUYo4avsQO4miSgLVPVLp0WWXXVYnilqwRwjHQwj1OkkKJ0UIaSqj8tVO711d54UXXsjfoBBCiBCGEMLooYHYkggtzpXGqTxvlEtNm9A+M+2h1Jw5jVe4+uqr60W+JGS6QlgOp58NIRSzLYSSTh1nFIVQKeEkCKFKWrvJoBrfPPfcc/lbE0IIEcKchBDCeJWaSiS06NWeLjXCGDdJZJ+imo0oVVT56YYNG2o5kIgMWwhJCSOE4yuE6rTa6f2nPbIaGZO/KSGEECKEIYSx57XXXqvFQ4v7a6+9ti6X69Zef5RRB0ulinoeq1evrq677rp64S+5makQilEUQjGKQogUTkcImW05bCFUufKf/MmftH1/aU+hXq/87QghhBAhDCFMLG+//Xa9N0rSoIW1yjXV6XFcJdG7n6qpzfLly+u9lnpuEhukcByFkJRwvgohUjhdIRSlEOp6nUpFNXpCr0v+RoQQQogQhhDmbcmp5EcL/quuuqpatmzZWKeJoC6tEl51l1Qp7fXXX19LjOTIhRApjBDOrhBK5qYrhKSE0xFCPQ6EUGi0Rbv3iOYl6jXI34EQQggRwhBCMPbt21e99NJLtXxo0a/9fMcdd1zdEGbcRVH82Z/9WT1aQI1tVq5cWZfVSi4kRxKvXoVQzIUQiukIoUpoR1EIPSWcTSEkJdR8w07NjXSu8/seQgghQhhCCNMsO5WEaPF9xRVX1IPFJViTIIqUoarEcMmSJdXZZ59dd3OVnGj8gqRLEudCSEo4akJISjhfhfDyyy/v+B8COqf5nQ4hhBAhDCGEAbB3797qxz/+cS0kWqRr7qC6Ok5C6WmJmpMccMABdbq4atWqavv27bWASLiUKo6aEKoj6ygKoWRvtoRQia9KhsvyUF4/nb/83oYQQogQhhDCHJSe/vznP6/lRoKhbo8rVqyoDj300Hp4/aTJIk1KDj/88DpdVKmtpEZSJWGTBA5DCJUSjqIQSvoGLYSaa9mUWGvg/B//8R/X5ym/myGEECKEIYQwZN54443q+9//fi0xWshLnpS6dRsePs5IgjX8XOnpBRdcUG3ZsqUWHAmYzgMNbWZDCJUSTroQbt68eb9kECTpOh/53QshhBAhDCGEEU8Vf/3rX9epmURFoqARGYsXL+44S24SUIIlYTzyyCOrs846q+6Oum3btlp+JGYSmn6FUExXCLV/ctSFUCNH2smg0PPP71cIIYQIYQghjPlexeeff76WIUmJEjZ1kpRETbIolg1RtIdRzXxUlrp27dpaGiVKkjYlgN2EUNcZRSFsN5y+kxCyZ7XTfxbs2rUrvz8hhBAihCGEMMlonqKatkh2JBGrV6+uB9b/+Z//+byRRZdGSbJS1ZNOOqk677zzamm65ppratmSvEn2xl0IdVllxp3OhZJW/UdCfkdCCCFECEMIYR6iURk/+clP6uHukpwbbrih7g6qhO2d73znvJNFRyWWf/M3f1MPb9ecScmTynM1skHpq5I1yZhETzIoPvCBD9RSOGwhVDnt3/7t33Z8fpo1qfLj/B6EEEKIEIYQQmjcr/jKK6/UIyFUYimpkQipFFOdULWnbz4LYzmfUcPcJZAHH3xwPafxhBNOqM4888y6c+wll1xSi+TGjRvrc6gyVgmlBE9C148Q6rLGeyjlPO2007qKICmpxn3kfR5CCCFCGEIIYcZ7Fl988cXqkUceqcspJShKpiRCf/VXfxVRnGaHVZXvaizHX//1X9djIMTf/d3f1YInJJv6mc7tX/7lX9bMtORXjXPyHg4hhBAhDCGEMKv7FjWAXh0+ta9u69at9X69RYsWdex4GWYXlbHm/RlCCCFCGEIIYah7F3/2s59Vjz/+eN3RU+WSV1xxRd3kRalYxG12kJjn/RdCCCFCGEIIYaR57bXXqu9///v1LEE1a1GzG5WjnnzyydWBBx5Yl1hG8KaHGt7kvRVCCCFCGEIIYSL2L/70pz+tnnzyyXqeoLp6XnfdddXKlSvrjqC9NFaZT2g8Rt43IYQQIoQhhBDmDW+88Ub1X//1X9Wjjz5az1/UyAd199RYDc3nW7BgwcTvZVSTGglz3g8hhBAihCGEEEKBRmv89re/rZ599tl6FqP2M2peoNLG1atX1yWqGiOhMQ3jJoPq9iohzuscQgghQhhCCCH0KY6ayfijH/2o+sY3vlF3Tv3oRz9ap447d+6s1q1bVy1fvrwuV9XA97/4i78Ymggec8wx9eNT4568diGEECKEIYQQwhB4/fXXq5deeqkeAP/Vr361euCBB+oE8kMf+lB1zz331EPlJZObNm2q1qxZUw+wP/3006tjjz22Hs1x2GGHVYsXL66H3B911FHV0UcfXS1durSWTqV/y5Ytq84///xq8+bNdZdWlYbqeJLXnP8QQggRwhBCCCGEEEIIEcIQQgghhBBCCBHCEEIIIYQQQggRwhBCCCGEEEIIEcIQQgghhBBCCBHCEEIIIYQQQggRwhBCCCGEEEIIEcIQQgghhBBCCBHCEEIIIYQQQogQhhBCCCGEEEKIEIYQQgghhBBCiBCGEEIIIYQQQogQhhBCCCGEEEKIEIYQQgghhBBCiBCGEEIIIYQQQogQhhBCCCGEEEKIEIYQQgghhBBCiBCGEEIIIYQQQogQhhBCCCGEEEKIEIYQQgghhBBCiBCGEEIIIYQQQogQhhBCCCGEEEKIEIYQQgghhBBCiBCGEEIIIYQQQogQhhBCCCGEEEKIEIYQQgghhBBCiBCGEEIIIYQQQogQhhBCCCGEEEKIEIYQQgghhBBCiBCGEEIIIYQQQogQhhBCCCGEEEKIEIYQQgghhBBChDCEEEIIIYQQQoQwhBBCCCGEEEKEMIQQQgghhBBChDCEEEIIIYQQQoQwhBBCCCGEEEKEMIQQQgghhBBChDCEEEIIIYQQQoQwhBBCCCGEEMI48P8AiejTya6FbOwAAAAASUVORK5CYII=;" vertex="1" parent="1">
          <mxGeometry x="510" y="478" width="237.88" height="180" as="geometry" />
        </mxCell>
        <mxCell id="mYIh2JkVeHM76ZporqHf-13" value="" style="shape=image;verticalLabelPosition=bottom;labelBackgroundColor=#ffffff;verticalAlign=top;aspect=fixed;imageAspect=0;image=data:image/png,iVBORw0KGgoAAAANSUhEUgAAAPAAAADSCAMAAABD772dAAAAflBMVEX29vb+/v4AAADs7OxsbGwrKyvFxcUODg7Nzc36+vqAgID8/PykpKRGRka/v7+7u7vW1tatra0yMjLk5OQsLCxra2sbGxvr6+uPj49ycnKdnZ1RUVFeXl60tLTKysrl5eVUVFSJiYkiIiJ5eXk6OjoYGBiUlJSfn59EREQ4ODgo/cXEAAAGDElEQVR4nO2d6XqqMBBAGaxoCFWQqqCAilv7/i94IQHFldDqdSJz/mmRL8eZLMQ0MQyCIAiCIAgCNYy9ugT/Fcb7lsFVLmScA3DO9f5+2OLLNM0h1FzFgfuJM1vZwT72GWjsDEszJ7wTZAaw8MLUPJDarr7KndLC41eVs2i6wZd5zrxfkxN4OTiMYn4WtyyRDctOL2yLnNAzyLA+OvQClwFngqyBMnwnui4r2Lp6BpmFVYv0YzZwMxInWG7v2ArqmjqkwLBO7Mg82lRfenoa885HvWoaeq4BOf6+e3g3UenA8cHA/bxr+7MTlbu4mjPv8Jepni1XppzcbJ/mzgLORlfQKb+guZ5JbeTK/u6yu03D4fTcVlzNy1ow1DOpc7Kk9b31qFeY9CI7XvBrtgIoMiLVNsQ52UgD2CLvlvy8gbr3mMCMiTS2NK3FR+TAo/YybknhSOsQNwGKhuvV5fhv8FgK97XPaVWKB629vu10Q0B2Y+v2VOKxEF62R3it+WCrKbASwp/tEbbbFuGwbXU4attQS/bDQVv6YTaVwl5rhAdS2G3L0LJopNvz8MC67eqVmCsDPGtLFS4zujVVmEnfblsymhdz07u2ZDT/kcKLlmQ0H7RsCo+PpHDSlgAXNXjTlgAXTfQbzMKrUQ462jPZ0XnzKWm55qNKkPvalTc4f5MFffnva8bCGjqBXWWVmuZ2VXk9iweucfvHRk2Qv6DeXx1QpRvN+gboOvZiAIndrbc8J/I6Oq7TY+AHvXq7G84W0yzMDNzxb20FoxsrGZEC/ukSlzSyd148PGJZ1qDychh7s1W4OcmISaxNYjMWVNPTKdZnnfRK4Yd18SaAP7RHx09+arI2Edz0UOZ1wq94AXybpnP1DwCL/dF5p0OQwSmL++Ndt834vC2c4R6Wb8476I2hLGz3Ws6qCQNMy7tsfeRtFytbK++eT61wVp3L4UoftXG53GzZua9TLwyHquEiNi7zeVcnoyIMfrF0De+0F+xlCQe1LkrCYHyL23292usW5WN9Uq+iJiy6r4wQaX/MUsX4qgsz2SdbKKsx7NTqbxNhkFMj6avdrsFk2eZKHsrCIJegzhAmtZy1MWv6o8bCxeo1hA01U0/oRsIycfCtiyjWxrKHC8vla/gmdGXqrRQlmgjLtS8+uqSWxXqCMMwx5rQcdHRVHRoJi/EbtkXG8tex8CnC4rv8xiY8y0ulLNFIWLTTk1cbniGXqMRPEQbx1NR5teIp8sHw3iTHH4S7GIXHbRP+IGESJmESJmESRgMJkzAJk7CGwgo/sryXsNNXw13+jHaK1/YT+Z/kKIWfw2LUMuEpXuHeM8AsbBX7wz0UA3EdVu6WmoG3lSZhEiZhEiZhEkYBCZMwCZMwCZMwIkiYhEmYhEmYhBFBwiRMwiRMwiSMCBImYRImYRImYUSQMAmTMAmTMAkjgoRJmIRJmIRJGBEkTMIkTMIkTMKIIGESJmESJmESRgQJkzAJkzAJoxZutpHnGwiLrVpVTjx4F2Gxsfn9E2l+C+shFJbbLc+eIiz2TO8i2zKdDfNSRU8RTvJbY9sVn/l5qcynCIsDJFbIhA0udr3uP0NY7D00QLYpvgHrvFjjJ/jKM36QtVlZTvdFuaaPF45k6/BqwQsgzQumfA6AMjLACI+iLo4Ff3gt3uR3HeELcJbUotmaPNhXHuI0xNZk5XDRFT+4LxZ9sDnHGODDGYCrB/rK3h3hyTQCJs/NMYNH+zo4A5wltTzv6+Qw9L8ge7qsc3+12E1AttTm/PIA3l9Q3GyDM58lRaP6iKkAozgV9MvALGzArDAe/3HMVZ5cOsJ+IC/ERUlN+w/K8ba4ScSQ++YHTJeFNce/G3Z1ZpPyDju87dURZhwOiDYngdvQdurND59O+zr4ZoD1ZR6J9slCLbKuZ/9UPhgYGAeUV2HMOTniPgvW53ht3yGMRmefCH1NwivhzBuZf2Dt63BA/AmcJ2G92FU2Tkc73RwGbLBOm9ouHR+0qbsXMOB+HCwVs3seOq4BXMfgVmCcZxGbutbgHlbfz74d7WUrKOwFTxAEQRAEQejLP6hPhRHHcTA7AAAAAElFTkSuQmCC;" vertex="1" parent="1">
          <mxGeometry x="580" y="998" width="91.43" height="80" as="geometry" />
        </mxCell>
        <mxCell id="mYIh2JkVeHM76ZporqHf-14" value="" style="shape=image;verticalLabelPosition=bottom;labelBackgroundColor=#ffffff;verticalAlign=top;aspect=fixed;imageAspect=0;image=data:image/png,iVBORw0KGgoAAAANSUhEUgAAAXcAAACGCAMAAAARpzrEAAAAllBMVEX///+ZmZn+/v6VlZWYmJiXl5eUlJSWlpbGxsbr6+uenp6lpaXz8/ORkZGioqLi4uLLy8vT09O8vLyxsbHe3t739/fAwMCqqqrZ2dm0tLTm5ubIyMjt7e3V1dWBgYEAAACIiIhmZmZ5eXlZWVlRUVFsbGxGRkYwMDB8fHw+Pj5fX19JSUlSUlI3NzctLS0hISEYGBgSEhI3VcHRAAAgAElEQVR4nO2dCWPbKPPwEQLJ1n1YkiXLrmPHaY4e+3z/L/cyCBAIlCbp7vb/bkuPOIA4fh4NA4wQQts+It6f8O8FEvVbhLZRGPp/wr8ZwjDaop7SavMn/JuhorRGXlhh9Cf8mwFXoce4b351O367sJHc/y6Jx/idJb03/9/X1PcXtHrBe0riHZ6546FwhBGjpiwOi9hDsW9QUhZ2Qo4R3hZ2QjHwguwLWEFTzcuUBPEarJpZDc3e0dJjM9VshS2GgqwGFbsGNbkjf5kgPK51Ye8oCLowlm8MrFb4lhT3pk8DO/hBuw/hxzKkXeuKDoIOb9IwtZPSKvdY9CLe99Ns6PgHX4+F6w+ls0FpPUSO6DClu8rugs9rpq6WpvGYObrA6i4L6IDdhanmZReCIBr61FWDK6TezuCeU+pFViAezQix4yNKQo/a0R4NDhFxJZAwps6Cwsxz1ewRL3PGe2HM6nY0lWasua4LqLtm1iLi7DOJsvcVRDJmk0fsz49DRPzO0DOHINhtl2EsqOf57WglDKyL/sGKH3cRyUhQ2glHNlmgtVXOdgTqwWDHH3yP+BtnDYTEg51QU+IFezu+JISSyq55YALlRY6CWspqLuz4PauZ1o6mdlCzHe8MYx/6jS7vGz91DA45m8cGpWNsiBmtnR2fZDTz0q2dMIKgto5RpmPfbOqI3wWs5r0d38SMe+24oA1ZQYkdPzAp8ws7HrOaSeYo6Ag153Z8wqQ6rBwX9CtdcASMDn7ANLwm737a8KF2U4Xz+LzgnkjjQ3DHYL6wYYuNvli0bebOYpqmEQnbmTu/Qtk9M3c2au3wmAgDZz9zF4VPPxKDe7NtpAlVadwxni0Mzv2g+r2VCZx7JH9rRnVFucJ9FNwlAiw/atwxHzV59c30E08Zp9wYrXHHqCN3s21ncMf4IuVJcYesZVZFDVpw519Ie+gt7lD28dYjiztCcVZGo4M7K+i4d3HHaTxM/VxwR/vRyR01aSO5GdzxSRnAb+Uu5UHnHp4ziShS956mR1blnbX4WK1wR83jzJ1IeUdDVgV9ZHNHqLi/nsUXonPH6ByONneMNnFc70Q7Te53Xifide4Y30o0OOQd1eeoc3IfMuTkjmo1d3wj9zlo3G/DmRlDG1SeimCbDVm6zc4H7PlJk3lN5eWvyDtSN/aSO8Zdo7hLeWeEyvMQu7g39f2XHtvcWRcezw55Z19hFHt7F/e0kmODIe87j5xbZMs72n17kGODyX0fy08L7lX/Tu47l565pdd8iF52l6ZJL8fyNmxfmhtqb3FdNcN9fFmRdyuY8o4rF/ehrmia29zhTugkXoM7bs+pbL4m70yd5JUclPcr46rBPTnVT7mowuBeVkfZapN7EqrOmNxJjpZ6RmkevODOE17kSKRzv6C+eizv9o9MBV42KL/ur+hxExTnuEDD3X7/Ie4Yj/a4CuqBxh1ecofsMKy6xlWUdC49w4fb0dYzq9wxGodEojb1e6M6Y46ruEuceqaJkaXfQULGcZQjsSbvGG/H+/3W5p6evKQ/n5vNadOPUXEO87tz1ZxJ16R+052rFT3zI+5K/+jyzho9SLyLcXWWGUO/TwlowV2Uga1x9RXuWoHVa3bkbM+gFf2OnNyT4HS6iDtQk3eUPF6+3y4CWK8NUcuwTRexH9IzaJZ3Na5KQ2miMnPnPLDN3Yw3xlVR2Ju5C/PMYUdqy3MLeZ+7YNozs1DN3BFGWkG6nmG/fklcdqTotvggjR7NpPwIdzQLy2y/S+Pa5q5fYOoZhFzyjrXkd8k7erO86z1ZyrsM87gqb8ylfucRFwd3rUFKuuT9Leivc8+3K3Zkc6itcZVbnnEnZ6iafmcJRdwntv0OKVtlFxjcs/QsKzftmWNcTbO6hT1zTtNClGRwH+tefjTlvY2lpaJzZw3q1GTatGdmM93Q7/oX9Y756mt6pj6scB/S79a8CXLGm+yLPW9iSW0ZncQFBneEnr/Z3FlRX3ZD45qvlnflJrHtd5Tk+ZfSZb9fuvgmW61zj2/tVcyoZu7w7ym7SkPSsiOxxX2eO0H4m7hX5TwSLPTMnZwFGvLOwjfRYZ07/C2fnXqmps+u+Sp6ghHfMa4+9l2CbHlnvw/fnOPq8+54Lz4a3F9ydBUTJMUdBCF/RsWdyGNyT0P50ZB3WEovRN/+Ju4Irci7wZ2odQKY1shZoDlfRbeX1rVOsL/gq3PetNlfIwf35vrcfR6c3KPMyf3w9UWuYBncs0vxl1Aohry3j2jn5l4UiSXvzEwNUxYse+YNYZ27bgwsuTvWCVjW7OyyIznur9Y6Act5ul6+dy77nXXz6pL3uwO6K53c73eytTr38b7JP4trDe5N1T1b8g6ScMd0mcjzFj2TpGcW/hbugW3PYLQjBLhPFTfFQz+IlsSeWAeGlbTPm4Nmz5BgEELRlvWT4k6A+zTEb3eHJ3nnTNyn5bqhq750crBmvfcl9/5WfpssDODuhYp7e5OfUOsTIrknL5v+u0gYPNgqkLddublKW7NjMhVhMUZ9rm5yQaf0WYty2xgfM+rRSthwewiLeZPDNrLDZsk9VCt1Gnch70KYo/NZ3vlq/R209Vndclzeg+2kBJv6cpaGjpB3LOzkppNmgeDOq2hqUggrDO0C4qVyXEXdpRBynWSEzNx3Yg8A1hiM9ZnHs9wdGEB05Pp7fkrlsMq4Eybvwl7ZnzLZ+5J9gYGTu0elnjFs5D6cu/DDcAhM7iv7HkxYQte+R0ckdyN+knfnvgdx73vUr+x7+O59D8+578H0DAnete/BuL9v34PLux0Yd/J2PROa3IvAL/JF2OUgRGG/jM/zPdy8Fcux439VfBmRmPobefmcUsA+Xwe5d1OSvAq27fzjlFMk8f8q6oVhNZUzpe14eUdWDs32ywp2Od9tK9SvquYNhR3G3ErYwxZudJTF7NQFPWUtau0+Fx5raidaPmfPh8wLmRAObwu1HxrcmVg4dr8ZdiYWjgTYo5220M09fBIcMxLyfXaRMP0IiVdTVVA6X8UGSVmSkeKTqJsKmspQFzBpp1QvWhXUZdJvQE8IWQ1UK2juQtiH1NEHSrKY+IHlm8DUTx2SYPIc0FOZQEWEOxY4nBCWhVC/xjp33BOHTzDsqzN5kb/SOUvXRx5PYLc98YnK3w2V54krSKhtpPdlpnL5ROXx4n2nagsJVfFRe5Beyixea1N9zHitoAK1Cryo7GW878nOEPC9LSPxMSRzXwirOZ6ivWCuFpx1N200tS+kBgteM+cQenqLspJ3gQ08oYOhGUgHO2Qzd7DPqCOEPqWsPFYi62Mv0IElEE1VE496XaGQepGWkBXx3PDZz4HGRTZ/mdxDYiqV5df6o8d3Wn+goAlvxOIVX1Ezr/BQz+WTuYYI4j2jqdOlGy50WoKQqE3vkUXNPL5qTb7R1CLaHusfOnNUoyHvR9+L+1dC3bObDHwu+L0b8NsNbip2a1ESE9MziLs6+dzfRMX76ieTNCaS2i3pi/s45PmtK7h/ShAGRmD5fBqHJNRiwpRfRAHP8oYPgzBk7fFClZtrQvjB+hV54UJHQDkk9pbt5A5SBJxvjN5OaV4GDXJJrybHoW+Oq75rMc8I7LYn8ZF7mx3hD/9bHpmwU0/Es18hjqeV3NNF+qdNmXnI2MAVlUeVIj8xYWeiLROOMuUYgyyq7DL/sazB1apYFMI+wghLCqNiXhjY2d7hqCXwulg8y79RDZItPVbgPHSYrp4aVIp4dje1c4UyP8wgSFy/HjrCJ3H6vGmNu9x0BRPc4TmM2c3r9CtZi2cWH12xBGnvMGaZUeU0+A7sjuoc+QvfvcB7hHjHYjebopHI0fkcJlCO/ANYFS5bmRugsMu2HvCY+cDElHd9zd527F0xwYG7065di1/lTj/A3cHlA9y9t3PHnHu0XUQi4E40ny2sL1zOn5I4dHBXWfRFGhn+cIdgc2/KyQcC5F1xnzdxxOKhEGUndzTEdcemarsc/ZH3N3Pf3AabO2zrd5vpPkDz9hvj7tAzKCm/HOoC9V6J7fWGP9wh2NzrFjm4MyG+VSe0K/BjNQw4T8pyt9mu6pkb3tRtdYq1TScZfmvuiobFHV+O04eFvKPtXZ3maValRZE16eF2fC7OK/LOuI+nzOsPefAad2nhTD8mvlguqSIkxgaduz7GSO7yelnRzB1rV+nc1QY9Dxp3UfyUpnPXb1vFHZt9U9ylu5xInbmziPwkyjK4Q9b+s9gTXsr79tpl7alus2YfNedNOz6iS+OWd4weh0cSt7eg/AH3BnZCp/5K7kyjIZxMPkNL7s04jkvukCkZ1bb8zJ2Vy/Ino5A1jTvGwEfsAOnyziw0JNexTXlvVD8k98lo2yrJN7jzWm3uGFVH4V9gcIc4byPtGXNc3aboVJ7bfdUlNy8tNkmKzo1T3lnmAe13SZPvXrVnYEPyet0jnTs06IaapxGd9zb39uHLF7merOSdoXq83vc2d4zqexZ6izt4fqJCOPnp3OOKJ9nyjqKjbL/iDtsnrP0yYdYz7Gu9Xe8PFnf9Bre5972t3/n+wxaNTXNI8L4Z9kmT4C3a4lU7Ut6yr9ozzdMO5U+NwZ1V9ID3f3Xom9gK1bnH/VzOrGdQ84DwJ+VpN3OHrY7aoWcwKq/JS2JzTzuEvgoHNpP7Sa29a3qmedmj8WFYcGfFj59R80k6tMzyrjykbP2O0e552kZc6hllTOpRbnlXlrvDnNG5jw8geocFd3TaZNmpuWKbe/dMybDkDv1P2nt5w5vjaqd8Ws1xNX1qka1ngPtTbss7QmeLO2jrb+z3u43NPfnaFF8t7mpGs+Te8W34JHHZkUgOJGKPbbrYbb+/GjTu23vg3prcGbn0EV8i6RJocH9sW82DVNozzTW4jy09I7m7x9Un+QyJJe/CNdiUd5s7C7vPLOXWLrkzcXy6nOQO4RvsyCfdXrPl3RHW7JlXgq5nWB9zcb/P4yrC3+5Q8JfU4wZ3zXA05J2pGnUf/FjeAfyLRKFzrx8R/r61ua/Ie8IqTR7EZp6m39H4FSmb8Q3c7wdNLbyR+8/IOyoeHu8FU8kdmvvpjA6fkEPe48+35+W4CnqWdbO+yHiDexzb8s5jvjbY1jPJy92TdKU25f3R5s7+7L9eHmTbdHkf/0Lv4f4yaGbfP88dqmquhTCsrPmRGBx+NG9SK0dOPTNPVQx7Bs8pC/tdTQgMeZ+LN+x37Sp93mQYFG+U9/dy/xk9w0sYF9zVmO/grs93ND0zpbm5q08t8JpLUR3VuYu6+S8m9zn/LO/IsBq0dWDpwct/eRt39F7uC3lfX3+XEOBZ4eU6ATSzDl1yDV6QXlBZ1ijGr6y/+/1iLgnBtU4AbJzrBFhwt5yBuEMSjRpkJaytv4MrSdogo0FQbw7r79Og9LLVuG9Tj/sOIYctqMJS3t3+70aA3TOLO8g7Ie59D0LcemblyV/wgFlZn/FW1meIvT6DOffMUc6RleP6PvY+4XpmmcLknSyh4EneiZD30wnPKXL9HdtFzcGW9+BoPw+vHiqH/yjTM722lixWlJsuhPhlAncF8+tldnF/wGN1y/w9k/eusS8AvyBPWsIq9+QhFid2gzbgZdDY8YVPCH8+1or3qLdFeNmgo0+BI160lI8Hnlopn/vF7gPq8tlacDflfRtR7uPqDgH8hT106kjkHhXOeOrMD9ucxBEfEuKOX8sP2/PueOLKH4ArgDveWQ7PH7jKJ+5y2NdKvSiL49h1O7vlvekIdTseKH+I+SdRAX4VP4x4Ip1rFvkJUWURM366hjjiuYuOcKhQcXQqW7R5mZl6Vg1wxeT+sWiQLH9ZEvF03w4VRzxViqhE9Ut8pNTvX+FuyvvgERr+KPiTw5HuLcQrjLhHE7ETPAoEqO6EIuJ9gEb073rK41v+QlMIeQX+jEfEQ4sIVCCKkgmw5w+1aPVOaEIuxXqDpvwc6MJRCf4TDVo6JJGQTvmJ9NES2cE1zukJ6pb3KqRV+8OwAccfvka8CGPGB1dbOYMbaWwrbdzC+TWjnf/IBq0gt+MH6NrBUQGA7+z4ho0KYZzY+Q+w629XjPfcW8QuKPG527tdQQdm2dwzmYObyS5zws2dDXbrg/Ac2FhOQ9djduAsa3/LmA2uhLicLQ7CiFiGHQxmgx0PjtyBw60XgYwtb2sY8MA6WtuNWnt0ke5tS6SB42hcB991YGbMJmMrG92G5FV595fcf2RHQhhcjzdifjgLsYxMJIwag7v4fADjwmFM7yajwIqHBxf8Ups1yQA6QuMud7wYd2JY92JtkD/O4ZoN5aCaXdzZwOA8+K7m0zwFvvgqHpxn0zynWT0Fh7w3r9mdIuQpUwNr8q7XJrvPuNPOggV+4AQmKy7uXjDYLWHyToLC0UJQ4wt55yzgdl/IO5azKqe8g7p2OdyDP+vGrpdN0wnVp3nykBimQV/l7pB3ub8oZ+TLbmJd3rHKh/hjGGo0wfqcc+IuE2ZxPeibzNoEb6cm26IJ4grQM9PjA6rWKcHiLhI07nheBxeP0TRqEUmF3ON6xgoNeOs59cxiOeksYAP3t4+rE3c48W9e6LDAG9znmQyyuRut0/TMOneRoLhLEbC4z0Mc/23BXX2zurxjoWY07roM8PDT3A/i6JUfcXfpd3yL6z3sHcO/JFmqU1vekYv7snXucXXhVGFxxyLWknexBObmrsjr8j4VYsi7tYby09wfxX7JB+Qd7c4srvej4VvaVY99g17hzgevQgDSuaPy9KhI6NyrNFIn2Bjcg/Qsn3TU5b05Xa/y0Atd3tFmh9QZRAvuXWNzR9WANpupzFnPwMNtWvhp7jdNv79X3vfwfFQW3YYzOu0f+6VQLLij8eW5sblv7/e5svh07s9Vnl5FvMH9rzKXz1XutMXUU9QkR4s7q+/E7OmvopsL7t9lQTr3u7K/SquhVKu7yTe9bz/LPbub3U7erd+buyw+3Krn7UNHy8N1xK9xZ+Ke3YmbS+eePGymZNk6xZ1deHecEgzu3+HQ2Cno8v4yMF3nGlfP2e7o4A45v8kThXTuNzgrRtwHSs+g5Kvetx9yV9sFIkHjPu4bpFaEPyDvTL6LEm2PQ37ao22bLLXgQr+ja1mdHHpmd3nwZDt17nfswlM/pRjcP13k4TqGfr/fNul38cUa8n6+nh7/5+b+WRZkcP9UqA0Qg7smVz/mjpLTnddSuZKsuLNJ9oNm4H/InhGtT+Szwq+Nqyj//vzl85TB4M468R1prdO4Y+ntZHD/Ok8ddO7PrMCLQGFyZwkPFncuJJ+d8l69HCw7Usi77OAbuA/H4dDn2OLOG6Tso49wx1iZzeqXde5n1t9TZ9nvuddGSnUaeiatbxfRV1PPjA7uMFBczvLYEoP7Y4Waz279/k3e74Z+L5LPh4U9A9z7usVv5y5z2vKOzpu3c3fakdJmxwr+Knemk9gV26M9byq9WoHUuZf9ZpDzF4P7xi3vqBkGmcXgvh8QlkcimHom+Zo4uJcJSlrRmZk7PgB32bc3yDuWwrjgjifub9TvLjvyB2Fpz2jFZSurn2+230XYrWwOa3akGTQ9g9H2Se04ONYJeChXnlr6uD0zybsKH5H3H4T/89zn6dG/yB3hd3H/z8m7IG+vzxjhn5D38kE7OO4/KO+Ok0EMedcXbv5N7slWK/Dd3B10rLDGvXmVuyP+Ne5rB6m4TqJHxF4H5mGNe+Fcf5/WgV3c8VvXCWR4n57pfXrc/Ti0vkdpbb/vZAP7m7HjLSURJTSy30VSdLDz2trx8BB2WNnxFfteSeeoAHY4Izv6ENPQizZWfNkRSkK74rLiX6Bd0AYOmXD07BB5oZfZPYPHzmk32OeoTOEYmdz3TDx81+viQvmD/2F9qQnlMQH8yuLgAX3YQO4Cz5/z0pCl+3Q65ySY4uEUEFEcDUNwl5EV8sw8EBp3JJS/s4JFHlYx+6qoKIkVDFnYn4DASS3w5rWQlxKKHJSGVUjlW9nglAGexvKHXUbDuZSpFpZIWAXEp6I9vmgB6xlUPKNRTSZ+BSdm+LJJMjAxgJNC1gI/Q0t/n421ZT7vxM8b7AzjRh6+AXvvERXuFKQ/xNoRGLOvRmwcpjEXGRe1tnOvjrEgUdtGyoFCPwyj2mTKQ8NTNbDvu4j1gsThKXBKSKeXEsn82aGS2ZmmkEekiAocLfL6Q6Y1XZ0SQrIqI67DY7LOjtN6bp4/0/AjQlwB2tRmnvQb0Q6bofzIFzrBoL784tiPqoikNwwNvLl18V5+OUy0tLNHMihIlgruWxLvVBBvL4WKxfkmtN5nnpQI5ZTBGhCJgiCrPwsM+zY36rwcXztRR5wpw12sKNW8OFiLqCiUyaiSSabS+slNBvxeuAMJtXlRN0nOYXqcYj4HJXB9dbI2UIqsWdwrR5XBIjpeK2sz/KJaACcW0alunjzHh7X4DKmUqObBiUUyRZTNa2RKhGr9olM8hI5n4GUKeZmqyiL4CQ2aicDRWBFTLrIMvUAvI1NJwoNGdS32iOwv9EU0g5+N4njJ0FsDq4E/7TCPqzRcOyKLnwEmjvQyQgViYJ1KlucF9KO2hxYmo0x92wUNcJRjUNoFHWDQqRwF8SNWdvYF8C3BaWXLsIGzcxxnhu0BduwYBOFAochu0dCym84v4FT48f0BXkYUTMbwm+zIDEZ0Ryo4ejoPBEnXX91Da0dBG/CkdZ04AgUd7Xg4RnHNldsLXNYpOAW4jEQ428VVUM9kPHP7ZhPXC5TeGpI0sLi7500MExtuqM0dc1PYc/gYMe5wuo3lvcE9h+sGWwkbOAnQ6iXM0qgXLLmDC3LsxIVRxYw+J3c4F/BoO2M0oIzr2elGNa2HlzslSKzizathfHqxswt6S+DPzaZLeaevcPdcU5DJ0dzJneFi8m73soOzH5ebtmh6omO518w9zeELtCdLuIldjy5geGSEOOQdc3mnTu5wyKEWr7iHE3f5Rch4OE40kO/ceXfAk7xjW95HeNgdnjrXcTJzyS3v/qq8cz1jyzuZ5V1P3LjmkOAUmRIiJqlGWXBYre+U91DJu3HBDnxL93pO0aKI6DdOq+4tOAM1E8+aHU+RsUzN9czbwDcJgveJjPBeLqS4oyX3xjt1ezbpPu42kb5lC76lcndR+WAiU89oDilKv098lRg3XL83IrNc7UfiHW+NKkeJGV+VOIro+R8/NJWqw2o19yah36WX6Mydas5gogtcYUVEv3Fy5SDYM+MnE89WYnxTLX2fnslPp13EyuxQWlWvcC8vCSqeT7uyfDq/+Erh6txV2xF6Tb8L7lh5wZjc5d4KWnJX3y7/oXNXq43I5K4ugv8l96VbksEdyZZZ3Oe34CjukO8yK/73cQ9jhM6PaZMVT+lDtc4dt7e4PA+0Ks67k3rTmsm9eTyfT9OgaXD3EnQQq6E6d7Q7PcpVIp07itmFpUjRuOP6lKpDKTTuqGJ4ssSW9925QeNptLmzbK08ttfgnrbyUI4l904t52rcEdYePnwf9yS67c5Hb3cZz8MZrXNPGnR3iJu0Opzz86xvTe6HovhU2Nyjs3ryWuOOjg/lUY50up5BJOZOHQvuCH/ZFF/lO6x07pdPA988RQvu7aceeZ92Bnd+X2zOz5FEbXDfR9ezcDRdcNfH1VnesdoTfy/3LSrjdOjKy3hqTq9w357P5XBoqv2uSo5UCfxSz1zEwR+mnrmoxX+dOz8EwKHfUf51Ol1iyf1aDurpc5376XJCX8WmtcH9dknu7nZqs0NwR+X/6Hyo9ULP5P7/JuPG5K75g876XaR8iPvmkSRVchjqpkdZvc59JRjjKpPsi9hSk9yn36JPsjX6vOmem01Tisad/X0eOk9coHN/vtxe1LtoNO6Pm7vhaWvrmfZ04u5TWJd3jqi7XpT3n879cPnSianPQt7nQcHiLgv6Cfv9p7izjl5kQ2Z5B2vrrpYvr9Hl/SRPVkKGfmcp7eVOyrUh7w28tANZ+v2x3d29jA7u5+LT8GzKu2zrIN+CaHDPlAm2lPfZ9DK5Y/Qx/b4MPyPv46eor0tDv3MxuT+iZ2tcZQ196Vvpka/LO0v6pF70anDv6qeDQ888VujyeXTomRPK0XVvybvhg7LQM/MduNAza/Ku3t/76+R97FgoDP0OrU1YGaODOxrjrHTJOxv4cps7G8S6Tr7j1uBeDmgrX56lcx+gH4fE0u9TaaLRpv0uEmx75ly65R2djr+Iu2O++gb7HRlGNJ+v6vMm1Xxd3pF2HayLzfb79GPJXSRiZMo7iLt6p/NC3nmCsme0+WquSIt1AhGSu4We+WD4W7ir9RkrBbiHjvVIyd26QL4TRU8QJwE4NrPxK+uR+rpY86DAmdybJ5kA62LGAptsgVqfmRRqqrin/y73lXXgH8m7GcQjnw7uylfUaCTjTuz1SDStAzuXb4114DFQ8fA+JKoKms3FhZ7J9rOekfIOt1661+T9J9aBP8DdeeB3sLIe+QHuxOKOVrnjFXmf1sV89dTUXJNYjxTxs48jyLu2wKbex6a4T/mu4z/JfXWweEXeV9aBiVPPYL4O7CiopSv7HgEh4Yq8u49Soav7HppzzNwC2PeYv8Bmrkqsv08hP6n4nU9+Qs849z3IuHJWfAI7wtlgHY4yVvCektI+NeUYwFuG7FNVcth/73K7oD6kXrC3C4KBO2ztgnYR+KjY+cca1t/tCrYF7Hts7Pgc7oNOVTDXBI+ZRzvZPNWEETYMg7JJPhiaPFhwPwRh3LkD7ORSz1+GEN64E3qTv0xouN7wXWTfcscJqN/5NKThMiGk/A0eoX4F984hXmZlZrlD6sPLw5aOK/AOmMijAV3WC8c3RMTlHsTiqSOBVRGFNBTd8ubOswrYFxJ/OESEcitUcR8j9/tsuJ+An/eB5W1A4CbYcM+L0DecEUhU5BkxvF/EFfXIHQqWRdF4aD3PM1L4L6IgsxTY/q/Gzlse2gFOCjFrkcMRiP8EaioAAAQkSURBVETlPjOOC5FlVduYWiWxCGgR9zdYJES7Fg4uIUvvDS34a4ms3V648ONAsKnvDgxXkhwyR6irPmY/qqKNjfiurzpXfnZBvRLfx674rlopqF8pqFstqHcVFMVrBa23qI67unvFVSPr6mzNiyPyummxbn5/Uxa6nW24wIdx4HglDgUvOpYh7DyyiIcXPtkXgD+d644iPlMO1LoABMt5ASsooI4KQAGxiq2EkDsIUqsoJoG8RY6aWQXcY2iZwlQNG6M05UCMy8DlJxPeRlah3JFnss+088VItqqVwGtqXalF3O3u9wkRaMBVWBl9LTVmigab9kw0rg7DPbhTrA7iZeDR/qMj/P9/odkzBV6vmzSBF2b56sU9Nd9HybivL/aw6YjrLB5p3gbEXz/4478XhoCfH7gWAs/p8SRCu3jvbU1dRyuKpdGKEoP7POGDwZnN4V45cOW/Fxh3dcKT44hOMK+d3PnyRLt4/2rtu56+ECsZjHswLOLnD4z7byXveeCRFXkHIV2Vd77U0Ab+Qs9kOCmOEmgivoSErwhVvqdxb3bsr8yA+RrdbybvQq/iPWr2jcaY02OjHec+FDu1ZyF+bgcu79iQ92x719cDhsXPBHUlxiNqpoNR4KyuYN4cO3xis6zqoLQNnBP6+3CH1Wky6ff809g8lpW+k4CAO9Mz8Ir6qktgaa5p0IndBwmjWnVMvy/k3Y9reP7rQuP2y6m4nKuHjpzP/GAUGFc17qeuSuLTZZC7E78nd3BFaVN87m5Hc3snmFbU4KXsye188C53+bXuX/pzSg61Na72ftzXCJUeulT9EPf5LkU35Bd8DVvnjnbX+jJmfanGlN+UO8Jf6utwLtvFrprGfVONaZxXhxMq6iFAjw7uTL8Pz122u3Xppt9FLW1ZvuxyPENRGnc2blT7x0NUPKrD8H5X7r2/D/vT/pI75f14rbP9La2yXd+e26puLt1p0zm4Rxhv2Ii5R8y6H1E+ssFgjyc/Vp07zuHI/S3sRf7W3NnAiVGz3aJxceqi4I6SdouSHI1shoV2CdCEE9tc3FfrMvSMFX5X7ish8Fbsdx7+cP9g+MP914Q/3H9N+MP914Q/3H9N+MP914Q/3H9N+MP914S/mzv9Ge6/1zpw+jPcF/selU82h5WwiQmhvTuJ/YMXLmRr1/7nwubAffhWkzfgrFutXp4Rz+Ceh2GwFuDwJOI70304bol7bqxe/d8K3OuNBt5qekA5r7UQpq3ht4SL+BVXnHZfv+KpU++rNU+d/2R4vb/xoXwNZcV10OwvBmtrawEcktdf3gcPlSbrqf+9gF/tb/NDlELeSeg6pu9P+GB47S2gKmxCgqLfyhr5vxGqMEK9z8bfzZ/w74VDBR442yhwHRz5J/xzIQzgxblDH624YP8J/0yI+gH9P1C2lsp3DI14AAAAAElFTkSuQmCC;" vertex="1" parent="1">
          <mxGeometry x="220" y="986" width="319.03" height="114" as="geometry" />
        </mxCell>
        <mxCell id="mYIh2JkVeHM76ZporqHf-15" value="" style="shape=image;verticalLabelPosition=bottom;labelBackgroundColor=#ffffff;verticalAlign=top;aspect=fixed;imageAspect=0;image=data:image/png,iVBORw0KGgoAAAANSUhEUgAAAQUAAADBCAMAAADxRlW1AAAAb1BMVEX39/cAAAD7+/v////CwsJiYmISEhIKCgpZWVk8PDzq6urY2NiAgID8/Pzz8/PHx8fk5OSRkZFycnJBQUGIiIi0tLTQ0NAjIyNMTEyjo6Pe3t4mJibT09O2trZ7e3tVVVWZmZk1NTUbGxtgYGCnp6dko5NqAAADQklEQVR4nO3da0/yMByHYdr/PDAZ4wyKD+Lh+3/Gx1+QOIymZYzAuvt6ZxPDemftgC2h1wMAAACa4dNwUgMbllkKyqHVj1CMXSpmtU8Hm1z62Bt0X/Ns8OWlj7xR/wpOhdong91//f/rTZtNv2bRP63Cxtpt3EiFh9OutpfmcypQYYcKQgWhglBBqCBUECoIFYQKQgWhglBBqCBUECoIFYQKQgWhglBBqCBUECoIFYQKQgWhglBBqCBUECoIFYQKQgWhglBBqCBUECoIFYQKQgWhglBBqCBUECoIFYQKQgWhglBBqCBUECoIFYQKQgWhglBBqCBUECoIFYQKQgWhglBBqCBUECoIFYQKQgWhglBBqCBUECoIFYQKQgWhglBBqCBUECoIFYQKQgWhglBBqCBUECoIFYQKQgWhgjRUYVHvR7uuhR81UuGl5T/PeNNIBedu22w/iZMrJIEKQgWhglBBqCBUkC5WmD3lo+3BSAcrlOZ73kbVoe5VGO9mbPPKWPcq5PuPwZWx7lXYR7DX77HuVRh+TcG/fY91r8J895WIX1TGulfhLlcG718rY92r4JYLM3voV4c6WOHT6u3w725W+IkKQgWhgtSsUIwvfeCN2tSrsL+pk4hRzVtsRXbpI2/QvN6poAyjydrdnUHgiBt/ufXkoXaEz0Vh57hHaS+BCo2/orfru+Nsb4EK+fUdc/MstIYXHagQvvbM2/2sQJSDT/2/mp2wlbVF8RiqsOpABbsJVXBd2BeWwQotf5Qqgn8KRnDb5LfH8LbQhY3BpuEKyb9vilkQzj0mviRsFlNhmfqSiIngXJn0krCIvVGmSZ8Mw7gIzmUJ7wxxu4Ks010ScReInW2ya8Kv4yu450TXhE2OiOBuh0kuCtuGp141TbHCwbNWUd7T2xqOPRNk5dM6HXyxOT6Cc/08pS3SnvrhKf8qu8JbCfWYP+HG73ueQgdvvcjPDn+ZtbyD92bP0W+a/zZZmLVvo/TeF4WZjbJB+KvWKMtBlpsVhW9PjGFWZvPxYHUbnt1RJSbjebl4zi89vTi+bHb2P7TkC+ri6DeJR2nJ/bszPxA1aUmFj83gfDYf7VgRPV0ezqclEQAAAJCm/17VXxZA0IzBAAAAAElFTkSuQmCC;" vertex="1" parent="1">
          <mxGeometry x="480" y="168" width="261" height="193" as="geometry" />
        </mxCell>
        <mxCell id="mYIh2JkVeHM76ZporqHf-16" value="USB HUB" style="rounded=1;whiteSpace=wrap;html=1;" vertex="1" parent="1">
          <mxGeometry x="170" y="760" width="120" height="60" as="geometry" />
        </mxCell>
        <mxCell id="mYIh2JkVeHM76ZporqHf-17" value="USB HUB" style="rounded=1;whiteSpace=wrap;html=1;" vertex="1" parent="1">
          <mxGeometry x="565.72" y="760" width="120" height="60" as="geometry" />
        </mxCell>
        <mxCell id="mYIh2JkVeHM76ZporqHf-18" style="edgeStyle=orthogonalEdgeStyle;rounded=0;orthogonalLoop=1;jettySize=auto;html=1;exitX=0.75;exitY=1;exitDx=0;exitDy=0;entryX=1;entryY=1;entryDx=0;entryDy=0;" edge="1" parent="1" source="mYIh2JkVeHM76ZporqHf-17" target="mYIh2JkVeHM76ZporqHf-17">
          <mxGeometry relative="1" as="geometry" />
        </mxCell>
        <mxCell id="mYIh2JkVeHM76ZporqHf-19" value="" style="endArrow=classic;html=1;exitX=0.5;exitY=0;exitDx=0;exitDy=0;" edge="1" parent="1" source="mYIh2JkVeHM76ZporqHf-14">
          <mxGeometry width="50" height="50" relative="1" as="geometry">
            <mxPoint x="370" y="750" as="sourcePoint" />
            <mxPoint x="630" y="820" as="targetPoint" />
          </mxGeometry>
        </mxCell>
        <mxCell id="mYIh2JkVeHM76ZporqHf-20" value="" style="endArrow=classic;html=1;exitX=0.5;exitY=0;exitDx=0;exitDy=0;" edge="1" parent="1" source="mYIh2JkVeHM76ZporqHf-13">
          <mxGeometry width="50" height="50" relative="1" as="geometry">
            <mxPoint x="370" y="750" as="sourcePoint" />
            <mxPoint x="626" y="820" as="targetPoint" />
            <Array as="points">
              <mxPoint x="640" y="820" />
            </Array>
          </mxGeometry>
        </mxCell>
        <mxCell id="mYIh2JkVeHM76ZporqHf-21" value="" style="endArrow=classic;startArrow=classic;html=1;exitX=0.5;exitY=0;exitDx=0;exitDy=0;entryX=0.25;entryY=1;entryDx=0;entryDy=0;" edge="1" parent="1" source="mYIh2JkVeHM76ZporqHf-16" target="mYIh2JkVeHM76ZporqHf-11">
          <mxGeometry width="50" height="50" relative="1" as="geometry">
            <mxPoint x="370" y="750" as="sourcePoint" />
            <mxPoint x="420" y="700" as="targetPoint" />
          </mxGeometry>
        </mxCell>
        <mxCell id="mYIh2JkVeHM76ZporqHf-22" value="" style="endArrow=classic;html=1;entryX=0.5;entryY=1;entryDx=0;entryDy=0;" edge="1" parent="1" target="mYIh2JkVeHM76ZporqHf-10">
          <mxGeometry width="50" height="50" relative="1" as="geometry">
            <mxPoint x="380" y="430" as="sourcePoint" />
            <mxPoint x="420" y="500" as="targetPoint" />
          </mxGeometry>
        </mxCell>
        <mxCell id="mYIh2JkVeHM76ZporqHf-23" value="" style="endArrow=classic;html=1;entryX=0.5;entryY=1;entryDx=0;entryDy=0;" edge="1" parent="1" target="mYIh2JkVeHM76ZporqHf-15">
          <mxGeometry width="50" height="50" relative="1" as="geometry">
            <mxPoint x="550" y="420" as="sourcePoint" />
            <mxPoint x="420" y="500" as="targetPoint" />
          </mxGeometry>
        </mxCell>
      </root>
    </mxGraphModel>
  </diagram>
</mxfile>
